<svg width="100" height="78" viewBox="0 0 100 78" fill="none" xmlns="http://www.w3.org/2000/svg">
  <path d="M23.497 37.0333h-8.0351v30.6586h8.0351V37.0333Z" fill="#3629B7" />
  <path d="M25.2381 34.9881H13.7212v4.0899h11.5169v-4.0899ZM25.2381 65.6464H13.7212v4.0899h11.5169v-4.0899Z"
    fill="#0890FE" />
  <path
    d="M17.916 63.3061h-.384c-.4116 0-.7454-.3397-.7454-.7587V42.1771c0-.4191.3338-.7588.7454-.7588h.384c.4117 0 .7454.3397.7454.7588v20.3703c0 .419-.3337.7587-.7454.7587ZM21.427 63.3061h-.384c-.4117 0-.7454-.3397-.7454-.7587V42.1771c0-.4191.3337-.7588.7454-.7588h.384c.4116 0 .7454.3397.7454.7588v20.3703c0 .419-.3338.7587-.7454.7587Z"
    fill="#fff" />
  <path d="M39.467 37.0333h-8.0351v30.6586h8.0351V37.0333Z" fill="#3629B7" />
  <path d="M41.2081 34.9881H29.6912v4.0899h11.5169v-4.0899ZM41.2081 65.6464H29.6912v4.0899h11.5169v-4.0899Z"
    fill="#0890FE" />
  <path
    d="M33.886 63.3061h-.384c-.4117 0-.7454-.3397-.7454-.7587V42.1771c0-.4191.3337-.7588.7454-.7588h.384c.4116 0 .7454.3397.7454.7588v20.3703c0 .419-.3338.7587-.7454.7587ZM37.3969 63.3061h-.3839c-.4117 0-.7454-.3397-.7454-.7587V42.1771c0-.4191.3337-.7588.7454-.7588h.3839c.4117 0 .7454.3397.7454.7588v20.3703c0 .419-.3337.7587-.7454.7587Z"
    fill="#fff" />
  <path d="M55.437 37.0333h-8.0351v30.6586h8.0351V37.0333Z" fill="#3629B7" />
  <path d="M57.178 34.9881H45.6611v4.0899H57.178v-4.0899ZM57.178 65.6464H45.6611v4.0899H57.178v-4.0899Z"
    fill="#0890FE" />
  <path
    d="M49.8562 63.3061h-.384c-.4117 0-.7454-.3397-.7454-.7587V42.1771c0-.4191.3337-.7588.7454-.7588h.384c.4116 0 .7454.3397.7454.7588v20.3703c0 .419-.3338.7587-.7454.7587ZM53.3667 63.3061h-.384c-.4117 0-.7454-.3397-.7454-.7587V42.1771c0-.4191.3337-.7588.7454-.7588h.384c.4116 0 .7454.3397.7454.7588v20.3703c0 .419-.3338.7587-.7454.7587Z"
    fill="#fff" />
  <path d="M71.4067 37.0333h-8.0351v30.6586h8.0351V37.0333Z" fill="#98C9ED" />
  <path d="M73.1478 34.9881H61.6309v4.0899h11.5169v-4.0899ZM73.1478 65.6464H61.6309v4.0899h11.5169v-4.0899Z"
    fill="#63AEE0" />
  <path
    d="M65.8259 63.3061h-.384c-.4116 0-.7454-.3397-.7454-.7587V42.1771c0-.4191.3338-.7588.7454-.7588h.384c.4117 0 .7454.3397.7454.7588v20.3703c0 .419-.3337.7587-.7454.7587ZM69.3366 63.3061h-.3839c-.4117 0-.7454-.3397-.7454-.7587V42.1771c0-.4191.3337-.7588.7454-.7588h.3839c.4117 0 .7454.3397.7454.7588v20.3703c0 .419-.3337.7587-.7454.7587Z"
    fill="#D4EFFF" />
  <path d="M76.4121 31.1586H10.458v3.8293h65.9541v-3.8293Z" fill="#3629B7" />
  <path d="M76.4121 31.1586H10.458v1.223h65.9541v-1.223Z" fill="#fff" />
  <path d="M76.4121 67.8218H10.458v3.8293h65.9541v-3.8293Z" fill="#3629B7" />
  <path d="M76.4121 67.8218H10.458v1.2231h65.9541v-1.2231Z" fill="#fff" />
  <path
    d="M73.1478 31.1585H13.7214v-4.1059c0-.0291.0185-.0545.0457-.0633l29.6481-9.4185c.0125-.0038.0261-.0038.0388 0l29.6482 9.4185c.0272.0085.0456.0342.0456.0633v4.1059Z"
    fill="#3629B7" />
  <path d="M62.2458 28.6654h-37.621v-2.6305l18.8104-5.9756 18.8106 5.9756v2.6305Z" fill="#fff" />
  <path
    d="M39.1383 26.2616c0 .7967-.7258 1.1633-1.6524 1.1633h-1.982l.7207-3.6684h1.8221c.8133 0 1.2507.3094 1.2507.8593 0 .4404-.2522.7495-.6433.917.3093.1366.4842.3882.4842.7288Zm-1.0142-.021c0-.2201-.1749-.3091-.4223-.3091h-.9007l-.1439.7439h.8852c.3555 0 .5817-.1412.5817-.4348Zm-1.0395-1.7346-.139.7075h.731c.3603 0 .5558-.1468.5558-.4191 0-.1994-.1594-.2884-.4271-.2884h-.7207ZM42.0567 26.7122h-1.534l-.4168.7127H39.03l2.3112-3.6684h1.0039l.87 3.6684h-1.0142l-.1442-.7127Zm-.1545-.7652-.242-1.1894-.6897 1.1894h.9317ZM47.6533 23.7565l-.7207 3.6684h-.8391l-1.1891-2.0123-.3962 2.0123h-.9984l.7204-3.6684h.8388l1.1945 2.0072.3911-2.0072h.9987ZM50.0624 25.4441l1.2095 1.9811h-1.1375l-.8285-1.3206-.4687.4299-.1749.8907h-1.0036l.7204-3.6684h1.0036l-.2932 1.4987 1.6266-1.4987h1.1994l-1.8531 1.6873Z"
    fill="#3629B7" />
  <path
    d="M65.4079 19.639c-4.293-6.0041-5.9627-7.9284-12.0959-12.20709C55.057 4.99017 56.6645 2.45446 58.3927 0c6.8414 4.79476 9.5267 7.38382 14.2 14.3903-2.401 1.7425-4.8224 3.4518-7.1848 5.2487Z"
    fill="#285193" />
  <path
    d="M65.6091 18.2089C62.152 12.7058 60.082 10.8058 54.7292 7.207c1.3445-1.89253 2.6069-3.84089 3.9432-5.73923 5.9594 3.98462 8.6833 6.43134 12.482 12.63993-1.8555 1.3566-3.7414 2.6725-5.5453 4.1012Z"
    fill="#D4EFFF" />
  <path
    d="M67.2555 14.3366c-.4543.3608-1.0148.2607-1.3088-.2347-.2944-.4954-.1842-1.1459.2419-1.5435.4258-.3973 1.0362-.2986 1.3404.2115.3038.5101.1808 1.206-.2735 1.5667ZM60.391 6.73632c-.3832.48713-1.0542.53772-1.5544.22449-.5001-.31324-.6585-.90874-.2992-1.40748.359-.49874 1.0438-.57532 1.553-.25186.5091.32346.6837.94772.3006 1.43485ZM71.6432 14.8529c-.413.2978-.9246.2063-1.1962-.2264-.2718-.4327-.1667-.9873.2379-1.293.4049-.3058.911-.1808 1.1937.243.2824.4238.1776.9787-.2354 1.2764ZM66.0814 18.8992c-.3655.2833-.8724.228-1.1329-.172-.2604-.4001-.1439-.9206.2279-1.2187.3717-.298.8173-.1949 1.075.1955.2575.3901.1955.9118-.17 1.1952ZM59.4339 1.96932c-.2985.42105-.8551.52251-1.2774.23333-.4222-.28946-.5037-.82441-.2121-1.242704.2917-.418567.8315-.515053 1.2445-.225872.4133.288906.5434.814186.245 1.235246ZM55.4355 7.68013c-.2859.39286-.8035.49377-1.2021.21869-.3984-.27481-.4844-.77825-.2009-1.17359.2834-.39535.7885-.47608 1.1899-.21039.4011.26568.4991.77244.2131 1.16529ZM63.6304 9.70355c-.176.1891-.3511.38045-.5252.57095.1738.1274.3555.1954.5225.034.0779-.0752.0912-.135.0953-.2447.0041-.10977-.0538-.25215-.0926-.36025ZM63.8497 8.39329c-.0589.06995-.0839.12828-.0823.23306.0016.10506.06.24827.1056.35056.1573-.18274.3145-.3677.4704-.55238-.081-.05722-.1855-.11943-.2808-.12219-.0956-.00277-.154.02101-.2129.09095Z"
    fill="#285193" />
  <path
    d="M65.5803 7.31059c-1.089-1.07935-2.6639-.38254-3.5207.61804-.8567 1.00058-1.3354 2.58407-.3272 3.58137 1.0083.9972 2.4502.3872 3.365-.5288.9152-.916 1.5718-2.59125.4829-3.67061Zm-2.1322 3.61311c-.2382-.011-.4744-.16-.6678-.3093-.1284.1305-.2528.2637-.3793.3956-.0704-.0736-.141-.1474-.2113-.2212.1225-.1282.2468-.2545.3669-.385-.2387-.2402-.4424-.48811-.5839-.79989.1179-.12908.2382-.25595.3533-.38724.0763.15312.1458.31178.2365.45606.0907.14428.1893.27087.3074.39137.2099-.22525.419-.44941.626-.67828-.0188-.0503-.0652-.15395-.0796-.19624-.0758-.22057-.1925-.44888-.1934-.66807-.0008-.21918.0489-.35352.1918-.51549.1431-.16197.3177-.24074.5555-.22941.2377.01133.4878.16252.6811.31289.0929-.09619.1811-.19542.2699-.29465.0782.07878.157.15727.2357.23522-.0882.09591-.1768.19155-.2653.28746.2289.25429.3829.52323.5083.84303-.1384.06163-.2769.12327-.417.18187-.0956-.26148-.2216-.47956-.3984-.69211-.195.21283-.3791.43312-.5749.6465.0163.04284.0579.14401.0704.17856.0839.23052.1811.5036.1577.72802-.0233.2245-.0782.3306-.227.4865-.1491.1564-.3248.2452-.5626.2338ZM100 51.8116c-8.3075 7.3999-12.7242 9.7242-23.3067 12.7419-1.241-3.7676-2.2235-7.5565-3.2477-11.3858 11.9673-2.8926 9.9891-1.408 18.1747-10.7214 3.3115 2.7378 5.7687 5.9634 8.3797 9.3653Z"
    fill="#285193" />
  <path
    d="M98.1485 51.7076c-6.7922 6.239-11.5693 9.1047-20.5409 11.1844-.9697-2.9222-1.786-5.8617-2.5702-8.8391 8.7367-1.366 11.5818-2.0205 16.7015-9.7819 2.5197 2.1523 4.432 4.7812 6.4096 7.4366Z"
    fill="#D4EFFF" />
  <path
    d="M93.2625 50.0148c.4912.6575.3443 1.5582-.2352 2.0965-.5795.5382-1.3423.5507-1.8012-.1021-.4589-.6527-.2772-1.4716.2526-2.0264.5297-.5549 1.2925-.6254 1.7838.032ZM81.6614 57.3111c.2794.7351-.116 1.3627-.8717 1.5527-.7557.1899-1.5546-.2348-1.8023-.982-.2476-.7473.1928-1.3409.9127-1.4739.7201-.133 1.4818.1684 1.7613.9032ZM92.4923 43.4869c.5094.4108.6433 1.0851.2123 1.5988-.4309.5136-1.0881.5117-1.5682.0967-.4801-.4149-.6794-1.1158-.2354-1.62.444-.504 1.0819-.4864 1.5913-.0755ZM98.9995 50.9402c.3965.5286.311 1.2134-.1689 1.6467-.4795.4332-1.1448.4321-1.5394-.1004-.3945-.5327-.3106-1.2504.1684-1.7096.4795-.4595 1.1435-.3653 1.5399.1633ZM76.0966 53.8836c.1724.6057-.2143 1.0533-.7957 1.1589-.5814.1056-1.1448-.1672-1.3048-.7616-.1599-.5944.1716-1.118.768-1.2366.5963-.1189 1.16.2333 1.3325.8393ZM78.7473 62.6225c.2172.6364-.1532 1.1855-.7802 1.3533-.627.1675-1.2524-.1534-1.4631-.7885-.2107-.635.0934-1.2435.7381-1.3845.6444-.141 1.2879.1833 1.5052.8197ZM86.9822 55.3688c.1501.2873.306.5718.4662.8532.2088-.1852.3905-.3948.2727-.6801-.0552-.1333-.1274-.1551-.2632-.1916-.1355-.0368-.3302.0039-.4757.0185ZM85.5315 54.6661c.0579.1017.113.1482.2379.1838.1249.0357.3101.0152.447-.0041-.1431-.256-.2892-.5123-.4375-.7661-.0972.0783-.2137.1794-.2577.2936-.0442.1145-.0475.191.0103.2928Z"
    fill="#285193" />
  <path
    d="M85.0751 52.3852c-1.5419.8292-1.6839 2.5111-.9249 4.0824.759 1.5717 2.4667 2.7221 4.1699 1.7867 1.7031-.9353 1.6787-3.0808.7552-4.554-.9236-1.4732-2.4584-2.1443-4.0002-1.3151Zm3.3392 3.5343c-.1143.3052-.4187.5935-.6829.7991.1021.1982.2118.3903.316.5865-.127.0741-.2541.1482-.3812.2223-.1032-.1896-.2053-.3798-.3101-.5686-.4117.2131-.8396.3469-1.2964.4146-.098-.1885-.1955-.3775-.2897-.568.2302-.0155.4608-.0517.6835-.1081.2224-.0563.4228-.1393.6286-.2379-.1825-.3356-.359-.6728-.5445-1.007-.0676.0111-.2063.0418-.2631.0492-.2973.0382-.6088.0705-.87-.0348-.261-.1053-.3935-.2214-.516-.4655-.1222-.244-.1287-.4552-.003-.72.1258-.2645.393-.487.6306-.6628-.0693-.1352-.1491-.2651-.2203-.3994.1184-.0644.2368-.1291.3552-.1935.0739.1291.1464.259.2211.3875.3739-.1738.7481-.3123 1.1481-.4102.0239.1844.0467.3688.0692.5534-.3304.0702-.6397.1783-.9518.3087.1744.2988.346.5979.5225.8964.0573-.0083.1917-.0362.2379-.042.3074-.0392.6699-.1072.9436-.0188.2735.0885.3786.1645.5151.4143.1366.2499.1719.4992.0576.8046ZM33.2491 76.246C18.79 69.3627 13.3207 66.7819 1.4856 55.2963c3.69902-4.3415 7.57836-8.4988 11.3363-12.7834 9.8189 8.8397 15.3783 12.6999 27.4017 18.1685-2.3924 5.1572-4.6275 10.3859-6.9745 15.5646Z"
    fill="#285193" />
  <path
    d="M32.2196 73.6998c-12.718-5.4476-18.0425-8.4618-28.00939-18.4092 2.82437-3.4614 5.89069-6.6854 8.80819-10.0603 7.9746 8.1227 14.3367 11.986 24.681 16.3542-1.9016 4.0035-3.6132 8.0945-5.4798 12.1153Z"
    fill="#D4EFFF" />
  <path
    d="M31.2867 66.0681c-.4773 1.0274-1.6662 1.5315-2.7326 1.1133-1.0663-.4182-1.4468-1.5727-.9216-2.5763.5252-1.0036 1.682-1.4594 2.7025-1.0335 1.0204.4257 1.4291 1.4688.9517 2.4965ZM14.4911 56.0744c-.718.9511-1.9318 1.0061-2.7771.1808-.8454-.8254-.9431-2.2096-.192-3.1027.7511-.893 1.9128-.9044 2.7144-.0895.8019.8154.9727 2.0603.2547 3.0114ZM39.1487 62.2116c-.3821.8252-1.3105 1.1683-2.1379.8141-.8274-.3544-1.1695-1.2443-.7766-2.064.3929-.8198 1.3151-1.191 2.1363-.8363.8214.3549 1.1603 1.2612.7782 2.0862ZM33.7329 74.3559c-.3989.8709-1.3479 1.2195-2.2136.8601-.8657-.3592-1.2413-1.2812-.8405-2.1437.4008-.8626 1.3689-1.2723 2.2425-.9043.8733.3682 1.2102 1.317.8116 2.1879ZM14.136 46.3923c-.5914.6937-1.5448.6616-2.1523.0161-.6074-.6456-.7304-1.6049-.1322-2.2833.5982-.6785 1.5549-.7219 2.2044-.086.6493.6356.6716 1.6596.0801 2.3532ZM5.42576 56.5082c-.6232.7536-1.61897.7094-2.29132.0331-.67263-.6759-.76006-1.7229-.14311-2.4668.61696-.744 1.61544-.788 2.29974-.1068.6843.6815.75789 1.7871.13469 2.5405ZM20.8791 61.4504c-.2838.4476-.5752.893-.8554 1.3417.4081.1568.8054.1886 1.0664-.1996.1219-.1813.13-.295.0993-.5076-.0306-.2126-.1944-.447-.3103-.6345ZM20.8855 58.9146c-.0931.1531-.1292.2753-.0994.4736.0299.1982.1779.4376.2925.6143.2569-.4089.5091-.8244.7647-1.2353-.1757-.0746-.3889-.1446-.5722-.1114-.1836.0329-.2924.1056-.3856.2588Z"
    fill="#285193" />
  <path
    d="M23.7935 56.1904c-2.3041-1.4815-4.8952.2554-6.3186 2.329-1.4235 2.0736-2.243 5.7345.2851 7.3103s5.3123-.6924 6.5766-2.8503c1.2638-2.1581 1.761-5.3074-.5431-6.789Zm-2.7847 7.6614c-.4788.1036-1.0338-.0445-1.4949-.2518-.199.312-.3935.6227-.5882.9361-.1776-.1114-.3557-.2227-.5317-.3374.1907-.3052.3854-.6084.579-.9116-.5496-.3922-1.018-.8132-1.3792-1.3936.1974-.2952.3984-.5891.5974-.8826.1665.2941.365.5741.5844.8256.2194.2513.4459.4599.7125.6532.34-.5202.6873-1.0338 1.0129-1.5648-.0557-.0859-.18-.2573-.2251-.3303-.2365-.382-.4826-.7811-.5285-1.2051-.0459-.4243.0362-.7081.2577-1.0605.2214-.3524.516-.557.9602-.6161.4443-.0595.9333.1014 1.3472.3026.1428-.2186.2748-.4422.4117-.6639.1645.1031.3296.2065.4942.3096-.1339.2192-.2675.4386-.4014.6581.4826.346.8853.7432 1.2432 1.2209-.2385.1879-.4771.3756-.7145.5655-.2889-.3928-.6118-.7247-.9933-1.0246-.2965.4892-.6045.9685-.9032 1.4577.0495.071.1706.2344.2099.2922.2615.385.5559.8272.6002 1.2595.0442.4323.0097.6446-.2165 1.0139-.2262.3687-.555.644-1.034.7474ZM15.2288 30.003c-4.0523 1.4859-4.8254 2.3513-8.03214 5.1109-1.08809-1.2781-2.18623-2.5429-3.245-3.8472 3.67758-3.227 4.9772-4.0681 9.44634-5.954.624 1.5572 1.2331 3.1225 1.8308 4.6903Z"
    fill="#285193" />
  <path
    d="M14.5022 29.6924c-3.7593 1.2512-4.3393 2.1601-7.22857 4.6416-.85837-.9865-1.71021-1.9741-2.51997-3.0034 3.08669-2.8624 4.26385-3.9213 8.31674-5.2577.4795 1.2054.9512 2.4141 1.4318 3.6195Z"
    fill="#D4EFFF" />
  <path
    d="M12.6833 28.254c.1317.3013.0063.596-.3008.6895-.3072.0934-.6401-.0606-.7851-.3553-.145-.2947-.0225-.6005.2925-.6994.3147-.099.6617.0638.7934.3652ZM7.72132 31.1135c.21398.2887.16619.7086-.04779.9818-.21398.2731-.54472.3187-.77255.0312-.22783-.2872-.18873-.7221.04046-.9936.22919-.2715.5659-.3083.77988-.0194ZM13.5142 25.8824c.1005.2618-.0067.5452-.2636.645-.2572.1001-.5483-.0409-.6593-.2994-.1114-.2588.0344-.5156.2913-.614.2569-.0987.5312.0066.6316.2684ZM14.9392 29.5243c.0986.2466-.0084.5148-.2566.5975-.2485.0826-.5048-.0443-.6075-.2887-.1026-.2444.0077-.4827.2531-.5792.2455-.0962.5124.0238.611.2704ZM5.12085 30.9877c.17162.2201.15506.5502-.05757.7293-.21262.1792-.50263.141-.67751-.0746-.17488-.2157-.14392-.5137.06056-.7039.2042-.1905.5029-.1711.67452.0492ZM7.62684 34.0291c.17325.2068.14799.4879-.05159.6604-.19959.1725-.4782.1502-.65389-.0459-.17569-.196-.13903-.4702.05512-.6463.19416-.1764.47711-.175.65036.0318ZM9.69897 29.5362c.07359.1332.15017.2681.22457.3972.09916-.0599.14176-.2009.09916-.2828-.04267-.0815-.05489-.0724-.11708-.1012-.06218-.0284-.13984-.011-.20665-.0132ZM9.04433 29.2175c.02797.041.05431.06.10889.0708.05431.0111.14012-.0033.19986-.0058-.06626-.1122-.13985-.2206-.21343-.3282-.04209.0363-.09179.0871-.10835.138-.01711.0506-.01467.0843.01303.1252Z"
    fill="#285193" />
  <path
    d="M8.73904 28.1506c-.73889.4183-.59442 1.4523-.18846 2.0696.40597.6173 1.15815 1.0995 1.82832.6771.6702-.4225.5776-1.295.2273-1.9433-.3503-.648-1.12828-1.2217-1.86716-.8034Zm1.58316 1.6914c-.0454.1305-.1497.2452-.2613.332.0497.0907.1016.1795.1524.2696-.0497.0285-.0994.0567-.1491.0851-.0497-.0876-.09967-.1752-.14936-.2629-.16646.0838-.31961.1805-.50291.2217-.05349-.089-.10563-.1788-.15722-.2692.09287-.0164.18411-.0443.27154-.078.08717-.0337.17108-.0697.25417-.1111-.09042-.1579-.17868-.316-.26992-.4733-.02905.0022-.09015.0113-.11405.0129-.12599.0089-.26204.0495-.37691.0219-.11486-.0277-.1784-.0747-.24167-.1742-.06327-.0995-.08364-.2109-.03585-.3356.0478-.1247.15804-.2411.26531-.3268-.03829-.0639-.07875-.1258-.11786-.1891.05214-.0321.10346-.0669.15832-.0948.0391.0605.07684.1219.11513.183.16891-.0918.33129-.1316.52138-.1487.01059.0837.0209.1678.03149.2515-.14446.0141-.28675.0371-.4209.096.09016.1324.16619.2745.25037.4116.02553-.0019.08581-.008.10618-.0094.13631-.0083.29598-.0143.41116.0357.1151.05.1645.0957.2243.2026.0592.1068.0803.219.0353.3495ZM89.4008 26.072c-2.0282 2.714-3.9624 4.6764-6.641 6.7218-.8768-1.1205-1.6931-2.2894-2.5865-3.3967 2.3973-1.8331 4.114-3.5117 5.9171-5.9659 1.0856.9033 2.221 1.7416 3.3104 2.6408Z"
    fill="#285193" />
  <path
    d="M88.7112 26.1611c-1.679 2.4776-3.4473 4.2068-5.8543 5.9352-.6705-.8776-1.3186-1.7737-2.0122-2.6331 2.1835-1.5984 3.7493-3.0901 5.3118-5.3403.8391.6959 1.7134 1.3458 2.5547 2.0382Z"
    fill="#D4EFFF" />
  <path
    d="M86.8365 26.0021c.2222.1816.2471.52.0877.755-.1596.235-.4477.303-.6636.11-.2159-.1932-.2338-.5153-.0782-.7503.1556-.2347.432-.2964.6541-.1147ZM83.4891 29.6489c.1831.2099.1404.5016-.0966.6528-.2371.1512-.5581.0984-.7321-.1217-.1741-.2198-.1279-.4923.1034-.64.2311-.1476.5423-.1012.7253.1089ZM86.3953 23.7947c.1762.1463.1941.3948.0662.5831-.1282.1883-.3625.2281-.5374.0802s-.2061-.4031-.0744-.5906c.132-.1877.3696-.2186.5456-.0727ZM88.9644 25.8245c.1833.1521.224.4183.0793.6113-.1447.1932-.3875.2411-.5757.086-.1882-.1551-.2207-.4277-.085-.6306.1358-.2027.3978-.2187.5814-.0667ZM81.1642 29.2304c.1444.175.1042.4037-.0761.5378-.1803.134-.4241.1175-.5629-.0639-.139-.1814-.1135-.4158.069-.5477.1822-.1321.4255-.1012.57.0738ZM83.2018 31.8491c.1478.1904.1122.4442-.0828.5847-.1949.1404-.4472.107-.5936-.0843-.1461-.1911-.117-.4471.0747-.5917.192-.1443.454-.0992.6017.0913ZM85.0247 28.3371c.082.0805.1664.1623.2473.24.0663-.0691.082-.2027.0288-.258-.0532-.0553-.057-.0395-.1124-.0423-.0554-.0025-.1124.0404-.1637.0603ZM84.4256 28.2157c.0318.0326.0586.0487.1083.0534.0497.0047.1163-.0166.1659-.0335-.086-.0896-.1721-.1797-.2587-.269-.0283.0395-.0562.0879-.0581.136-.0017.0481.0108.0805.0426.1131Z"
    fill="#285193" />
  <path
    d="M83.9208 27.3044c-.4885.4745-.2189 1.2151.2007 1.6679.4198.4529 1.1877.7609 1.6925.2475.5048-.5134.2116-1.2861-.2452-1.721-.4567-.4349-1.1595-.6688-1.648-.1944Zm1.6562 1.0711c-.0068.1186-.0766.2518-.1499.3513.0567.0576.1135.114.1699.1715-.0372.0378-.0741.076-.111.1141-.0549-.0553-.1097-.1106-.1643-.1656-.1244.1197-.2506.2077-.4119.2682-.0541-.0575-.1078-.1153-.1616-.1728.0796-.0243.1564-.055.2305-.0932.0742-.0381.135-.0912.1939-.1495-.0972-.0943-.1933-.1886-.2916-.282-.0226.0127-.072.0329-.0921.0401-.1056.0387-.2169.0732-.3212.0561-.1043-.0169-.1689-.0509-.2401-.1269-.0711-.076-.1004-.1592-.092-.2726.0084-.1133.073-.2245.1447-.3146-.0461-.0498-.0931-.0984-.1393-.1479.0361-.0338.0722-.0678.1084-.1018.0461.0479.092.0957.1379.1435.1151-.1042.2243-.1979.3614-.2715.0318.0736.0638.1471.0956.2207-.1097.0599-.2066.1302-.2973.2173.0999.1022.1968.207.3008.3054.0188-.0102.0641-.0367.0791-.0447.1002-.0523.2207-.1167.3239-.115.1032.0019.1502.0223.2227.0931.0725.0711.11.1582.1035.2768ZM33.9972 16.8412c-3.9173 2.8909-5.224 4.2647-7.6424 8.5967-1.6323-1.1308-3.371-2.0667-5.0294-3.1518 2.3223-4.2702 4.6185-8.302 8.5622-11.154 1.5378 1.7989 2.7983 3.7406 4.1096 5.7091Z"
    fill="#285193" />
  <path
    d="M33.0155 16.6565c-3.0402 2.0454-5.1632 4.4766-6.8919 7.7238-1.2453-.8428-2.5558-1.565-3.8228-2.3699 1.8772-3.6223 4.096-7.6049 7.4466-9.9016 1.209 1.434 2.2884 2.9423 3.2681 4.5477Z"
    fill="#D4EFFF" />
  <path
    d="M30.2709 15.1066c.2655.3312.3228.8349-.0106 1.1249-.3335.2901-.7479.177-1.0316-.1401-.2835-.3171-.4006-.8576-.0565-1.1827.3443-.3254.8331-.1336 1.0987.1979ZM25.7317 20.6458c.3172.2065.2944.5921.1011.8963-.1934.3038-.5687.4957-.9073.2833-.3386-.2123-.3649-.6367-.1496-.9516.2151-.3149.6387-.4346.9558-.228ZM30.2507 11.7567c.2279.2739.2021.6347-.0904.8434-.2924.2088-.6886.1269-.9213-.1429-.2328-.2698-.1812-.6118.1088-.8169.2901-.2055.6751-.1576.9029.1164ZM33.4912 16.2932c.1809.2855.1814.687-.1181.891-.2995.2038-.6346.0782-.8211-.2137-.1866-.2919-.1899-.6945.1018-.9032.2919-.2087.6566-.0594.8374.2259ZM22.5964 21.4373c.2963.1924.3587.5717.1985.8739-.1602.3019-.4958.447-.7962.2571-.3003-.19-.391-.5892-.2213-.9046.1695-.316.5228-.4191.819-.2264ZM26.4137 23.837c.2876.2002.3891.5844.2202.8968-.1689.3127-.5214.381-.8065.1853-.2854-.1958-.3649-.5706-.1979-.8736.167-.3028.4966-.4087.7842-.2085ZM27.9568 18.7193c.1089.0895.2191.1816.331.2596.0937-.1012.0861-.2994.0082-.3691-.078-.0697-.0758-.0437-.1467-.0299-.0709.0136-.133.0982-.1925.1394ZM27.103 18.685c.0608.0531.111.0832.1933.0857.0823.0022.1624-.0453.227-.0981-.1705-.1526-.3435-.3033-.5151-.4545-.0277.0843-.0429.1786-.0239.2637.019.0849.0581.1501.1187.2032Z"
    fill="#285193" />
  <path
    d="M25.9905 17.076c-.5498.9566-.0334 2.1224.6914 2.6372.7245.5148 1.641.5148 2.2938-.1263.6528-.6409.123-1.7376-.5266-2.3671-.6495-.6292-1.9087-1.1003-2.4586-.1438Zm2.6536 1.5482c.0065.1689-.0722.3514-.1719.4985.0685.0583.1377.1106.2102.162-.0472.0506-.0948.1012-.142.1518-.0663-.0462-.1328-.0926-.1991-.1391-.1594.1615-.335.3066-.5401.4039-.0662-.0434-.1336-.0854-.1998-.1285.1086-.0501.2099-.1092.3071-.1786.0969-.0694.1765-.1449.2528-.2361-.1222-.0866-.2436-.1728-.3631-.2635-.0225.0324-.0646.0957-.0934.115-.1518.1015-.2881.1504-.4619.1457-.1738-.0047-.2821-.065-.4133-.18-.1314-.115-.1917-.2319-.2153-.4241-.0236-.1924.0141-.4138.0899-.6018-.0891-.0819-.1765-.162-.2645-.2439.0399-.0718.0796-.1437.1195-.2156.0866.0796.1729.1595.2598.2394.1285-.1993.2705-.3771.4486-.5325.0736.1289.1483.2572.2203.3871-.135.1288-.2572.2687-.368.4197.1874.1656.368.3469.567.4982.0198-.0213.0769-.0747.0929-.0907.1059-.1073.2479-.2599.3872-.2721.139-.0121.1988.0094.3033.1026.104.0929.167.2137.1738.3826Z"
    fill="#285193" />
  <path
    d="M37.1306 55.185c.9141-2.5935-.4104-5.4503-2.9583-6.3807-2.548-.9305-5.3545.4177-6.2686 3.0112-.9141 2.5935.4104 5.4502 2.9583 6.3807 2.548.9304 5.3545-.4177 6.2686-3.0112Z"
    fill="#FFAF2A" />
  <path
    d="M33.0718 57.9819c2.4329-.3142 4.1548-2.5765 3.8461-5.0529-.3088-2.4763-2.5313-4.229-4.9642-3.9148-2.4329.3143-4.1548 2.5766-3.846 5.053.3087 2.4763 2.5313 4.229 4.9641 3.9147Z"
    fill="#FB6B18" />
  <path
    d="M35.4613 54.8671c.7414-1.6576.0222-3.613-1.6063-4.3676-1.6284-.7545-3.5495-.0225-4.2908 1.6351-.7413 1.6575-.0222 3.613 1.6063 4.3675 1.6285.7546 3.5495.0226 4.2908-1.635Z"
    fill="#FFAF2A" />
  <path
    d="m32.8933 55.8563-.1317-.6092c-.3449.071-.7239.042-.9643-.0622l.0549-.4362c.2447.0971.5778.1424.9097.068.4209-.0942.6514-.4054.577-.749-.0717-.3317-.3473-.4851-.8252-.5677-.6563-.1056-1.09-.2994-1.2035-.8243-.1084-.5008.1588-.9591.6846-1.1719l-.1317-.6089.3676-.0824.1266.5849c.3581-.0678.6218-.0257.8157.0384l-.0619.4312c-.1401-.0445-.4117-.1227-.7908-.0376-.4564.1023-.568.4185-.5159.6595.0679.3137.321.4215.8836.5229.6653.1167 1.0411.3613 1.1571.8981.1032.4768-.126.9958-.7142 1.2355l.1358.6271-.3734.0838Z"
    fill="#fff" />
  <path
    d="M90.5598 23.6354c-1.0891 1.9078-3.4913 2.5557-5.3655 1.447-1.8742-1.1086-2.5107-3.5537-1.4215-5.4614 1.0891-1.9078 3.4913-2.5554 5.3655-1.447 1.8742 1.1087 2.5104 3.5537 1.4215 5.4614Z"
    fill="#FFAF2A" />
  <path
    d="M90.6931 22.0962c.252-1.9824-1.1226-3.7974-3.0702-4.0538-1.9475-.2565-3.7306 1.1426-3.9826 3.125-.252 1.9824 1.1226 3.7974 3.0702 4.0539 1.9476.2564 3.7307-1.1427 3.9826-3.1251Z"
    fill="#FB6B18" />
  <path
    d="M89.4092 22.955c-.7199 1.2609-2.3079 1.6891-3.5467.9563-1.2388-.7327-1.6594-2.3491-.9396-3.6101.7199-1.2609 2.3079-1.6891 3.5467-.9563 1.2388.733 1.6595 2.3491.9396 3.6101Z"
    fill="#FFAF2A" />
  <path
    d="m86.1356 23.2278.2465-.4319c-.2411-.1484-.4491-.3746-.5352-.5686l.2645-.227c.0926.1921.2648.4028.5002.5419.2984.1763.5999.1202.7392-.1236.1344-.2353.0534-.4778-.1844-.7899-.3308-.4244-.4831-.778-.2708-1.1501.2026-.3552.6042-.478 1.0276-.3135l.2465-.4318.2607.1542-.2368.415c.2474.1576.3805.3279.4606.4728l-.2661.22c-.059-.1036-.1774-.2994-.4462-.4586-.3237-.1916-.5577-.0666-.6555.1042-.1268.2226-.035.4255.2428.7959.3302.4358.4214.7874.2042 1.1681-.1931.3381-.6045.5178-1.0789.3345l-.2539.4449-.265-.1565Z"
    fill="#fff" />
  <path
    d="M8.02386 22.1914c-.96752 1.6949-3.10189 2.2703-4.76702 1.2855-1.66514-.9848-2.2305-3.1573-1.26297-4.8522.96752-1.6949 3.10189-2.2704 4.76702-1.2856 1.66513.9851 2.2305 3.1576 1.26297 4.8523Z"
    fill="#FFAF2A" />
  <path
    d="M7.73991 22.0238c-.87656 1.5356-2.81025 2.0569-4.31898 1.1647-1.50872-.8922-2.02058-2.8605-1.14403-4.3962.87656-1.5357 2.81025-2.057 4.31897-1.1647 1.50873.8922 2.02086 2.8605 1.14404 4.3962Z"
    fill="#FB6B18" />
  <path
    d="M7.00191 21.5868c-.6395 1.1203-2.05046 1.5009-3.15104.8497-1.10059-.6509-1.47451-2.0871-.83474-3.2074.63949-1.1203 2.05046-1.5009 3.15104-.8497 1.10059.6512 1.47451 2.0872.83474 3.2074Z"
    fill="#FFAF2A" />
  <path
    d="m4.09258 21.829.21887-.3837c-.21426-.1319-.39918-.3329-.47576-.5051l.23516-.2015c.08228.1708.23516.3577.44453.4816.26503.1567.53305.1069.6566-.1098.11921-.209.04752-.4244-.16374-.7019-.29382-.3771-.42932-.6912-.24059-1.0219.18003-.3154.53685-.4246.91267-.2784l.21887-.3837.23163.1371-.21045.3686c.21968.1401.3378.2914.40922.4199l-.23652.1955c-.05241-.0921-.1575-.266-.39646-.4073-.28757-.17-.49557-.0594-.5822.0927-.11269.1976-.03123.3782.21561.7072.29327.387.37447.6994.1814 1.0375-.17135.3003-.53713.4601-.95857.2972l-.22565.3951-.23462-.1391Z"
    fill="#fff" />
  <path
    d="M75.8191 23.6597c1.4856 0 2.69-1.2259 2.69-2.7381 0-1.5121-1.2044-2.738-2.69-2.738s-2.6899 1.2259-2.6899 2.738c0 1.5122 1.2043 2.7381 2.6899 2.7381Z"
    fill="#0890FE" />
  <path
    d="M75.8192 23.4025c1.346 0 2.4372-1.1107 2.4372-2.4807 0-1.3701-1.0912-2.4808-2.4372-2.4808-1.346 0-2.4371 1.1107-2.4371 2.4808 0 1.37 1.0911 2.4807 2.4371 2.4807Z"
    fill="#3629B7" />
  <path
    d="M77.0766 22.2022c-.6944.7069-1.8202.7069-2.5146 0-.6943-.7069-.6943-1.8532 0-2.5601.6944-.7069 1.8202-.7069 2.5146 0 .6943.7067.6943 1.8532 0 2.5601Z"
    fill="#0890FE" />
  <path
    d="m74.8608 21.7971.2379-.2422c-.1342-.1416-.233-.3285-.2567-.4725l.2143-.1031c.0282.1437.1062.314.2379.4484.1672.1703.3766.1869.511.0503.1295-.1319.1179-.3069.0141-.5562-.1458-.3404-.186-.6016.0191-.8103.1955-.1991.4825-.2088.7348-.0241l.2378-.2422.1461.1488-.2283.2325c.1365.1487.1955.2853.2234.3956l-.2142.0984c-.0212-.0791-.066-.23-.2167-.3835-.1814-.1846-.3579-.144-.4521-.0481-.1225.1247-.0967.2757.0236.5707.1436.3478.1436.5968-.066.8103-.186.1894-.4899.235-.7723.0287l-.2449.2494-.1488-.1509Z"
    fill="#fff" />
  <path
    d="M50.1088 15.1662c-.7634.7769-2.0008.7769-2.7638 0-.7634-.777-.7634-2.0366 0-2.8133.7633-.7766 2.0007-.7769 2.7638 0 .7633.7767.7633 2.0363 0 2.8133Z"
    fill="#0890FE" />
  <path
    d="M48.7268 15.5628c.978 0 1.7708-.8072 1.7708-1.8028 0-.9957-.7928-1.8028-1.7708-1.8028-.9779 0-1.7707.8071-1.7707 1.8028 0 .9956.7928 1.8028 1.7707 1.8028Z"
    fill="#3629B7" />
  <path
    d="M49.6404 14.6899c-.5045.5137-1.3224.5137-1.8269 0-.5046-.5137-.5046-1.3464 0-1.8601.5045-.5136 1.3224-.5136 1.8269 0 .5046.5137.5046 1.3464 0 1.8601Z"
    fill="#0890FE" />
  <path
    d="m48.0304 14.3956.1728-.1758c-.0975-.1028-.1695-.2386-.1866-.3431l.1559-.0749c.0206.1045.0771.2284.1729.3259.1214.1236.2738.1358.3713.0365.0942-.0959.0855-.2228.0103-.4041-.1059-.2472-.1353-.4371.0138-.5886.142-.1446.3506-.1518.5339-.0175l.1727-.1758.1062.1081-.166.1689c.0994.1081.1421.2074.1624.2876l-.1556.0713c-.0154-.0575-.0478-.1673-.1572-.2787-.1317-.1341-.2601-.1045-.3286-.0348-.089.0906-.0703.2001.0171.4147.1043.2527.1043.4337-.048.5888-.1353.1377-.3558.1709-.5613.021l-.1779.1811-.1081-.1106Z"
    fill="#fff" />
  <path
    d="M90.3072 40.3877c-1.0558 1.0747-2.7677 1.0747-3.8237 0-1.0558-1.0746-1.0558-2.8171 0-3.892 1.0558-1.0747 2.7676-1.0747 3.8237 0 1.0557 1.0746 1.0557 2.8174 0 3.892Z"
    fill="#0890FE" />
  <path
    d="M90.1272 40.2048c-.9567.9737-2.5075.9737-3.4641 0-.9567-.9738-.9567-2.5523 0-3.5261.9566-.9738 2.5074-.9738 3.4641 0 .9567.9738.9567 2.5523 0 3.5261Z"
    fill="#3629B7" />
  <path
    d="M88.3952 40.2616c.987 0 1.7871-.8146 1.7871-1.8194s-.8001-1.8194-1.7871-1.8194c-.987 0-1.787.8146-1.787 1.8194s.8 1.8194 1.787 1.8194Z"
    fill="#0890FE" />
  <path
    d="m87.4318 39.3214.239-.2432c-.1347-.1422-.2343-.3301-.258-.4747l.2154-.1037c.0282.1446.1067.3157.2392.4506.1681.1712.3785.188.5135.0506.1301-.1324.1184-.3085.0141-.559-.1466-.342-.1868-.6046.019-.8145.1966-.2001.485-.2098.7384-.0243l.2389-.2433.1469.1496-.2294.2336c.1374.1493.1963.2867.2248.3976l-.2153.0987c-.0212-.0797-.0663-.2312-.2178-.3854-.1822-.1855-.3598-.1446-.4546-.0484-.123.1252-.0972.277.0237.5737.1444.3494.1442.5999-.0666.8144-.1871.1905-.4923.2364-.7763.029l-.246.2505-.1489-.1518Z"
    fill="#fff" />
  <path
    d="M2.70353 43.6868c1.49312 0 2.70353-1.232 2.70353-2.7518 0-1.5198-1.21041-2.7519-2.70353-2.7519C1.21041 38.1831 0 39.4152 0 40.935s1.21041 2.7518 2.70353 2.7518Z"
    fill="#0890FE" />
  <path
    d="M4.43579 42.6981c-.95667.9738-2.50748.9738-3.464142 0-.9566635-.9738-.9566635-2.5523 0-3.5261.956662-.9737 2.507472-.9737 3.464142 0 .95666.9735.95666 2.5523 0 3.5261Z"
    fill="#3629B7" />
  <path
    d="M2.70307 42.7548c.98697 0 1.78706-.8146 1.78706-1.8194 0-1.0049-.80009-1.8194-1.78706-1.8194-.98696 0-1.787054.8145-1.787054 1.8194 0 1.0048.800094 1.8194 1.787054 1.8194Z"
    fill="#0890FE" />
  <path
    d="m1.7402 41.8148.23896-.2432c-.13496-.1421-.23434-.3301-.25797-.4747l.21534-.1037c.02824.1446.10645.3157.23923.4506.16809.1712.37854.188.5135.0506.13007-.1324.11839-.3085.01412-.559-.14664-.342-.18682-.6049.01901-.8144.1966-.2002.48498-.2099.73834-.0244l.23896-.2433.14691.1496-.22946.2336c.1374.1496.19633.2867.22484.3976l-.21534.0987c-.02118-.0797-.06625-.2314-.21778-.3854-.18248-.1855-.3598-.1446-.45457-.0484-.12301.1252-.09721.277.02363.5737.14446.3494.14419.5999-.06653.8144-.1871.1905-.49232.2364-.77636.029l-.24602.2505-.14881-.1518Z"
    fill="#fff" />
  <path
    d="M46.0184 8.87641c-.1893 1.62799-1.6393 2.79139-3.2388 2.59869-1.5994-.1926-2.7423-1.66859-2.5531-3.2966.1893-1.62802 1.6394-2.79139 3.2388-2.59874 1.5991.19293 2.7424 1.66892 2.5531 3.29665Z"
    fill="#0890FE" />
  <path
    d="M45.7459 8.84371c-.1716 1.47489-1.4853 2.52909-2.9343 2.35469-1.449-.1747-2.4847-1.51194-2.3133-2.98682.1713-1.47489 1.4853-2.52908 2.9343-2.3544 1.4493.17414 2.485 1.51137 2.3133 2.98653Z"
    fill="#3629B7" />
  <path
    d="M45.0362 8.75833c-.1252 1.07603-1.0837 1.84527-2.1409 1.71787-1.0571-.1275-1.8128-1.10315-1.6877-2.17919.1252-1.07603 1.0838-1.84526 2.1409-1.71784 1.0574.12714 1.8129 1.10285 1.6877 2.17916Z"
    fill="#0890FE" />
  <path
    d="m42.8829 9.92794.0429-.36853c-.2075-.02875-.4149-.12026-.5298-.2267l.1146-.23416c.1189.10312.2973.19491.4983.21923.2547.03069.444-.09814.4681-.30632.0234-.20071-.1021-.34171-.3546-.48326-.3487-.18993-.5551-.38511-.5181-.70277.0353-.303.2734-.50759.6096-.52252l.0429-.36852.2224.02681-.0413.35388c.2143.03317.3544.1092.4511.18385l-.1176.23002c-.0703-.05281-.2078-.15095-.4372-.1786-.2762-.03318-.3997.1222-.4166.26817-.022.18965.0994.30079.3962.46971.3514.19795.5157.41.478.73512-.0337.28835-.2621.53468-.6387.55238l-.044.37958-.2262-.02737Z"
    fill="#fff" />
  <path
    d="m59.7321 33.5763 18.6021-.0155c1.5812-.0014 2.864 1.3024 2.8654 2.9119l.031 38.5952c.0013 1.6095-1.2796 2.9152-2.8608 2.9166L59.7677 78c-1.5813.0014-2.864-1.3024-2.8654-2.9119l-.031-38.5952c-.0013-1.6095 1.2796-2.9152 2.8608-2.9166Z"
    fill="#5655B9" />
  <path
    d="M59.7942 35.0167 78.1755 35c.9915-.0009 1.7961.8957 1.7969 2.003L80 74.977c.0008 1.107-.8022 2.0054-1.794 2.0063L59.8247 77c-.9914.0009-1.7961-.8957-1.7969-2.003L58 37.023c-.0005-1.1073.8028-2.0054 1.7942-2.0063Z"
    fill="#fff" />
  <path
    d="m74.2694 40.4385-10.3267.0085c-.1844.0003-.334-.152-.3343-.3397l-.0002-.175c-.0003-.1877.1493-.3401.3337-.3404l10.3267-.0085c.1844-.0003.334.1518.3343.3397l.0002.1751c0 .1879-.1493.3403-.3337.3403ZM69.7072 41.7444l-5.8556.005c-.1336 0-.242-.1101-.242-.2461v-.1269c0-.136.1081-.2463.2417-.2466l5.8557-.005c.1336 0 .2419.11.2422.2461v.1269c0 .136-.1084.2463-.242.2466Z"
    fill="#D4EFFF" />
  <path
    d="M62.547 40.5183c.0008.9797-.7785 1.7743-1.7409 1.7751-.9621.0009-1.7428-.7926-1.7436-1.7724-.0008-.9798.7785-1.7746 1.7409-1.7751.9624-.0009 1.7431.7928 1.7436 1.7724Z"
    fill="#FFE088" />
  <path
    d="M77.1701 39.9552c0 .1581-.1258.2864-.2811.2867-.1553 0-.2813-.128-.2816-.2862 0-.1581.1257-.2864.2811-.2864.1556-.0003.2816.1277.2816.2859Zm.6419-.2867c-.1553.0003-.281.1285-.281.2867.0002.1581.1262.2861.2815.2861.1554 0 .2811-.1283.2811-.2864 0-.1584-.1263-.2867-.2816-.2864Zm.9235-.0008c-.1553.0002-.281.1285-.281.2867.0003.1581.1263.2861.2816.2861.1553-.0003.281-.1283.281-.2867-.0002-.1581-.1262-.2864-.2816-.2861Z"
    fill="#D4EFFF" />
  <path
    d="M61.522 40.9253c0 .1485-.0532.2707-.1597.3666-.1064.0962-.2601.1554-.4611.1781v.3328h-.2004v-.3237c-.2493-.0042-.4535-.0429-.6134-.1167v-.3237c.0864.0428.1874.0791.3028.1081.1154.029.2188.0442.3104.0453v-.5739l-.1266-.0476c-.1648-.0644-.2851-.1412-.3609-.2308-.0757-.0896-.1137-.2002-.1137-.332 0-.1413.054-.2572.1621-.3484.108-.0909.2544-.1462.4393-.1656v-.2577h.2004v.2533c.204.0072.3973.0489.5803.1258l-.1099.2809c-.1578-.0633-.3145-.1012-.4704-.1137v.5585l.1146.0445c.1909.0747.3229.1534.3965.2364.073.0826.1097.1838.1097.3035Zm-1.0685-.9206c0 .0583.0176.107.0534.1457.0356.039.1002.0774.1937.115v-.4772c-.0804.0122-.1418.0374-.1839.0752-.0421.0382-.0632.0852-.0632.1413Zm.7128.9436c0-.0592-.0204-.1081-.0611-.1465-.0408-.0385-.1089-.0755-.2042-.1112v.4894c.177-.0274.2653-.1048.2653-.2317Z"
    fill="#fff" />
  <path
    d="M78.4542 58.1623c.0043 5.2483-4.1724 9.5063-9.3285 9.5107-5.1562.0044-9.3394-4.2469-9.3437-9.4953-.0041-5.2483 4.1723-9.5066 9.3285-9.5107 5.1561-.0044 9.3396 4.2466 9.3437 9.4953Z"
    fill="#FFAF2A" />
  <path
    d="M76.3973 58.1639c.0033 4.0918-3.2529 7.4114-7.2729 7.415-4.02.0034-7.2813-3.311-7.2848-7.4029-.0033-4.0918 3.2529-7.4117 7.2729-7.415 4.02-.0033 7.2815 3.311 7.2848 7.4029Z"
    fill="#FB6B18" />
  <path
    d="M72.2192 59.9239c0 .6409-.2305 1.1694-.6906 1.5846-.4605.4157-1.125.6722-1.9934.7692v1.4389h-.8662v-1.3991c-1.0773-.0174-1.9609-.1857-2.6514-.5039v-1.3991c.3734.1857.8097.3413 1.3094.4674.4991.126.9466.1915 1.342.1957v-2.4799l-.5472-.2057c-.7125-.2786-1.2323-.6108-1.56-.9978-.3283-.3867-.4918-.8654-.4918-1.4356 0-.61.2332-1.1114.7003-1.5053.4665-.3933 1.0998-.6319 1.8989-.7162v-1.1139h.8663v1.094c.8814.0313 1.7173.2123 2.508.5437l-.4755 1.2134c-.6818-.2739-1.3593-.4375-2.0325-.4906v2.4136l.495.1923c.825.3229 1.396.6631 1.7132 1.0211.3166.3582.4755.796.4755 1.3132Zm-4.6185-3.9786c0 .2521.0769.4622.2314.6299.1539.1684.4331.3339.8371.4973v-2.0623c-.3475.0531-.6123.1617-.7948.3251-.1827.1636-.2737.3673-.2737.61Zm3.081 4.0781c0-.2563-.088-.4674-.2637-.6333-.1759-.1658-.4703-.3259-.8828-.4806v2.1153c.7644-.1197 1.1465-.4533 1.1465-1.0014Z"
    fill="#fff" />
</svg>