<svg width="327" height="216" viewBox="0 0 327 216" fill="none" xmlns="http://www.w3.org/2000/svg">
  <ellipse cx="163.5" cy="179" rx="163.5" ry="37" fill="#F2F1F9" />
  <path
    d="M273.095 166.901c21.906 4.826 45.12-9.905 45.391-18.632.272-8.726-21.018 9.39-24.102.508-3.083-8.881 23.165-12.445 23.535-21.835.37-9.39-23.206 12.782-25.031 6.784-1.818-5.998 20.919-20.197 17.54-27.096-3.38-6.8988-17.121 17.387-21.035 14.109-3.914-3.269 11.948-25.8993 2.393-27.6363-9.556-1.737-7.894 19.0743-11.225 23.3023-3.33 4.228-3.133-20.0167-8.823-18.1568-5.691 1.8598 4.054 25.2118.205 28.3578-3.848 3.146-9.58-17.592-16.043-12.807-6.463 4.785 10.197 18.018 8.61 24.196-1.587 6.17-12.401-12.274-18.198-7.391-5.798 4.875 8.428 32.258 26.783 36.297Z"
    fill="#52D5BA" />
  <path d="M289.443 99.8376s-9.926 39.6814-22.063 76.0024" stroke="#4CA5A2" stroke-width="1.6286" stroke-miterlimit="10"
    stroke-linecap="round" />
  <path d="M309.17 131.226s-27.186 13.38-36.1 25.556c0 0 .329-21.705-13.551-36.551" stroke="#4CA5A2"
    stroke-width="1.6286" stroke-miterlimit="10" stroke-linecap="round" />
  <path d="M302.755 113.931s-20.278 19.279-26.634 33.691c0 0 1.653-26.055-2.574-39.828" stroke="#4CA5A2"
    stroke-width="1.6286" stroke-miterlimit="10" stroke-linecap="round" />
  <path d="M313.034 150.842s-36.765 6.071-41.387 12.134c0 0-10.18-22.737-22.819-28.808" stroke="#4CA5A2"
    stroke-width="1.6286" stroke-miterlimit="10" stroke-linecap="round" />
  <path
    d="M274.92 156.651c5.658-12.831 23.198-40.172 38.287-36.379 17.4 4.376-22.005 31.447-22.005 31.447s27.087-15.437 34.405-3.302c7.327 12.135-32.522 13.773-32.522 13.773s21.051-1.425 17.894 6.408c-3.15 7.833-36.947.819-40.409 8.3-3.454 7.472.469-11.455 4.35-20.247Z"
    fill="#52D5BA" />
  <path
    d="M271.096 173.628c5.304-13.7 13.297-26.596 23.79-36.945 3.856-3.802 8.058-7.251 12.581-10.242M271.285 173.906c11.381-14.01 28.682-23.015 46.486-23.458"
    stroke="#4CA5A2" stroke-width="1.6286" stroke-miterlimit="10" stroke-linecap="round" />
  <path d="M271.466 174.054c9.317-5.629 20.435-7.669 31.224-6.956" stroke="#4CA5A2" stroke-width="1.6286"
    stroke-miterlimit="10" stroke-linecap="round" />
  <path
    d="M266.689 172.53c1.948-5.702 8.675-9.848 13.897-11.987 12.787-5.235 33.493-9.627 43.188 3.597 3.083 4.212 4.045 9.898 2.499 14.88-2.82 9.102-13.017 13.24-21.7 14.494-11.611 1.671-28.017-.754-35.73-10.611-1.332-1.704-2.36-3.695-2.631-5.834-.198-1.605 0-3.121.477-4.539Z"
    fill="#52D5BA" />
  <path d="M268.432 175.914s35.639-9.579 55.161-3.024" stroke="#4CA5A2" stroke-width="1.6286" stroke-miterlimit="10"
    stroke-linecap="round" />
  <path d="M315.658 182.461s-9.219-11.094-14.44-11.586c0 0 7.425-7.259 13.075-8.89" stroke="#4CA5A2"
    stroke-width="1.6286" stroke-miterlimit="10" stroke-linecap="round" />
  <path
    d="M300.996 157.822s-10.476 7.358-10.715 13.864c0 0 9.35 9.201 12.861 16.493M282.674 161.796s-4.045 7.948-3.42 11.906c0 0 5.871 8.021 9.02 15.215"
    stroke="#4CA5A2" stroke-width="1.6286" stroke-miterlimit="10" stroke-linecap="round" />
  <path
    d="M92.7684 149.021c-21.8509 4.833-45.0059-9.922-45.2766-18.662-.2707-8.741 20.965 9.404 24.0409.508 3.0758-8.896-23.1058-12.466-23.4749-21.87-.3691-9.4054 23.1468 12.802 24.9677 6.795 1.8127-6.008-20.8666-20.2298-17.4955-27.1399 3.3712-6.91 17.0772 17.4149 20.9815 14.1319 3.9042-3.2744-11.9179-25.9413-2.3869-27.6811 9.531-1.7398 7.8742 19.1051 11.1961 23.3398 3.3219 4.2343 3.1251-20.0489 8.801-18.186 5.676 1.8629-4.0437 25.2523-.205 28.4033 3.8386 3.151 9.5553-17.6197 16.0023-12.827 6.447 4.793-10.1705 18.046-8.587 24.234 1.583 6.18 12.369-12.293 18.151-7.402 5.783 4.883-8.407 32.31-26.7146 36.356Z"
    fill="#52D5BA" />
  <path d="M76.4629 81.8486s9.9001 39.7454 22.0067 76.1254" stroke="#4CA5A2" stroke-width="1.6286"
    stroke-miterlimit="10" stroke-linecap="round" />
  <path d="M56.7852 113.289s27.1167 13.401 36.0079 25.596c0 0-.3281-21.739 13.5169-36.61" stroke="#4CA5A2"
    stroke-width="1.6286" stroke-miterlimit="10" stroke-linecap="round" />
  <path d="M63.1831 95.9642S83.4099 115.275 89.7503 129.71c0 0-1.6487-26.097 2.5673-39.8926" stroke="#4CA5A2"
    stroke-width="1.6286" stroke-miterlimit="10" stroke-linecap="round" />
  <path d="M52.9302 132.935s36.6723 6.081 41.282 12.154c0 0 10.1548-22.773 22.7618-28.855" stroke="#4CA5A2"
    stroke-width="1.6286" stroke-miterlimit="10" stroke-linecap="round" />
  <path
    d="M90.948 138.754c-5.6431-12.852-23.1386-40.2374-38.1897-36.438-17.3561 4.374 21.9492 31.489 21.9492 31.489s-27.0183-15.461-34.3183-3.307c-7.3082 12.154 32.44 13.796 32.44 13.796s-20.9978-1.428-17.8481 6.417c3.1414 7.846 36.8528.813 40.3059 8.314 3.445 7.492-.4675-11.465-4.339-20.271Z"
    fill="#52D5BA" />
  <path
    d="M94.762 155.758c-5.2904-13.721-13.263-26.639-23.7291-37.004-3.8469-3.807-8.0383-7.262-12.5495-10.258M94.5735 156.037c-11.3519-14.034-28.6095-23.053-46.3674-23.496"
    stroke="#4CA5A2" stroke-width="1.6286" stroke-miterlimit="10" stroke-linecap="round" />
  <path d="M94.393 156.184c-9.2931-5.638-20.3826-7.681-31.144-6.967" stroke="#4CA5A2" stroke-width="1.6286"
    stroke-miterlimit="10" stroke-linecap="round" />
  <path
    d="M99.1582 154.658c-1.9439-5.711-8.6534-9.864-13.8618-12.006-12.7545-5.244-33.4079-9.643-43.0783 3.603-3.0759 4.218-4.0355 9.913-2.4935 14.903 2.8134 9.118 12.9842 13.262 21.6458 14.518 11.5816 1.674 27.9451-.755 35.6388-10.628 1.3288-1.707 2.3541-3.701 2.6248-5.843.1968-1.609 0-3.127-.4758-4.547Z"
    fill="#52D5BA" />
  <path d="M97.4193 158.048s-35.5487-9.593-55.0209-3.028" stroke="#4CA5A2" stroke-width="1.6286" stroke-miterlimit="10"
    stroke-linecap="round" />
  <path d="M50.3135 164.605s9.1947-11.112 14.4032-11.604c0 0-7.4067-7.271-13.0416-8.904" stroke="#4CA5A2"
    stroke-width="1.6286" stroke-miterlimit="10" stroke-linecap="round" />
  <path
    d="M64.9386 139.919s10.4497 7.37 10.6876 13.886c0 0-9.326 9.216-12.8283 16.52M83.2127 143.907s4.0355 7.961 3.4121 11.925c0 0-5.8564 8.034-8.9978 15.239"
    stroke="#4CA5A2" stroke-width="1.6286" stroke-miterlimit="10" stroke-linecap="round" />
  <path
    d="M267.43 166.259c-.494 0-.916-.409-.916-.905v-7.97c0-4.174-3.372-7.56-7.529-7.56s-7.529 3.401-7.529 7.56v7.97c0 .496-.407.905-.916.905h-5.058c-.494 0-.901-.409-.901-.905v-7.97c0-7.984 6.468-14.479 14.419-14.479 7.95 0 14.418 6.495 14.418 14.479v7.97c0 .496-.407.905-.915.905h-5.073Z"
    fill="#FFAF2A" />
  <path
    d="M259 143.81c7.442 0 13.503 6.087 13.503 13.56v7.97h-5.058v-7.97c0-4.671-3.779-8.481-8.445-8.481-4.651 0-8.445 3.796-8.445 8.481v7.97h-5.058v-7.97c0-7.473 6.047-13.56 13.503-13.56Zm0-1.81c-8.445 0-15.32 6.904-15.32 15.385v7.969c0 1.007.814 1.825 1.817 1.825h5.058c1.003 0 1.817-.818 1.817-1.825v-7.969c0-3.664 2.965-6.656 6.628-6.656 3.648 0 6.628 2.992 6.628 6.656v7.969c0 1.007.814 1.825 1.817 1.825h5.058c1.003 0 1.817-.818 1.817-1.825v-7.969c0-8.496-6.875-15.385-15.32-15.385Z"
    fill="#fff" />
  <path
    d="M242.11 199.51c-1.221 0-2.209-.993-2.209-2.219v-30.638c0-1.226.988-2.218 2.209-2.218h33.779c1.221 0 2.21.992 2.21 2.218v30.623c0 1.227-.989 2.219-2.21 2.219H242.11v.015Z"
    fill="#FFAF2A" />
  <path
    d="M275.89 165.354c.712 0 1.293.584 1.293 1.314v30.623c0 .715-.581 1.314-1.293 1.314h-33.78c-.726 0-1.293-.584-1.293-1.314v-30.638c0-.715.581-1.313 1.293-1.313h33.78v.014Zm0-1.824h-33.78c-1.715 0-3.11 1.401-3.11 3.123v30.623c0 1.723 1.395 3.124 3.11 3.124h33.78c1.715 0 3.11-1.401 3.11-3.124v-30.623c0-1.722-1.395-3.123-3.11-3.123Z"
    fill="#fff" />
  <path
    d="M275.889 165.354h-6.598v24.143c0 .715-.582 1.299-1.308 1.299h-27.181v6.48c0 .716.582 1.314 1.294 1.314h33.779c.712 0 1.294-.584 1.294-1.314v-30.623c.014-.715-.567-1.299-1.28-1.299Z"
    fill="#FFAF2A" />
  <path
    d="M275.889 165.354h-2.47v27.792c0 .73-.582 1.299-1.309 1.299h-31.308v2.846c0 .715.582 1.314 1.294 1.314h33.779c.712 0 1.294-.584 1.294-1.314v-30.638c.014-.715-.567-1.299-1.28-1.299Z"
    fill="#FFAF2A" />
  <path
    d="M264.45 180.286c0-3.021-2.442-5.473-5.465-5.473-3.009 0-5.465 2.452-5.465 5.473 0 2.336 1.454 4.336 3.517 5.124v2.569c0 1.08.873 1.956 1.948 1.956 1.076 0 1.948-.876 1.948-1.956v-2.569c2.064-.788 3.517-2.788 3.517-5.124Z"
    fill="#FFAF2A" stroke="#fff" stroke-width="1.2486" stroke-miterlimit="10" stroke-linecap="round"
    stroke-linejoin="round" />
  <path
    d="m156.307 172.025-55.312-.254c-6.6526-.03-12.0198-5.447-11.9949-12.1l.588-138.6707c.0299-6.6579 5.447-12.03008 12.1049-12.00018l55.312.25416c6.653.0299 12.02 5.44692 11.995 12.09992l-.588 138.6708c-.025 6.657-5.447 12.03-12.105 12Z"
    fill="#3629B7" />
  <path
    d="m156.925 14.0434-10.724-.0498c-1.441-.005-2.612 1.206-2.617 2.711l-.01 1.9435c-.005 1.505-1.176 2.716-2.616 2.7111l-20.906-.0947c-1.44-.005-2.596-1.231-2.591-2.736l.01-1.9435c.005-1.505-1.156-2.726-2.592-2.736l-3.772-.0199-9.384-.0448c-4.6596-.02-8.457 3.7426-8.477 8.4021l-.5731 135.3516c-.0199 4.659 3.7376 8.452 8.3971 8.472l55.202.254c4.66.02 8.457-3.743 8.477-8.402l.573-135.3517c.025-4.6545-3.737-8.447-8.397-8.4669Z"
    fill="#fff" />
  <circle cx="129" cy="91" r="15" fill="#3629B7" />
  <path
    d="M121.085 92.4847c.136.2152.963 1.1038 2.041 2.3385 1.289 1.4755 2.742 3.1379 2.912 3.3262.312.346.542.1072 1.009-.7982.647-1.2538 1.98-4.0017 3.855-6.5099 1.874-2.5081 4.685-5.2756 5.354-5.7945.669-.519.982-.8648.536-1.0379-.447-.173-3.931 2.2154-5.964 4.3499-2.184 2.2921-4.549 6.0341-5.135 6.1223-.47.0706-2.742-1.5808-3.386-1.9689-.748-.4505-1.577-.5878-1.222-.0275Z"
    fill="#fff" />
  <path
    d="m214.567 181.829-5.011-3.946 7.319-9.44 7.387 5.691-.415.614c-1.873 2.719-9.723 13.685-11.602 15.015-2.097 1.492 2.322-7.934 2.322-7.934Z"
    fill="#FF4267" />
  <path
    d="M211.611 189.626c-.088-.068 2.601-3.639 6.006-7.974 3.404-4.335 6.236-7.79 6.325-7.722.088.068-2.601 3.64-6.005 7.974-3.405 4.335-6.237 7.797-6.326 7.722ZM215.458 182.797c-.02.116-.34.156-.728.15-.388-.007-.708-.055-.729-.164-.013-.109.307-.245.729-.245.422.007.742.15.728.259ZM215.316 183.656c-.034.108-.395.102-.817.04-.422-.061-.776-.143-.776-.258 0-.109.374-.211.83-.15.456.068.797.265.763.368Z"
    fill="#263238" />
  <path
    d="M221.681 176.738c-.054.014-.17-.198-.306-.566-.13-.368-.286-.906-.266-1.54.021-.634.273-1.186.552-1.499.279-.314.544-.389.565-.348.034.055-.15.204-.334.518-.184.307-.354.791-.374 1.343-.021.559.081 1.07.136 1.451.061.375.082.627.027.641ZM214.492 182.088c-.041-.109.163-.286.428-.456.266-.171.518-.28.6-.198.075.082-.075.347-.382.538-.299.197-.606.218-.646.116ZM214.124 181.556c-.082-.074.048-.381.293-.681.245-.3.51-.491.606-.429.095.061-.034.368-.293.681-.252.32-.524.511-.606.429Z"
    fill="#263238" />
  <path
    d="M191.386 119.271s-11.213 29.82-9.701 35.391c1.511 5.572 31.749 27.693 31.749 27.693l8.21-11.827s-23.585-18.682-23.656-19.715c-.077-1.032 9.364-25.807 9.364-25.807l-15.966-5.735Z"
    fill="#263238" />
  <path
    d="M212.913 173.262c-.005.005-.041-.015-.107-.056-.082-.051-.179-.118-.297-.194-.275-.189-.648-.445-1.123-.772-.97-.68-2.364-1.672-4.064-2.929-3.401-2.515-8.022-6.103-12.924-10.304-1.225-1.048-2.415-2.086-3.553-3.098-.567-.506-1.124-1.007-1.67-1.492-.541-.491-1.098-.987-1.44-1.636-.362-.654-.347-1.421-.209-2.07.133-.659.296-1.278.454-1.881.322-1.201.644-2.315.94-3.333.582-2.013 1.062-3.649 1.399-4.809.153-.552.276-.992.367-1.314.036-.138.072-.25.097-.342.026-.077.036-.118.041-.113.005 0 0 .041-.015.123-.02.092-.041.209-.072.347-.066.307-.173.752-.316 1.324-.291 1.15-.746 2.801-1.312 4.836-.281 1.017-.593 2.136-.904 3.337-.153.603-.317 1.227-.439 1.871-.123.639-.133 1.319.199 1.912.317.593.853 1.073 1.394 1.559.546.485 1.103.981 1.675 1.487 1.138 1.007 2.328 2.045 3.553 3.087 4.897 4.197 9.492 7.805 12.862 10.361 1.68 1.252 3.044 2.274 4.009 3 .459.343.822.614 1.092.813.113.087.205.158.281.215.056.04.087.066.082.071Z"
    fill="#455A64" />
  <path
    d="M210.176 176.866c-.061-.046 1.496-2.198 3.477-4.805 1.981-2.607 3.636-4.687 3.697-4.641.061.046-1.496 2.198-3.482 4.805-1.976 2.606-3.631 4.682-3.692 4.641Z"
    fill="#455A64" />
  <path
    d="M211.187 62.5614c1.001 2.0036 1.527 3.7415 3.513 4.774.894.4651 1.986.7309 2.527 1.5845.588.9303.312 2.2745 1.052 3.0872 1.078 1.1808 3.289.2249 4.499 1.2625 1.082.9303.735 2.9237 1.899 3.7415.659.46 1.552.3578 2.298.6492 1.225.4753 1.807 1.8912 1.966 3.1946.127 1.0427.071 2.1416-.388 3.0923-.455.9507-1.354 1.7276-2.4 1.835-1.389.1482-2.967-.8127-4.09.0153-.398.2965-.633.7565-.94 1.1449-.699.8894-1.848 1.4057-2.976 1.3341-1.129-.0716-2.206-.7258-2.788-1.697-.776-1.2931-.725-3.0821-1.864-4.0737-.592-.5213-1.399-.7054-2.139-.9814-.741-.276-1.502-.736-1.726-1.4925-.215-.736-.644-1.2062-1.067-1.84-.567-.8485-1.328.1891-2.079-.2301-.75-.4191-.464-1.2369-.531-2.1007"
    fill="#263238" />
  <path
    d="m197.977 91.5322-9.691-3.2457s-4.284 12.3485-5.596 12.4715c-7.271.665-15.052-1.7479-17.779-2.7037-.276-.3118-.592-.685-.945-1.145-.301-.3936-.531-.8382-.684-1.3085-.184-.5725-.403-1.3392-.388-1.7992.016-.5673-.664-.8587-.98-.4498-.317.4089-.393 1.9679.322 3.6444.719 1.6765-1.823.3425-2.758-.1278-.934-.4702-3.896-1.7889-4.263-1.6152-.547.2556-.373.8843.572 1.3341.954.4549 3.681 1.9883 3.41 2.4688-.265.4753-4.993-1.9832-4.993-1.9832s-.924-.6901-1.256-.1431c-.598.9864 4.616 3.2252 5.116 3.4292.347.138.071.675-.296.506-.378-.173-4.657-2.5603-5.275-1.5636-.475.7666 4.274 1.8856 4.887 2.8726.612.986-3.513-1.217-3.937-.465-.158.281-.24.511 2.318 1.431 1.241.45 3.574.997 5.688 1.457l-.01.025s25.504 11.419 31.004.409c5.831-11.669 5.534-13.4988 5.534-13.4988Z"
    fill="#E5BAAB" />
  <path
    d="m207.562 81.3094 4.233.0767 3.36 9.6451-2.737 11.0508c-.802 3.23 2.828 9.686 2.737 13.248l-23.743 3.849-.501-15.875-.01-.532-8.215-4.1045 2.711-6.6498c4.171-9.7831 11.458-10.376 11.458-10.376l10.707-.3323Z"
    fill="#FF4267" />
  <path
    d="M191.044 102.655c-.01.015-.199-.062-.51-.271-.302-.215-.731-.563-1.098-1.135-.373-.557-.633-1.375-.562-2.2694.036-.8843.317-1.8708.924-2.709.46-.6543 1.052-1.1654 1.685-1.5079l-.071.0971c.194-1.4567.373-2.709.51-3.5983.138-.8894.23-1.4057.261-1.4057.03.0051-.01.5316-.102 1.4261s-.235 2.1519-.414 3.6086l-.005.0613-.066.0358c-.567.3169-1.144.8127-1.573 1.4312-.572.7973-.848 1.7225-.894 2.5659-.081.8485.138 1.6053.47 2.1523.327.557.725.914.996 1.15.286.245.459.352.449.368Z"
    fill="#455A64" />
  <path
    d="M191.938 91.9514c-.067.0307-.302-.3067-.521-.7565-.22-.4498-.347-.8433-.276-.8791.066-.0307.301.3067.521.7565.219.4498.347.8433.276.8791Z"
    fill="#455A64" />
  <path
    d="m207.276 81.4475.73-16.7038-6.628-5.0245-6.025 2.9493s-.199 7.5699 0 10.8513c.199 3.2815 3.508 3.6342 3.508 3.6342s-.077 1.9218-.153 3.9459c-.092 2.4484 1.879 4.4724 4.325 4.452 2.282-.0256 4.146-1.8247 4.243-4.1044Z"
    fill="#E5BAAB" />
  <path
    d="M196.012 68.1826c0 .2298.189.4187.419.4187.23 0 .419-.1889.419-.4187s-.189-.4187-.419-.4187c-.23 0-.419.1889-.419.4187ZM195.609 67.7281c.056.0562.362-.2094.817-.2349.449-.0306.791.1941.837.1328.026-.0255-.031-.1277-.184-.2298-.148-.1021-.393-.194-.674-.1787-.281.0153-.515.1379-.648.2553-.133.1225-.179.2298-.148.2553ZM200.878 68.1826c0 .2298.189.4187.419.4187.229 0 .418-.1889.418-.4187s-.189-.4187-.418-.4187c-.23 0-.419.1889-.419.4187ZM200.618 67.7281c.056.0562.362-.2094.816-.2349.45-.0306.792.1941.838.1328.025-.0255-.031-.1277-.184-.2298-.148-.1021-.393-.194-.674-.1787-.281.0153-.516.1379-.648.2553-.133.1225-.174.2298-.148.2553Z"
    fill="#263238" />
  <path d="M200.48 71.9762c-.561.2811-1.557.6798-2.185.7514 0 0 .556.7973 1.496.4242.975-.3833.689-1.1756.689-1.1756Z"
    fill="#fff" />
  <path d="M198.861 77.1541s2.211.0255 4.346-1.467c0 0-.986 2.4126-4.274 2.2746l-.072-.8076Z" fill="#D78776" />
  <path
    d="M217.549 74.1792c-.291.0153-.725-.0307-1.189-.2709-.47-.23-.93-.6645-1.297-1.2574-.373-.5878-.659-1.3187-.97-2.0803-.613-1.5283-1.073-2.9442-1.389-3.9767-.051-.1635-.092-.3117-.138-.4549-.026-.1737-.056-.3322-.087-.4498-1.787-6.844-7.802-8.1219-8.991-8.1219-1.277 0-3.508-.7002-6.761 2.6784-.546.5673-.939 1.1398-1.235 1.7021-.838 1.0529-1.282 2.2183-1.451 3.0923-.199 1.0018-.112 1.6305-.076 1.6305.061 0 .071-.6185.327-1.5692.127-.4753.326-1.0376.628-1.6151-.475 2.1212.332 3.7823.332 3.7823l1.164-.322 4.176-1.4209c-.377-1.2932.179-2.9033.496-3.6546l.03-.0307c.955 4.912 5.52 5.3669 5.52 5.3669l.771 10.7491c5.55-1.1858 5.428-8.6228 5.392-10.1357.25.8536.577 1.8298.99 2.8521.312.7616.608 1.5027 1.017 2.1161.398.6185.924 1.0785 1.439 1.2983.516.23.991.2453 1.297.1942.307-.0613.455-.1585.45-.1738.005-.0051-.153.0511-.445.0716Z"
    fill="#263238" />
  <path
    d="M198.984 71.5466c0-.0255-.281-.0562-.741-.092-.117-.0051-.229-.0204-.25-.1073-.03-.0869.016-.2198.067-.3629.097-.2965.199-.6083.311-.9354.215-.6696.398-1.2727.526-1.7174.128-.4447.189-.7207.169-.7258-.026-.0051-.133.2556-.292.69-.158.4294-.362 1.0325-.577 1.697-.102.3271-.204.644-.296.9405-.04.138-.107.2964-.046.4702.036.0869.118.1482.194.1636.072.0204.138.0153.194.0153.46 0 .741-.0102.741-.0358Z"
    fill="#263238" />
  <path
    d="M208.354 71.4088c-.021-.5469-.021-1.1092.173-1.6203.199-.5111.633-.9609 1.18-1.0172.628-.0664 1.23.455 1.332 1.0785.097.6236-.26 1.2676-.812 1.5794-.546.3067-1.245.3016-1.822.0512"
    fill="#E5BAAB" />
  <path
    d="M209.308 70.9329c.021-.0358.179.046.409-.0256.235-.0562.469-.322.49-.7002.015-.184-.026-.3527-.118-.4396-.092-.0869-.24-.1124-.357-.1073-.245.0204-.419.0869-.434.046-.01-.0256.112-.1534.403-.2352.148-.0306.358-.0408.552.1074.194.1584.24.4191.224.6491-.015.2351-.102.4549-.245.6134-.138.1584-.326.2402-.485.2556-.316.0306-.464-.1432-.439-.1636Z"
    fill="#D78776" />
  <path
    d="M204.284 201.467v-4.784l8.95-.057.072 6.998-.557.041c-2.471.153-12.565.603-14.22.112-1.838-.547 5.755-2.31 5.755-2.31Z"
    fill="#FF4267" />
  <path
    d="M198.325 203.342c0-.086 3.35-.153 7.48-.153 4.131 0 7.481.067 7.481.153 0 .082-3.35.154-7.481.154-4.13 0-7.48-.072-7.48-.154ZM204.13 202.442c-.076.041-.25-.133-.429-.362-.178-.23-.296-.445-.24-.506.057-.061.291.066.48.317.194.255.261.51.189.551ZM203.558 202.76c-.081.031-.24-.184-.403-.46-.163-.276-.276-.521-.209-.578.066-.051.296.123.469.419.179.302.22.588.143.619Z"
    fill="#263238" />
  <path
    d="M210.584 203.307c-.036-.026.036-.194.194-.445.159-.25.404-.588.787-.869s.827-.393 1.138-.368c.317.021.48.143.465.174-.015.046-.189.005-.46.041-.265.031-.628.153-.965.399-.337.245-.597.542-.791.751-.199.22-.332.343-.368.317ZM204.1 201.543c.041-.071.245-.035.47.041.224.082.403.179.393.261-.01.081-.24.117-.496.025-.255-.081-.408-.255-.367-.327ZM204.243 201.083c.01-.081.25-.148.536-.148.291.005.526.077.531.158.005.082-.235.149-.536.149-.302-.006-.542-.077-.531-.159Z"
    fill="#263238" />
  <path
    d="m196.288 118.454-4.907.817 2.823 3.476c.812 16.372.613 32.227 1.364 40.134.112 1.201 5.177 38.867 4.677 37.983l14.909.623-4.452-37.824 2.109-33.597c2.287-3.966 2.956-8.668 1.869-13.12l-.368-1.513"
    fill="#455A64" />
  <path
    d="M206.566 59.3308c-.74-.2863-1.343-.9354-1.532-1.7072-.189-.7718.072-1.6458.674-2.1621.608-.5162 1.542-.6185 2.221-.2096.557.3323.894.9405 1.103 1.5539.143.4089.24.8536.133 1.2727-.158.6287-.751 1.0734-1.374 1.2421-.622.1686-1.286.1124-1.93.0511"
    fill="#263238" />
  <path
    d="M219.724 68.4391c-.03-.0051.118-.2402.031-.6696-.046-.2095-.153-.46-.357-.6849-.199-.2249-.506-.4038-.879-.506-.372-.1023-.801-.1227-1.261-.092-.459.0306-.96.1124-1.501.1226-.536.0103-1.139-.0613-1.659-.3935-.547-.3323-.812-.9661-.991-1.5385-.352-1.1552-.955-2.1468-1.634-2.9339-.684-.7872-1.435-1.3648-2.114-1.7686-1.368-.8024-2.379-.9302-2.359-.9916 0-.0102.062-.0051.179.0154.117.0204.291.0409.506.1022.439.1022 1.056.322 1.766.7054.705.3884 1.496.966 2.206 1.7685.71.7973 1.343 1.835 1.705 3.0157.184.5724.419 1.1142.879 1.4005.449.2913 1.005.3731 1.511.368.516-.0051 1.016-.0767 1.491-.0971.475-.0256.929.0051 1.327.1329.399.1175.731.3322.94.5929.214.2556.311.5367.347.7667.031.23-.005.414-.046.5265-.035.1124-.081.1635-.087.1584Z"
    fill="#263238" />
  <path
    d="M210.294 71.3784c.015-.0256.245.1686.245.6133-.005.2096-.092.4856-.312.6849-.209.1994-.541.3272-.883.276-.342-.0562-.613-.2862-.751-.5418-.143-.2606-.138-.5469-.071-.7462.138-.4191.419-.5316.424-.5009.03.0306-.174.1942-.235.5469-.031.1738-.016.3885.107.5776.112.1891.327.3578.577.3987.25.0408.5-.0512.674-.1943.174-.1431.255-.3424.286-.5162.041-.3578-.102-.5776-.061-.598Z"
    fill="#E0E0E0" />
  <path
    d="M208.971 59.9747c-.066.0562-.72-.7718-1.843-1.3596-1.119-.6032-2.17-.6799-2.16-.7616-.01-.0665 1.108-.1125 2.287.5213 1.185.6185 1.777 1.5743 1.716 1.5999Z"
    fill="#E8505B" />
  <path
    d="M210.876 70.7547c0-.0357.143-.0459.234.1226.041.0766.062.1991.006.3217-.062.1276-.205.2093-.348.2144-.143.0051-.286-.0613-.357-.1685-.077-.1021-.087-.2144-.077-.2961.026-.1736.123-.2349.148-.2094.036.0204.016.1021.046.2043.031.1072.103.2042.235.194.128-.0051.179-.0919.169-.1991-.005-.0971-.067-.1481-.056-.1839Z"
    fill="#E0E0E0" />
  <path
    d="M212.12 91.7548c-19.629 4.3707-29.675-4.6862-31.029-6.0239 0 0-.029-.1344-.081-.0802-.052-.0534-.079.0812-.079.0812-1.335 1.3544-11.25 10.5352-30.941 6.4086 0 0-2.765 35.3295 8.798 49.6645 12.35 15.309 22.714 19.897 22.766 19.857.052.04 10.439-4.588 22.48-20.138 11.265-14.548 8.086-49.7692 8.086-49.7692Z"
    fill="#fff" />
  <path
    d="M209.27 95.4055c-17.813 3.8932-26.927-4.1689-28.156-5.3596 0 0-.026-.1195-.073-.0714-.048-.0476-.072.0722-.072.0722-1.212 1.206-10.21 9.3804-28.077 5.7088 0 0-2.515 31.4535 7.977 44.2135 11.205 13.629 20.605 18.554 20.652 18.518.048.035 9.477-4.927 20.405-18.772 10.224-12.954 7.344-44.3095 7.344-44.3095Z"
    fill="#3629B7" />
  <path opacity=".02"
    d="M180.983 93.1445s.026-.1256.076-.0758c.049-.0506.076.0747.076.0747 1.262 1.223 10.466 9.3636 28.413 5.8361-.11-3.2033-.294-5.2077-.294-5.2077-17.814 3.8932-26.928-4.1689-28.157-5.3598 0 0-.026-.1196-.073-.0714-.047-.0476-.072.0722-.072.0722-1.212 1.206-10.21 9.3804-28.077 5.7088 0 0-.16 2.0058-.231 5.2087 18.004 3.3107 27.094-4.9469 28.339-6.1858Z"
    fill="#000" />
  <path
    d="M204.044 104.176c-13.458 2.996-21.953-3.525-22.881-4.4424 0 0-.02-.0922-.055-.055-.036-.0367-.055.0556-.055.0556-.915.9288-9.23 7.5368-22.73 4.7078 0 0-.379 23.908 7.549 33.735 8.467 10.496 15.573 13.642 15.608 13.614.036.027 7.157-3.146 15.412-13.806 7.724-9.974 7.152-33.809 7.152-33.809Z"
    fill="#5655B9" />
  <path
    d="M207.383 80.9312c.016 0 .062.1942.056.552 0 .3578-.066.8843-.296 1.4874-.235.598-.648 1.2778-1.317 1.8298-.659.5572-1.578.9303-2.568.9968-.991.0562-1.951-.2045-2.671-.6799-.725-.4702-1.22-1.0938-1.527-1.656-.301-.5725-.428-1.0836-.474-1.4414-.046-.3578-.021-.5571-.011-.5571.062-.0154.026.8127.654 1.9014.317.5315.802 1.1091 1.491 1.5385.684.4344 1.583.6696 2.517.6184.935-.0613 1.797-.4038 2.426-.9149.633-.5111 1.046-1.1449 1.296-1.7072.496-1.1551.363-1.9729.424-1.9678Z"
    fill="#455A64" />
  <path
    d="M206.311 198.068c-.005 0-.015-.046-.031-.138-.015-.108-.035-.241-.061-.409-.051-.379-.117-.905-.204-1.569-.174-1.365-.409-3.338-.679-5.786-.542-4.887-1.21-11.649-1.813-19.127-.597-7.483-1.016-14.261-1.261-19.173-.123-2.453-.209-4.441-.255-5.816-.021-.67-.036-1.202-.046-1.585 0-.169-.005-.301-.005-.414 0-.092.005-.138.005-.143.005 0 .01.046.02.138.01.107.021.245.031.409.025.383.056.91.097 1.579.081 1.396.199 3.374.342 5.812.291 4.907.74 11.684 1.343 19.162.602 7.478 1.24 14.235 1.731 19.127.25 2.428.449 4.401.592 5.791.066.67.117 1.196.153 1.574.015.169.026.302.036.409.01.113.01.159.005.159Z"
    fill="#263238" />
  <path
    d="m217.549 98.2637-8.757-5.7655s-4.284 12.3488-5.596 12.4718c-7.271.664-15.052-1.748-17.779-2.704-.276-.312-.592-.685-.945-1.145-.301-.394-.531-.838-.684-1.3085-.184-.5725-.403-1.3392-.388-1.7992.015-.5674-.664-.8587-.98-.4498-.317.4089-.393 1.9679.321 3.6445.72 1.676-1.822.342-2.757-.128-.934-.47-3.896-1.7889-4.263-1.6151-.547.2556-.373.8841.571 1.3341.955.455 3.682 1.988 3.411 2.469-.265.475-4.993-1.983-4.993-1.983s-.925-.69-1.256-.144c-.598.987 4.615 3.226 5.116 3.43.347.138.071.675-.296.506-.378-.174-4.657-2.561-5.275-1.564-.475.767 4.274 1.886 4.887 2.873.612.986-3.513-1.217-3.937-.465-.158.281-.24.511 2.318 1.431 1.241.449 3.574.996 5.688 1.456l-.01.026s26.071 11.684 31.003.409c5.244-11.9913 4.601-10.9793 4.601-10.9793Z"
    fill="#E5BAAB" />
  <path
    d="M211.795 81.3811s7.971.9405 7.123 10.4271c-.858 9.6758-4.856 16.8218-4.856 16.8218l-10.447-5.49c2.344-4.7535 4.141-9.6706 5.27-14.7922l2.91-6.9667Z"
    fill="#FF4267" />
  <path
    d="M208.277 91.1335c.02.0051-.016.184-.087.4958-.072.3169-.194.7667-.358 1.3239-.321 1.1091-.822 2.6323-1.465 4.2782-.648 1.6458-1.317 3.0976-1.838 4.1296-.261.517-.48.931-.643 1.212-.159.281-.256.434-.276.424-.036-.021.265-.665.74-1.717.475-1.053 1.113-2.5101 1.757-4.1458.643-1.6356 1.169-3.1383 1.537-4.2321.372-1.099.597-1.7788.633-1.7686Z"
    fill="#455A64" />
  <path
    d="M208.277 91.1335c.02.0051-.016.184-.087.4958-.072.3169-.194.7667-.358 1.3239-.321 1.1091-.822 2.6323-1.465 4.2782-.648 1.6458-1.317 3.0976-1.838 4.1296-.261.517-.48.931-.643 1.212-.159.281-.256.434-.276.424-.036-.021.265-.665.74-1.717.475-1.053 1.113-2.5101 1.757-4.1458.643-1.6356 1.169-3.1383 1.537-4.2321.372-1.099.597-1.7788.633-1.7686Z"
    fill="#455A64" />
  <g clip-path="url(#a)" fill="#FFAF2A">
    <path
      d="M92.0001 190.719c0-1.113.2772-2.168.8344-3.123 1.3333-2.285 4.1236-3.596 7.6555-3.596 6.211 0 13.356 3.907 16.265 8.894 1.566 2.685 1.736 5.352.478 7.51-1.334 2.286-4.124 3.596-7.656 3.596-6.211 0-13.3552-3.907-16.2644-8.894-.8732-1.496-1.3125-2.987-1.3125-4.387Zm21.5919 6.552c0-.8-.406-1.645-.709-2.165-2.113-3.622-7.788-6.682-12.393-6.682-1.864 0-3.2784.517-3.7841 1.384-.5755.986.0526 2.357.4775 3.086 2.1129 3.622 7.7876 6.681 12.3926 6.681 1.864 0 3.279-.517 3.784-1.383.166-.283.232-.599.232-.921Z" />
    <path
      d="M108.583 200.367c3.488 0 4.778-2.175 4.778-2.175-.506.866-1.92 1.383-3.784 1.383-4.605 0-10.28-3.059-12.3932-6.681-.4249-.729-1.053-2.099-.4778-3.086 0 0-1.151 1.836.2468 4.372 2.0238 3.671 7.0252 6.187 11.6302 6.187ZM152.189 196.878c1.276 0 2.311-1.024 2.311-2.288 0-1.263-1.035-2.287-2.311-2.287h-36.763c-.341 0-.683.223-.943.67-.521.893-.521 2.342 0 3.235.26.447.602.67.943.67h36.763Z" />
    <path
      d="M143.975 195.051c.852 0 1.887-.592 2.312-1.321.217-.371.232-.705.084-.945l.002-.001-3.285-5.644-.082-.137c-.01-.02-.02-.039-.033-.055-.066-.098-.141-.189-.224-.27-.341-.342-.818-.553-1.34-.553-.717 0-1.341.393-1.663.972-.144.267-.227.569-.227.894 0 .322.082.628.227.891.02.036.043.072.063.108l3.305 5.68.001-.001c.141.236.438.382.86.382ZM134.771 195.051c.851 0 1.886-.592 2.312-1.321.216-.371.231-.705.084-.945l.002-.001-3.839-6.616-.082-.136c-.01-.02-.02-.039-.033-.055-.065-.098-.141-.189-.223-.27-.342-.342-.818-.553-1.341-.553-.716 0-1.34.393-1.662.972-.145.267-.227.569-.227.895 0 .321.082.627.227.891.019.035.042.071.062.107l3.858 6.651.002-.001c.141.236.437.382.86.382Z" />
  </g>
  <path
    d="m240.072 62.9074 8.855.0008c-.204-.2772-.397-.5581-.564-.8465l-1.111-1.9243c-1.976-3.4234-.374-6.1997 3.579-6.199 1.6-.0002 3.34.4608 4.977 1.2295-2-4.5855.451-8.1394 5.921-8.1393 5.915-.0002 13.107 4.1517 16.065 9.2743l1.662 2.8787c.766 1.3267 1.166 2.5854 1.245 3.7267l7.355-.0007c2.193.0006 4.86 1.5394 5.956 3.4386 1.097 1.8992.208 3.4386-1.986 3.4385l-47.983.0007c-2.193-.0005-4.859-1.5393-5.956-3.4385-1.096-1.8992-.208-3.4386 1.985-3.4395ZM177.142 16.1815l5.485.0005c-.127-.1717-.247-.3457-.35-.5244l-.688-1.1919c-1.224-2.1205-.231-3.8401 2.217-3.8398.991-.0001 2.069.2855 3.083.7616-1.239-2.84032.279-5.04164 3.667-5.04159 3.664-.0001 8.119 2.57167 9.951 5.74459l1.029 1.7831c.475.8218.723 1.6015.772 2.3084l4.556-.0004c1.358.0003 3.01.9535 3.689 2.1299.679 1.1764.129 2.1299-1.23 2.1299l-29.721.0004c-1.359-.0003-3.011-.9535-3.69-2.1299-.679-1.1764-.129-2.1299 1.23-2.1304ZM35.8277 66.4987l6.6827.0007c-.1541-.2089-.2999-.4215-.4254-.6388l-.8385-1.4524c-1.492-2.5842-.2822-4.6787 2.7016-4.6786 1.2079.0001 2.5209.3482 3.755.9278-1.5097-3.4608.3414-6.1427 4.4695-6.1427 4.464 0 9.8921 3.1338 12.1241 6.9997l1.254 2.172c.578 1.0011.8797 1.9516.9395 2.8132l5.5505-.0003c1.6545-.0003 3.6673 1.162 4.4948 2.5953.8275 1.4333.1567 2.5954-1.4978 2.5957l-36.2135-.0015c-1.6545.0003-3.6673-1.162-4.4948-2.5953-.8275-1.4333-.1562-2.5945 1.4983-2.5948Z"
    fill="#F2F1F9" />
  <defs>
    <clipPath id="a">
      <path fill="#fff" transform="rotate(90 -14.75 169.25)" d="M0 0h20v62.5H0z" />
    </clipPath>
  </defs>
</svg>