<svg width="327" height="226" viewBox="0 0 327 226" fill="none" xmlns="http://www.w3.org/2000/svg">
  <path
    d="M126.571 170.136c-2.892-10.019-11.167-17.721-21.841-17.983-6.206-.151-12.2262 2.517-17.5133 5.563-7.1348 4.108-15.5449 9.067-24.0856 7.824-5.4678-.801-11.9449-3.877-13.2303-10.235-1.3556-6.727 4.062-11.343 9.8562-14.047 4.9658-2.321 11.9299-7.864 14.1642-13.17 8.8469-21.049-15.8914-45.0741-8.9122-69.0635 7.3055-25.1071 41.142-29.3512 58.148-12.3043 1.632 1.6362 3.153 3.3781 4.544 5.2258 3.469 4.6217 5.513 10.9148 10.338 14.3836 6.246 4.4908 14.34 3.0509 21.073.3876 12.859-5.0949 16.263-8.4579 28.835-13.9456 9.043-3.947 20.185-7.4662 30.342-3.9621 7.281 2.5122 15.324 7.0332 19.396 13.573 7.572 12.1634 4.173 25.2682 16.143 42.5665 5.422 7.839 14.043 10.034 20.912 15.698 17.804 14.681 11.855 45.633-7.567 56.22-15.946 8.695-35.578 6.711-52.87 4.481-1.326-.171-2.651-.352-3.972-.549"
    stroke="#ADBBF9" stroke-miterlimit="10" stroke-linejoin="round" stroke-dasharray="3.5 3.5" />
  <path
    d="M72.304 75.6031c-.015-.3373-.0451-.6948-.0853-1.0723-.3465-3.1265-2.4804-2.8395-3.8109-2.7438-1.3306.0956-2.9825.146-3.6151-1.309-.2762-.6344-.2661-1.3946-.4469-2.0793-.4017-1.5154-1.7473-2.4266-3.0327-2.4266-1.2853-.005-2.5004.735-3.5498 1.6513-.5473.4733-1.1649 1.0321-1.8126.8508-.4167-.1157-.7431-.5135-1.0042-.9364-1.5213-2.477-1.5113-6.0817-3.1782-8.4126-1.8377-2.5727-5.2771-2.623-7.6018-.7552-2.3247 1.8678-3.6603 5.1956-4.2728 8.5536-.1959 1.0925-.3716 2.2907-1.0394 3.0308-.959 1.0623-2.4301.7099-3.7105.5689-1.4862-.1661-3.0728.0755-4.2779 1.168-.9841.8911-1.6217 2.4518-1.5012 3.9168H72.304v-.005ZM158.308 21.4569h42.267s-1.692-1.9735-3.61-2.6481c-2.415-.8458-3.414 1.5355-4.941-1.5456-.853-1.7268-1.451-4.0024-3.7-4.5915-3.515-.9213-4.409 1.9886-6.086 1.2033-1.471-.6898-1.426-3.4587-2.907-5.76959-1.451-2.26049-4.986-3.65002-7.401-2.47194-4.408 2.15477-3.836 5.57823-5.277 6.70593-1.426 1.1127-4.689-2.80922-8.345 1.4349-2.515 2.925 0 7.6826 0 7.6826Z"
    fill="#fff" stroke="#ADBBF9" stroke-miterlimit="10" stroke-linejoin="round" />
  <path
    d="M202.428 6.8922c0 1.02704-.829 1.85774-1.853 1.85774s-1.853-.8307-1.853-1.85774.829-1.85773 1.853-1.85773 1.853.83069 1.853 1.85773ZM324.654 156.77c0 1.027-.829 1.857-1.853 1.857s-1.853-.83-1.853-1.857c0-1.027.829-1.858 1.853-1.858 1.024-.005 1.853.831 1.853 1.858ZM236.074 79.7115c0 1.027-.829 1.8577-1.853 1.8577s-1.853-.8307-1.853-1.8577c0-1.0271.829-1.8578 1.853-1.8578s1.853.8307 1.853 1.8578ZM6.69034 101.763c0 1.027-.82846 1.857-1.85274 1.857s-1.85274-.83-1.85274-1.857c0-1.028.82846-1.8582 1.85274-1.8582 1.01926 0 1.85274.8302 1.85274 1.8582ZM82.3461 32.0498c0 1.027-.8285 1.8577-1.8527 1.8577-1.0243 0-1.8528-.8307-1.8528-1.8577s.8285-1.8577 1.8528-1.8577c1.0242 0 1.8527.8307 1.8527 1.8577ZM104.318 23.5917c0 .6998-.562 1.2637-1.26 1.2637s-1.261-.5639-1.261-1.2637c0-.6998.563-1.2636 1.261-1.2636s1.26.5638 1.26 1.2636ZM309.646 113.08c0 .7-.563 1.264-1.261 1.264s-1.26-.564-1.26-1.264c0-.7.562-1.263 1.26-1.263s1.261.563 1.261 1.263ZM218.053 72.5021c.696 0 1.261-.5657 1.261-1.2636 0-.6979-.565-1.2637-1.261-1.2637s-1.26.5658-1.26 1.2637c0 .6979.564 1.2636 1.26 1.2636ZM268.9 39.4303c0 .6998-.562 1.2636-1.26 1.2636s-1.26-.5638-1.26-1.2636c0-.6998.562-1.2637 1.26-1.2637s1.26.5639 1.26 1.2637ZM240.012 30.9673c0 .6998-.562 1.2636-1.26 1.2636s-1.26-.5638-1.26-1.2636c0-.6998.562-1.2637 1.26-1.2637s1.26.5639 1.26 1.2637ZM266.214 132.04c0 .7-.562 1.264-1.26 1.264s-1.26-.564-1.26-1.264c0-.7.562-1.264 1.26-1.264.698-.005 1.26.564 1.26 1.264ZM70.542 144.143c0 .7-.5623 1.264-1.2603 1.264-.6979 0-1.2602-.564-1.2602-1.264 0-.7.5623-1.264 1.2602-1.264.698 0 1.2603.564 1.2603 1.264ZM74.3281 86.3872c0 .6998-.5623 1.2636-1.2602 1.2636s-1.2603-.5638-1.2603-1.2636c0-.6998.5624-1.2637 1.2603-1.2637s1.2602.5689 1.2602 1.2637Z"
    stroke="#ADBBF9" stroke-miterlimit="10" stroke-linejoin="round" />
  <path
    d="M317.403 94.9961h-1.687c-.301 0-.547-.2467-.547-.5487v-1.6916c0-.3021.246-.5488.547-.5488h1.687c.302 0 .548.2467.548.5488v1.6916c0 .302-.246.5487-.548.5487ZM57.7534 153.185h-1.6871c-.3012 0-.5473-.247-.5473-.549v-1.691c0-.302.2461-.549.5473-.549h1.6871c.3012 0 .5473.247.5473.549v1.691c.005.302-.241.549-.5473.549ZM54.8208 50.2091h-1.6871c-.3012 0-.5473-.2467-.5473-.5488v-1.6916c0-.302.2461-.5487.5473-.5487h1.6871c.3012 0 .5472.2467.5472.5487v1.6916c0 .3021-.246.5488-.5472.5488ZM241.305 111.263h-1.687c-.301 0-.547-.247-.547-.549v-1.692c0-.302.246-.548.547-.548h1.687c.301 0 .547.246.547.548v1.692c0 .302-.246.549-.547.549Z"
    fill="#E4E9F9" />
  <path
    d="M202.879 91.2052c.015-.2416.036-.4984.071-.7703.281-2.2454 2.033-2.0389 3.128-1.9685 1.089.0705 2.445.1058 2.967-.9414.226-.4531.216-1.0019.367-1.4902.331-1.0875 1.436-1.742 2.49-1.742 1.054 0 2.049.5286 2.912 1.1831 2.802 2.1296 3.605-3.4738 4.936-5.0999 1.511-1.8477 4.323-2.8798 6.231-1.5406 1.908 1.3392 3.007 3.7256 3.505 6.1371.16.7854.22 1.7419.853 2.1749 1.853 1.2687 4.238-1.1932 6.477.7199.783.6696.934 2.2857.834 3.3379h-34.771Z"
    fill="#fff" stroke="#ADBBF9" stroke-miterlimit="10" stroke-linejoin="round" />
  <path
    d="M64.5719 206.289c-6.2963-9.521-19.4764-33.581-8.0486-41.857 6.2712-4.547 14.5859-.408 18.6077 9.616 3.8159 9.52 5.277 20.767 6.8687 32.105"
    fill="#fff" />
  <path
    d="M64.7074 206.214c-3.0126-4.627-5.7239-9.48-7.9733-14.525-2.4352-5.467-4.6745-11.554-4.5139-17.636.1456-5.442 3.4444-11.015 9.4194-11.252 7.5465-.297 12.0353 7.597 14.1892 13.719 3.3541 9.545 4.5641 19.72 5.965 29.694.0401.271.4468.156.4067-.111-1.3607-9.697-2.5507-19.554-5.6788-28.873-2.0786-6.188-5.8996-13.649-13.0947-14.726-5.3322-.801-9.9766 3.131-11.1766 8.181-1.3808 5.81.5573 12.184 2.646 17.581 2.4603 6.358 5.7591 12.445 9.5399 18.109.1104.161.3816.005.2711-.161Z"
    fill="#ADBBF9" />
  <path d="m59.7568 163.008 14.842 43.311" stroke="#ADBBF9" stroke-miterlimit="10" stroke-linejoin="round" />
  <path
    d="M39.3316 206.299c-5.4327-7.044-17.3023-24.841-7.4461-30.963 5.4126-3.363 12.0805-.302 15.5499 7.114 3.2938 7.043 4.5541 15.365 5.9248 23.748"
    fill="#fff" />
  <path
    d="M39.4666 206.219c-2.5155-3.323-4.8654-6.797-6.8637-10.457-2.1289-3.902-4.2126-8.327-4.308-12.858-.0954-4.501 2.8871-8.312 7.5264-8.695 5.8193-.483 9.9064 4.733 11.96 9.536 3.0477 7.118 4.1323 14.922 5.3775 22.514.0451.267.4518.156.4067-.111-1.2201-7.471-2.3047-15.129-5.2269-22.167-1.9632-4.727-5.5381-9.706-11.0762-10.175-4.1323-.347-8.2093 2.357-9.1181 6.47-.959 4.334.8586 9.017 2.6912 12.868 2.2444 4.727 5.1766 9.153 8.3901 13.271.1054.131.3464-.055.241-.196Z"
    fill="#ADBBF9" />
  <path d="m34.6772 174.28 12.8035 32.039" stroke="#ADBBF9" stroke-miterlimit="10" stroke-linejoin="round" />
  <path
    d="M102.837 206.199c-14.8771-27.066-24.4923-53.895-12.4821-66.642 11.8951-12.632 24.3421 2.336 27.3691 15.597 3.711 16.241 4.248 33.827 4.173 51.045"
    fill="#fff" />
  <path
    d="M102.837 206.199c-14.8771-27.066-24.4923-53.895-12.4821-66.642 11.8951-12.632 24.3421 2.336 27.3691 15.597 3.711 16.241 4.248 33.827 4.173 51.045M94.7583 136.269l17.8747 69.889"
    stroke="#ADBBF9" stroke-miterlimit="10" stroke-linejoin="round" />
  <path
    d="M80.5083 206.284c-5.9097-14.319-19.2052-43.277-9.8311-52.233 5.9951-5.725 16.8253 1.293 22.3936 13.804 5.2921 11.882 6.8787 24.11 10.0522 38.257"
    fill="#fff" />
  <path
    d="M80.6597 206.244c-2.8067-6.882-5.7641-13.694-8.2294-20.707-2.4753-7.038-4.9507-14.661-4.8-22.212.0552-2.774.5422-5.73 2.2142-8.015 1.9281-2.628 5.031-3.57 8.139-2.774 3.6502.936 6.7482 3.559 9.1834 6.338 3.3188 3.786 5.5431 8.292 7.3205 12.974 4.1875 11.046 5.8696 22.847 8.4356 34.325.06.267.467.156.406-.11-2.44-10.94-4.0817-22.152-7.8524-32.745-2.8218-7.934-7.3306-17.006-15.5249-20.526-2.636-1.132-5.7239-1.419-8.2344.192-2.2544 1.45-3.5197 3.942-4.072 6.509-.6828 3.192-.4519 6.535.0201 9.737.5925 4.038 1.6569 7.995 2.877 11.882 2.7113 8.619 6.3264 16.9 9.811 25.217.0854.177.3816.101.3063-.085Z"
    fill="#ADBBF9" />
  <path d="M195.836 206.203c-5.016-57.62 7.19-78.669 20.545-79.611 6.327-.448 24.854 3.207 2.486 79.576" fill="#fff" />
  <path
    d="M195.931 206.204c-1.235-18.971-2.5-38.686 2.38-57.293 2.114-8.065 6.08-18.472 14.747-21.447 3.419-1.173 7.305-.957 10.202 1.359 5.122 4.098 5.915 12.073 6.111 18.119.216 6.782-.517 13.588-1.562 20.279-1.566 10.074-3.926 20.018-6.592 29.855-.819 3.021-1.672 6.036-2.501 9.057-.05.186.236.267.291.081 3.395-10.93 6.176-22.132 8.25-33.389 1.366-7.406 2.42-14.923 2.53-22.464.066-4.587-.185-9.299-1.461-13.729-.753-2.608-1.908-5.206-3.816-7.18-2.455-2.542-5.884-3.458-9.319-2.91-8.385 1.335-13.124 9.918-15.695 17.198-2.415 6.837-3.585 14.087-4.263 21.286-.994 10.543-.869 21.18-.246 31.738.186 3.151.407 6.303.743 9.445.02.12.211.125.201-.005Z"
    fill="#ADBBF9" />
  <path d="m218.982 126.724-11.799 79.444" stroke="#ADBBF9" stroke-miterlimit="10" stroke-linejoin="round" />
  <path fill-rule="evenodd" clip-rule="evenodd"
    d="m86.9347 54.435 2.4612-.6208.3316 1.3414-1.9134.4826c.28.5238.4471.8955.5013 1.1149.0624.2523.0912.7085.0863 1.3681l.1329.0103c.1893.0165.3627.0324.52.048.1574.0158.3014.0304.4323.044.7313.1011 1.2497.1132 1.555.0362.2343-.0591.4183-.193.5522-.4016.0709-.1112.1427-.2603.2152-.4477.0723-.1872.1477-.4161.2256-.6863l1.7486.538c-.1712.8767-.4331 1.5285-.785 1.9552-.3547.4392-.8483.7385-1.4805.898-.458.1155-1.1958.1296-2.2133.0425-.9972-.1214-1.6784-.1362-2.0436-.0441-.2998.0757-.5193.2069-.6585.3935-.1392.1867-.2608.5378-.3649 1.0536l-1.8409-.4187c.305-.9452.5789-1.5709.8217-1.877.2797-.3677.703-.6581 1.2701-.8711.0238-.4663-.0079-.8751-.0946-1.2262-.0936-.3786-.2798-.722-.5587-1.0305l-2.1587.5445-.3315-1.3414 1.4799-.3733c-.7903-.9254-1.2785-1.7638-1.4643-2.5156-.2698-1.0916-.0907-2.1246.5371-3.099.6386-.977 1.5413-1.6127 2.7079-1.907 1.172-.2956 2.2298-.1515 3.1733.4323.946.5715 1.5691 1.4635 1.8687 2.6758l-1.6996 1.1718c-.2264-.9161-.4778-1.5346-.7539-1.8555-.5401-.6387-1.2573-.8456-2.1512-.6201-.6597.1664-1.1485.52-1.4665 1.0605-.3194.5351-.3964 1.1374-.231 1.8067.1383.5595.6252 1.2878 1.4606 2.1843.015.0137.0323.0312.0521.0524.0195.0213.0452.0484.0765.0813ZM210.952 14.6623l2.462-.6208.331 1.3414-1.913.4827c.28.5237.447.8955.501 1.1149.062.2523.091.7084.086 1.3681l.133.0103c.189.0164.363.0324.52.048.158.0157.302.0304.432.044.732.1011 1.25.1131 1.556.0361.234-.0591.418-.193.552-.4016.071-.1111.142-.2603.215-.4476.072-.1873.148-.4161.226-.6863l1.748.538c-.171.8767-.433 1.5285-.785 1.9552-.355.4391-.848.7385-1.48.8979-.458.1156-1.196.1297-2.214.0425-.997-.1214-1.678-.1361-2.043-.044-.3.0756-.52.2068-.659.3934-.139.1867-.261.5378-.365 1.0536l-1.841-.4186c.305-.9452.579-1.5709.822-1.877.28-.3677.703-.6581 1.27-.8711.024-.4663-.008-.8751-.094-1.2262-.094-.3786-.28-.7221-.559-1.0305l-2.159.5445-.331-1.3414 1.48-.3733c-.791-.9254-1.279-1.7639-1.465-2.5157-.269-1.0916-.09-2.1245.537-3.09891.639-.97702 1.542-1.61274 2.708-1.90699 1.172-.29564 2.23-.15153 3.174.4323.946.57144 1.569 1.46342 1.868 2.6758l-1.699 1.1718c-.227-.9162-.478-1.5346-.754-1.8555-.54-.63877-1.258-.84562-2.151-.62015-.66.1664-1.149.52-1.467 1.06055-.319.5351-.396 1.1374-.231 1.8067.138.5595.625 1.2877 1.461 2.1843.015.0137.032.0311.052.0524.019.0213.045.0484.076.0812Z"
    fill="#E4E9F9" />
  <path d="M235.305 206.208c4.093-34.245 17.87-53.985 30.317-48.628 10.183 4.38 4.931 23.445-10.936 48.603"
    fill="#fff" />
  <path
    d="M235.401 206.234c1.541-10.09 3.339-20.078 7.22-29.573 2.576-6.293 6.086-13.075 11.714-17.163 3.811-2.769 9.214-3.776 13.135-.589 4.579 3.716 3.329 11.056 2.044 15.995-2.923 11.232-9.088 21.331-14.958 31.204-.1.171.156.312.261.151 3.409-5.135 6.447-10.568 9.163-16.101 2.119-4.314 4.042-8.76 5.413-13.371 1.526-5.12 3.213-12.461-.562-17.062-3.028-3.685-8.501-3.917-12.513-1.898-5.744 2.895-9.534 9.062-12.241 14.66-2.294 4.743-4.012 9.752-5.377 14.837-1.652 6.157-2.932 12.526-3.495 18.879-.005.116.181.141.196.031Z"
    fill="#ADBBF9" />
  <g filter="url(#a)">
    <path
      d="M107.231 201.2c-4.404-.051-7.9379-4.136-7.892-9.126l1.499-162.9006c.046-4.9903 3.654-8.9947 8.059-8.9445l81.257.9257c4.405.0501 7.938 4.1359 7.892 9.1261l-1.499 162.9003c-.046 4.99-3.654 8.994-8.059 8.944l-81.257-.925Z"
      fill="#fff" />
    <path
      d="M189.433 24.6839c3.278 0 5.926 3.0306 5.926 6.781V194.701c0 3.75-2.648 6.781-5.926 6.781h-80.62c-3.278 0-5.927-3.031-5.927-6.781V31.4649c0-3.7504 2.649-6.781 5.927-6.781h80.62Zm0-4.5459h-80.62c-5.463 0-9.8999 5.0763-9.8999 11.3269V194.701c0 6.25 4.4369 11.327 9.8999 11.327h80.62c5.463 0 9.9-5.077 9.9-11.327V31.4649c0-6.2506-4.437-11.3269-9.9-11.3269Z"
      fill="#3629B7" />
  </g>
  <path
    d="M118.997 26.115v-2.8786h58.707v3.4183c-.824 1.871-3.948 2.5787-5.407 2.6986-14.505.06-44.442.1439-48.15 0-3.708-.1439-4.978-2.2189-5.15-3.2383Z"
    fill="#3629B7" />
  <path d="m265.622 157.58-20.365 48.608M73.9209 152.274l18.196 54.045" stroke="#ADBBF9" stroke-miterlimit="10"
    stroke-linejoin="round" />
  <path
    d="M236.827 206.273c8.043-17.102 24.271-56.15 12.05-69.994-6.708-7.603-18.989 1.731-25.501 18.496-6.186 15.919-10.816 32.312-14.652 51.272"
    fill="#fff" />
  <path
    d="M236.957 206.349c4.213-8.885 7.999-18.008 11.056-27.357 3.149-9.636 6.026-20.088 5.388-30.328-.392-6.278-3.364-16.458-11.553-15.154-4.434.71-8.149 4.204-10.901 7.532-4.037 4.888-6.643 10.597-8.857 16.493-5.91 15.733-10.233 31.994-13.577 48.457-.055.267.357.383.407.111 2.857-14.067 6.412-27.992 11.096-41.565 2.185-6.324 4.369-12.768 7.883-18.487 2.656-4.32 6.146-8.72 10.76-11.046 3.58-1.802 7.507-1.585 10.218 1.576 2.546 2.971 3.635 6.933 4.022 10.754.989 9.717-1.592 19.77-4.434 28.979-3.163 10.235-7.255 20.173-11.774 29.879-.085.182.181.338.266.156Z"
    fill="#ADBBF9" />
  <path d="m245.257 133.893-21.515 72.426" stroke="#ADBBF9" stroke-miterlimit="10" stroke-linejoin="round" />
  <path d="M251.031 206.209c10.605-21.558 19.813-27.262 28.459-25.54 6.723 1.339 7.773 11.297-6.437 25.525"
    fill="#fff" />
  <path
    d="M251.112 206.259c3.283-5.865 6.251-11.826 10.619-16.997 2.696-3.192 5.925-6.227 9.886-7.743 2.762-1.052 6.402-1.48 9.184-.236 3.103 1.384 3.62 4.928 3.007 7.944-1.36 6.686-6.432 12.022-10.86 16.866-.131.146.07.347.216.216 4.514-4.194 9.012-9.752 10.74-15.793.843-2.95.959-6.701-1.662-8.811-2.285-1.832-5.94-1.777-8.651-1.173-3.942.881-7.316 3.404-10.093 6.248-2.239 2.291-4.177 4.874-5.939 7.542-2.471 3.736-4.821 7.718-6.603 11.841-.06.106.095.207.156.096Z"
    fill="#ADBBF9" />
  <path d="m278.651 180.814-16.203 25.379" stroke="#ADBBF9" stroke-miterlimit="10" stroke-linejoin="round" />
  <path d="M23.1587 206.344H303.103" stroke="#849CF4" stroke-miterlimit="10" />
  <path
    d="m287.679 192.334.873 14.368-.467 4.521-17.086-.091c-.432 0-.778-.352-.778-.785 0-.322.201-.614.502-.73l7.622-3.514-1.723-14.953"
    fill="#FFCBBD" />
  <path
    d="M269.447 210.941c.181-.569.512-1.203.849-1.349l8.084-3.489c4.453 1.812 10.222.428 10.222.428l.442 6.102c0 .201-.165.362-.366.362l-19.09-.101c-.402-.005-.146-1.938-.141-1.953Z"
    fill="#FF4267" />
  <path
    d="M276.627 206.45c.452.594.834 1.239 1.14 1.918M275.608 207.059c.467.65.658 1.027.939 1.632M274.75 207.508c.316.427.632 1.022.878 1.495M288.934 211.676l-19.572-.106M288.758 208.756s-4.534.03-4.941 2.89M271.947 208.877s1.306 1.863 1.562 2.719"
    stroke="#B22B19" stroke-width=".75" stroke-miterlimit="10" />
  <path
    d="M274.253 137.115s-2.455 20.224-1.517 34.909c.939 14.686 2.295 31.728 2.295 31.728h14.852s-1.923-25.218-1.712-37.019c.236-13.08 4.223-29.613 4.223-29.613"
    fill="#3629B7" />
  <path d="M286.87 203.747s-1.923-25.218-1.712-37.019c.236-13.08 4.223-29.613 4.223-29.613" stroke="#121649"
    stroke-width=".75" stroke-miterlimit="10" />
  <path
    d="m307.19 173.086 13.773 4.441 4.157 1.812-5.252 16.302c-.13.413-.572.639-.984.503-.306-.1-.522-.377-.542-.704l-1.034-8.348-14.3-4.662"
    fill="#FFCBBD" />
  <path
    d="M319.216 197.071c-.487-.343-.989-.856-1.024-1.219l-.874-8.78c3.068-3.71 3.494-9.641 3.494-9.641l5.935 1.425c.191.06.296.267.236.458l-5.869 18.215c-.126.378-1.883-.448-1.898-.458Z"
    fill="#FF4267" />
  <path
    d="M317.117 188.849c.698-.251 1.431-.422 2.169-.508M317.388 190.008c.763-.252 1.175-.318 1.833-.403M317.554 190.965c.502-.177 1.165-.293 1.687-.389M325.808 178.67l-6.02 18.668M322.981 177.955s-1.34 4.339 1.256 5.593M318.01 194.05s2.164-.685 3.058-.67"
    stroke="#B22B19" stroke-width=".75" stroke-miterlimit="10" />
  <path
    d="M298.434 137.764s1.336 5.75 1.336 8.217c0 1.812-.718 3.046-1.1 4.37-.165.569-.256 1.148-.281 1.737-.115 2.643-.266 10.064 1.386 13.593 2.028 4.334 18.919 10.089 18.919 10.089l-4.283 12.934s-25.858-6.515-29.081-14.449c-4.499-11.071-3.214-36.486-3.214-36.486"
    fill="#3629B7" />
  <path
    d="M288.442 177.955c-1.491-1.183-2.601-2.427-3.118-3.705-4.498-11.071-3.213-36.486-3.213-36.486M296.24 137.286s1.516 7.235 1.516 9.702c0 1.847-.748 3.146-1.125 4.445-.15.524-.241 1.062-.276 1.611-.16 2.613-.447 10.18 1.401 13.649 2.556 4.803 20.25 11.126 20.25 11.126"
    stroke="#121649" stroke-width=".75" stroke-miterlimit="10" />
  <path
    d="M280.002 139.179s-.226 5.221.502 5.845c.728.625 1.436 1.042 1.436 1.042M316.559 175.005l-4.714 12.999M274.83 201.184h14.867M292.167 138.162s.924 3.333 5.052 4.315M273.776 141.898s3.725-1.093 4.87-3.731"
    stroke="#121649" stroke-width=".75" stroke-miterlimit="10" />
  <path d="m282.764 97.8357-.668 4.6873s-.06 1.299 2.46 2.2c3.048 1.097 4.901-1.259 4.901-1.259l-.201-4.7423"
    fill="#FFCBBB" />
  <path
    d="M282.392 91.6232s-3.239 5.4272-.99 7.5971c2.039 1.9687 6.523.7351 6.934.0453.407-.6897 2.963-6.7512 1.567-7.587-2.49-1.4852-6.126-2.3914-7.511-.0554Z"
    fill="#FFCBBB" />
  <path d="M282.422 100.233s2.194.706 4.223-.182" stroke="#EF977F" stroke-miterlimit="10" />
  <path
    d="M281.849 88.094c.427-3.207 4.303-.8056 5.88.6544.472.438 3.239 1.2536 3.69 1.7168.452.4632.814 1.0321.934 1.6715.106.5588.015 1.1327-.12 1.6815-.241.9918-.633 1.9383-1.019 2.8797-.422 1.0271-1.18 3.0711-2.642 2.8596-.281-.0402-.592-.0956-.778-.3121-.186-.2165-.191-.5286-.16-.8106.05-.4581.19-.9062.401-1.314-.301.0806-.612.2669-.904.1511-.095-.0403-.14-.1309-.195-.2215-.191-.3122.04-2.3864 1.004-3.202-1.391-.6595-2.48-.7199-3.896-1.319-1.14-.4834-1.632-1.0674-2.039-1.6161-.592-.7854-.286-1.8477-.156-2.8193Z"
    fill="#4A1A1A" />
  <path
    d="M287.689 96.9345c.356-.4984.898-1.0723 1.421-.5487.185.1863.236.4934.256.7904.065.9767-.924 2.2252-1.783 1.8829-.421-.1661-.537-.7401-.612-1.2133"
    fill="#FFCBBB" />
  <path d="M283.105 94.0195s-1.401 1.3794-1.401 1.8476c0 .4682 1.049.7602 1.049.7602" stroke="#F7A794" stroke-width=".5"
    stroke-miterlimit="10" />
  <path d="m281.177 96.7936 2.51.9415s-.582 1.4902-2.088.8055c-1.075-.4884-.422-1.747-.422-1.747Z" fill="#fff" />
  <path
    d="M282.04 93.2494c-.075.1108-.145.2215-.211.3424-.125.2265.226.4279.342.2013.07-.1309.13-.2668.186-.4078.075-.2013-.211-.2869-.317-.1359Z"
    fill="#212237" />
  <path d="M283.12 92.7718s-.311-.7012-1.059-.3733" stroke="#212237" stroke-width=".5" stroke-miterlimit="10"
    stroke-linecap="round" stroke-linejoin="round" />
  <path
    d="M285.174 94.7596c-.07.1158-.131.2316-.191.3524-.11.2316.241.433.342.2014.06-.1359.115-.2769.165-.4178.061-.1964-.216-.3021-.316-.136Z"
    fill="#212237" />
  <path d="M285.279 93.6016s.763-.0855 1.315.9214" stroke="#212237" stroke-width=".5" stroke-miterlimit="10"
    stroke-linecap="round" stroke-linejoin="round" />
  <path
    d="M271.903 77.3199c-.206-2.7237.161-10.4315-.316-10.6329-.477-.2014-.673 2.4065-1.034 2.1699-.362-.2417-.332-4.2794-.859-4.3549-.718-.1007-.527 4.0327-.527 4.0327s-.432-4.521-1.085-4.4304c-.457.0654-.286 3.5292-.386 4.8633-.076-1.46-.502-4.1736-.979-4.093-.472.0755-.382 2.8042-.422 4.6166-.08-1.1327-.306-3.6097-.748-3.5594-.442.0504-.578 6.4895-.583 11.9167"
    fill="#FFCBBD" />
  <path
    d="M271.22 104.587s-2.917-6.1221-4.739-13.256c-1.823-7.139-1.502-16.4176-1.502-16.4176l6.849 1.158s.311 12.9537 8.109 25.8116"
    fill="#FFCBBD" />
  <path d="M266.39 69.8034c.562.8609 1.311 1.8729 1.275 3.5544M270.498 69.4762c-.658.589-1.371 2.1749-1.03 2.9905"
    stroke="#F7A794" stroke-miterlimit="10" />
  <path d="M282.191 101.858c-2.038 0-5.217-6.5347-5.217-6.5347l-8.184 6.1017s2.616 8.161 7.049 13.332" fill="#FF4267" />
  <path d="m277.657 96.6274-8.34 6.2776" stroke="#B22B19" stroke-width=".75" stroke-miterlimit="10" />
  <path opacity=".3"
    d="m300.913 66.7432-26.271 16.0607c-1.48-.7389-2.829-1.6687-4.025-2.7489l29.755-17.939c.374 1.4939.561 3.0474.541 4.6272ZM294.447 52.604l-29.432 17.7636c-.08-.3699-.149-.7425-.205-1.1181l28.604-17.4565c.355.2587.7.5286 1.033.811ZM298.775 57.9669l-30.977 18.8609c-.247-.3598-.481-.7284-.7-1.1056l31.053-18.8362c.22.3532.428.7132.624 1.0809Z"
    fill="#fff" />
  <path opacity=".2"
    d="M296.843 69.5796 278.78 80.5107c-1.67-.4762-3.192-1.2313-4.528-2.2035l22.371-13.5386c.335 1.5522.419 3.1739.22 4.811ZM289.917 55.3607 268.374 68.396c-.061-.4559-.099-.919-.114-1.3824l20.384-12.3359c.437.2064.863.4352 1.273.683ZM294.837 60.2846l-23.996 14.5216c-.235-.3403-.455-.6895-.662-1.0502l23.971-14.5069c.243.3341.473.6794.687 1.0355Z"
    fill="#FBE6A1" />
  <path
    d="M300.38 70.8919c-2.404 9.7535-12.241 15.7085-21.974 13.2983-1.329-.3295-2.588-.7975-3.765-1.3863-1.48-.7389-2.829-1.6687-4.025-2.7489-1.067-.964-2.012-2.0495-2.818-3.2272-.247-.3597-.481-.7283-.7-1.1055-.967-1.6542-1.675-3.4608-2.084-5.3543-.08-.37-.149-.7426-.205-1.1181-.348-2.2937-.26-4.6931.33-7.0849.054-.2185.112-.4361.176-.6523 2.671-9.3655 12.286-15.0016 21.798-12.6463 2.341.5796 4.462 1.5907 6.301 2.9267.355.2583.7.5282 1.033.8106 1.458 1.231 2.705 2.6791 3.704 4.2817.22.3531.428.7132.624 1.0809.696 1.3069 1.235 2.6998 1.597 4.149.374 1.4939.561 3.0474.541 4.6273-.015 1.1536-.14 2.321-.384 3.4898-.044.2215-.095.4413-.149.6595Z"
    fill="#FDD462" />
  <path
    d="M296.844 70.0166c-.054.2166-.113.4318-.174.6445-2.184 7.4005-9.84 11.8537-17.389 9.9842-7.55-1.8695-12.256-9.3836-10.751-16.9526.045-.2166.093-.4348.146-.6514 1.919-7.784 9.798-12.5518 17.564-10.6287 7.766 1.9228 12.523 9.8197 10.604 17.604Z"
    fill="#F37E00" />
  <path
    d="M296.671 70.661c-2.185 7.4006-9.84 11.8537-17.39 9.9843-.169-.0418-.335-.0873-.501-.1347-1.67-.4762-3.191-1.2312-4.528-2.2035-1.336-.9726-2.486-2.1601-3.411-3.501-.235-.3403-.456-.6895-.663-1.0502-.935-1.6381-1.558-3.4559-1.804-5.36-.061-.4558-.099-.9189-.114-1.3823-.039-1.0944.05-2.2072.27-3.3206 2.185-7.4006 9.84-11.8557 17.39-9.9862.955.2366 1.865.5641 2.724.9712.437.2064.862.4352 1.272.683 1.676 1.0104 3.107 2.3411 4.233 3.8884.243.334.473.6793.688 1.0354.834 1.3771 1.442 2.8924 1.786 4.4841.335 1.5519.419 3.1735.22 4.8109-.042.3591-.101.7208-.172 1.0812Z"
    fill="#F7A219" />
  <path
    d="m282.745 75.0227-.578 2.3454-2.973-.736.552-2.2397c-2.077-.6487-3.981-1.7256-5.053-2.8207l2.498-3.2376c1.188 1.1684 2.913 2.1561 4.536 2.558 1.413.3498 1.992.1794 2.117-.3278.458-1.8593-8.07-2.3793-6.711-7.8943.589-2.3875 2.812-3.9667 6.389-3.5967l.568-2.303 2.972.736-.557 2.2608c1.524.5342 2.942 1.3116 3.977 2.2851l-2.387 3.2423c-1.272-1.0996-2.554-1.798-3.84-2.1166-1.454-.3601-2.022-.0524-2.147.4545-.438 1.775 8.085 2.3161 6.741 7.7672-.562 2.2829-2.696 3.8617-6.104 3.6231Z"
    fill="#F37E00" />
  <path
    d="m282.85 74.2209-.578 2.3454-2.972-.736.552-2.2397c-2.077-.6487-3.981-1.7257-5.053-2.8207l2.498-3.2377c1.188 1.1688 2.913 2.1562 4.536 2.5581 1.412.3498 1.991.179 2.116-.3279.459-1.8592-8.069-2.3793-6.71-7.8939.588-2.3875 2.812-3.9667 6.389-3.5967l.568-2.303 2.972.736-.557 2.2608c1.523.5342 2.942 1.3116 3.977 2.2851l-2.387 3.2427c-1.272-1.0997-2.554-1.7981-3.84-2.1167-1.455-.3601-2.023-.0523-2.148.4545-.437 1.775 8.085 2.3161 6.742 7.7676-.563 2.2818-2.697 3.8607-6.105 3.6221Z"
    fill="#FDD462" />
  <path
    d="m223.014 53.4868.618 1.4059-1.781.7881-.591-1.3426c-1.297.4829-2.673.6829-3.637.5495l.002-2.6034c1.052.1253 2.303-.05 3.276-.4803.846-.3743 1.071-.686.938-.9899-.49-1.1146-4.985 1.9474-6.438-1.3583-.63-1.4312-.123-3.0928 1.821-4.3007l-.607-1.3806 1.782-.7881.596 1.3553c.974-.3249 1.99-.4865 2.888-.3998l.055 2.5627c-1.066-.0577-1.982.0904-2.753.4312-.872.3857-1.039.7619-.905 1.0659.468 1.064 4.968-1.9854 6.405 1.2825.601 1.3679.139 2.9944-1.669 4.2026ZM122.595 12.2039l.618 1.4059-1.782.788-.59-1.3426c-1.297.483-2.673.6829-3.637.5496l.002-2.6034c1.051.1252 2.302-.05 3.275-.4804.847-.3743 1.072-.68593.938-.98985-.49-1.11461-4.984 1.94745-6.438-1.35834-.629-1.43121-.122-3.09276 1.822-4.30069l-.607-1.38057 1.782-.78807.596 1.35527c.974-.32495 1.989-.48651 2.888-.39984l.055 2.56277c-1.067-.05772-1.983.09036-2.754.43117-.872.38573-1.038.76193-.905 1.06584.468 1.06401 4.968-1.98537 6.405 1.28256.602 1.36792.14 2.99435-1.668 4.20265Z"
    fill="#E4E9F9" />
  <path
    d="M167.34 84.3889c-.4 10.0374-8.844 17.8431-18.863 17.4331-1.369-.057-2.696-.263-3.967-.604-1.597-.427-3.106-1.068-4.493-1.8863-1.24-.7305-2.383-1.6046-3.409-2.5967-.314-.303-.616-.6173-.907-.9428-1.279-1.4268-2.335-3.0549-3.114-4.8281-.153-.3464-.295-.6976-.426-1.0542-.8-2.1775-1.195-4.5458-1.097-7.0072.009-.2249.023-.4498.042-.6744.74-9.7108 9.03-17.1597 18.821-16.7588 2.41.0987 4.691.6641 6.76 1.6044.399.182.791.3773 1.175.5871 1.675.9137 3.187 2.0826 4.486 3.4524.287.3018.563.6129.828.9339.944 1.1409 1.751 2.3976 2.397 3.7447.665 1.3887 1.16 2.8733 1.457 4.425.216 1.1332.328 2.302.323 3.496.001.2259-.004.4513-.013.6759Z"
    fill="#FDD462" />
  <path
    d="M163.7 84.2401c-.009.223-.024.4457-.041.6662-.657 7.6882-7.264 13.5854-15.036 13.2671-7.771-.3183-13.887-6.7368-13.93-14.4539.001-.2212.004-.4445.013-.6674.319-8.0106 7.083-14.2608 15.076-13.9333 7.994.3272 14.237 7.1104 13.918 15.1213Z"
    fill="#F37E00" />
  <path
    d="M163.659 84.9064c-.657 7.6882-7.265 13.5854-15.036 13.2671-.174-.007-.346-.0183-.518-.0315-1.731-.132-3.373-.5667-4.877-1.2513-1.504-.685-2.869-1.6178-4.044-2.7462-.299-.2863-.584-.5842-.86-.8961-1.244-1.4175-2.219-3.0734-2.842-4.8895-.151-.4344-.281-.8805-.389-1.3315-.257-1.0643-.393-2.1723-.4-3.3074.657-7.6883 7.264-13.5874 15.035-13.2691.983.0404 1.94.179 2.863.4057.47.1145.932.2534 1.384.414 1.844.6542 3.513 1.6709 4.926 2.961.305.2786.6.5708.881.8767 1.094 1.1819 1.994 2.5445 2.649 4.035.639 1.4533 1.047 3.0252 1.18 4.6693.03.3603.046.7263.048 1.0938Z"
    fill="#F7A219" />
  <path
    d="m150.89 91.9706-.096 2.4137-3.06-.1253.092-2.3049c-2.165-.2193-4.246-.8927-5.516-1.7506l1.799-3.6727c1.398.9066 3.286 1.5286 4.957 1.5969 1.453.0597 1.986-.2233 2.007-.7453.077-1.9134-8.382-.7136-8.156-6.3891.098-2.457 1.96-4.4498 5.538-4.8043l.095-2.37 3.059.1253-.092 2.3266c1.599.2179 3.145.6952 4.354 1.4416l-1.689 3.655c-1.467-.8223-2.862-1.2497-4.186-1.3041-1.497-.0612-1.992.3541-2.013.8758-.073 1.8266 8.385.6485 8.161 6.2583-.093 2.3493-1.867 4.3238-5.254 4.7731Z"
    fill="#F37E00" />
  <path
    d="m150.833 91.1638-.096 2.4137-3.06-.1252.092-2.305c-2.165-.2192-4.246-.8927-5.515-1.7506l1.798-3.6726c1.398.9069 3.286 1.5285 4.957 1.5969 1.453.0597 1.986-.2237 2.007-.7454.077-1.9134-8.382-.7136-8.156-6.3887.098-2.4571 1.96-4.4498 5.538-4.8043l.095-2.37 3.059.1252-.092 2.3266c1.599.218 3.145.6953 4.354 1.4416l-1.689 3.6553c-1.466-.8223-2.862-1.2496-4.186-1.304-1.497-.0612-1.992.3541-2.013.8757-.073 1.8267 8.385.6486 8.162 6.2587-.094 2.3483-1.868 4.3228-5.255 4.7721Z"
    fill="#FDD462" />
  <path
    d="M303.359 73.9871c-.436-2.9956-1.576-10.054-2.078-10.1698-.502-.1158-.713 1.5658-.507 2.2505-.322-1.2838-1.205-4.0881-1.738-4.0679-.723.0252.186 4.0628.186 4.0628s-1.215-4.375-1.838-4.1685c-.441.146.337 3.5241.467 4.8583-.326-1.4198-1.22-4.0176-1.677-3.8565-.452.1611.116 2.8294.392 4.6217-.276-1.1026-.929-3.499-1.356-3.3731-.426.1258.683 5.6638 1.346 11.1867"
    fill="#FFCBBD" />
  <path
    d="M301.943 102.155s1.813-6.5346 2.375-13.8799c.563-7.3454-1.355-16.4276-1.355-16.4276l-6.548 2.3309s1.933 12.8078-3.524 26.8336"
    fill="#FFCBBD" />
  <path
    d="M282.191 101.858s.397 1.148 2.656 1.264c2.907.151 4.524-1.264 4.524-1.264s8.666 1.153 9.369 10.648c.809 10.935 1.03 26.295 1.03 26.295h-27.028s.18-17.54.748-25.912c.542-8.02 8.701-11.031 8.701-11.031Z"
    fill="#FF4267" />
  <path d="M298.72 113.705c3.259-8.499 4.418-14.9832 4.418-14.9832l-8.676-4.2139s-2.063 5.7751-5.086 7.3451"
    fill="#FF4267" />
  <path
    d="m293.759 96.1793 9.003 4.3197M272.736 137.301h27.003M298.956 113.08s-1.099 2.361-1.215 3.549M275.493 106.837s-1.642 2.789-2.003 6.052M281.162 101.425s.462 3.162 3.976 3.162c4.318 0 5.172-3.162 5.172-3.162"
    stroke="#B22B19" stroke-width=".75" stroke-miterlimit="10" />
  <path
    d="M300.773 66.0678c-.005-.0302.04.0503.055.0805l.066.1209.11.2467c.076.1661.131.3322.186.5034.105.3424.186.6847.221 1.0522-.111-.151-.191-.3121-.271-.4732-.081-.1611-.136-.3323-.191-.5035-.05-.1711-.1-.3423-.131-.5236l-.045-.2668-.01-.1359-.005-.0705c-.005-.0101.005-.0856.015-.0302Z"
    fill="#EF977F" />
  <path
    d="M162.515 126.673c7.003 7.413 6.684 19.14-.72 26.189-1.011.964-2.101 1.789-3.251 2.48-1.445.868-2.977 1.517-4.556 1.957-1.409.389-2.855.607-4.3.655-.441.015-.884.014-1.328-.004-1.945-.075-3.874-.458-5.715-1.142-.358-.134-.716-.281-1.068-.435-2.149-.958-4.148-2.35-5.867-4.167-.157-.164-.312-.336-.459-.509-6.528-7.431-6.056-18.789 1.179-25.68 1.78-1.696 3.808-2.967 5.958-3.816.416-.162.836-.311 1.259-.446 1.851-.579 3.772-.859 5.688-.839.421.004.844.024 1.264.055 1.497.118 2.981.417 4.418.902 1.481.497 2.91 1.188 4.247 2.071.977.647 1.903 1.393 2.766 2.242.165.158.326.321.485.487Z"
    fill="#FDD462" />
  <path opacity=".3"
    d="m159.264 123.944-.72 31.398c-1.446.868-2.977 1.518-4.556 1.957l1.032-35.424c1.48.493 2.908 1.183 4.244 2.069ZM143.648 121.752l-1.004 35.051c-.358-.134-.716-.28-1.069-.435l.811-34.171c.417-.163.836-.312 1.262-.445ZM150.6 120.969l-.916 36.979c-.442.015-.884.014-1.328-.005l.979-37.034c.423.008.845.029 1.265.06Z"
    fill="#fff" />
  <path
    d="M159.824 129.238c.156.164.307.332.455.503 5.115 5.934 4.712 14.963-1.029 20.432-5.741 5.468-14.738 5.397-20.372-.045-.16-.159-.32-.318-.476-.482-5.59-5.916-5.332-15.308.576-20.933 5.904-5.63 15.258-5.394 20.846.525Z"
    fill="#F37E00" />
  <path
    d="M160.278 129.736c5.115 5.934 4.713 14.963-1.028 20.432-.129.12-.257.241-.39.355-1.323 1.173-2.803 2.071-4.368 2.686-1.563.618-3.208.955-4.862 1.015-.419.018-.841.014-1.261-.005-1.912-.093-3.805-.552-5.565-1.388-.423-.2-.838-.418-1.243-.658-.954-.565-1.857-1.253-2.686-2.052-5.115-5.934-4.713-14.963 1.029-20.431.727-.692 1.504-1.296 2.323-1.81.417-.262.845-.504 1.281-.722 1.782-.887 3.703-1.389 5.642-1.51.417-.027.838-.035 1.262-.022 1.632.036 3.26.345 4.806.92 1.51.563 2.939 1.378 4.227 2.448.289.237.567.484.833.742Z"
    fill="#F7A219" />
  <path opacity=".2"
    d="m159.451 128.998-.592 21.528c-1.324 1.173-2.804 2.07-4.369 2.686l.734-26.663c1.509.564 2.938 1.378 4.227 2.449ZM143.513 127.162l-.707 25.672c-.423-.2-.838-.419-1.243-.659l.668-24.295c.415-.259.843-.502 1.282-.718ZM150.416 125.63l-.786 28.6c-.419.017-.841.013-1.261-.005l.784-28.57c.421-.028.84-.038 1.263-.025Z"
    fill="#FBE6A1" />
  <path fill-rule="evenodd" clip-rule="evenodd"
    d="m147.7 139.396 4.045.182-.104 2.201-3.144-.141c.189.928.276 1.573.259 1.933-.02.414-.183 1.124-.491 2.129l.199.077c.282.112.539.216.773.312.233.097.447.185.641.266 1.072.49 1.859.747 2.36.769.385.018.727-.102 1.027-.36.159-.137.336-.332.533-.585.195-.252.415-.567.657-.944l2.428 1.625c-.661 1.26-1.358 2.135-2.09 2.626-.742.507-1.632.738-2.671.691-.753-.034-1.887-.351-3.403-.951-1.469-.644-2.503-.979-3.104-1.006-.492-.022-.887.077-1.185.299-.298.221-.643.701-1.037 1.441l-2.624-1.485c.896-1.303 1.6-2.133 2.11-2.489.595-.434 1.374-.683 2.338-.748.248-.701.386-1.34.413-1.916.029-.621-.099-1.231-.385-1.831l-3.547-.159.103-2.201 2.432.109c-.787-1.777-1.152-3.281-1.094-4.515.084-1.791.828-3.287 2.231-4.487 1.421-1.199 3.09-1.755 5.007-1.669 1.926.086 3.477.792 4.654 2.117 1.186 1.308 1.732 2.956 1.639 4.946l-3.131 1.009c.07-1.503-.032-2.563-.308-3.18-.535-1.224-1.538-1.869-3.007-1.935-1.084-.049-1.992.266-2.724.946-.731.671-1.123 1.555-1.175 2.654-.043.918.37 2.254 1.239 4.007.017.028.035.062.056.104.02.041.047.094.08.159Z"
    fill="#F37E00" />
  <path fill-rule="evenodd" clip-rule="evenodd"
    d="m146.958 139.318 4.045.182-.104 2.201-3.144-.142c.19.929.276 1.574.259 1.934-.019.414-.183 1.124-.491 2.129l.199.077c.282.112.54.216.773.312.233.096.447.185.641.266 1.072.49 1.859.746 2.36.769.385.017.727-.103 1.027-.36.159-.137.336-.332.533-.585.195-.253.415-.568.657-.945l2.428 1.625c-.661 1.261-1.358 2.136-2.09 2.626-.742.508-1.632.739-2.671.692-.753-.034-1.887-.351-3.403-.952-1.469-.643-2.503-.978-3.103-1.005-.493-.023-.888.077-1.186.298-.298.221-.643.702-1.037 1.442l-2.624-1.485c.896-1.304 1.6-2.134 2.11-2.49.595-.433 1.374-.682 2.338-.747.248-.701.386-1.34.413-1.916.029-.622-.099-1.232-.385-1.831l-3.547-.16.103-2.201 2.432.11c-.787-1.777-1.152-3.282-1.094-4.515.084-1.792.828-3.287 2.231-4.487 1.421-1.199 3.09-1.756 5.007-1.67 1.926.087 3.477.793 4.654 2.118 1.186 1.307 1.732 2.956 1.639 4.945l-3.131 1.01c.071-1.504-.032-2.564-.308-3.181-.535-1.223-1.538-1.869-3.007-1.935-1.084-.049-1.992.267-2.724.947-.731.67-1.123 1.555-1.175 2.653-.043.918.37 2.254 1.239 4.007.017.028.035.063.056.104.02.042.047.095.08.16Z"
    fill="#FDD462" />
  <path
    d="m236.838 191.553.471 14.912-.482 4.692-17.729-.095c-.446 0-.808-.368-.808-.816 0-.337.211-.639.522-.755l7.908-3.645-1.195-15.516"
    fill="#FFCBBD" />
  <path
    d="M217.487 210.865c.185-.589.532-1.248.878-1.399l8.385-3.62c4.625 1.878 10.605.443 10.605.443l.457 6.333c0 .212-.171.378-.382.378l-19.808-.106c-.407-.01-.14-2.014-.135-2.029Z"
    fill="#3629B7" />
  <path
    d="M224.938 206.203c.471.615.868 1.284 1.179 1.989M223.878 206.838c.487.674.683 1.067.974 1.691M222.99 207.301c.331.443.652 1.062.914 1.556M237.706 211.625l-20.305-.105M237.525 208.595s-4.704.035-5.126 3M220.083 208.721s1.355 1.928 1.621 2.819"
    stroke="#121649" stroke-width=".75" stroke-miterlimit="10" />
  <path
    d="M234.783 132.961s2.16 3.645 2.782 6.359c.989 4.32 0 8.74 0 8.74l-.045 52.127h-13.165s-2.922-60.072-1.622-67.84"
    fill="#3629B7" />
  <path d="M226.363 200.187s-2.922-60.072-1.622-67.84" stroke="#121649" stroke-width=".75" stroke-miterlimit="10" />
  <path
    d="m222.301 185.683 5.98 13.658 1.295 4.531-16.489 6.54c-.416.166-.888-.04-1.054-.458-.126-.312-.04-.669.206-.896l5.985-6.338-6.874-13.951"
    fill="#FFCBBD" />
  <path
    d="M211.521 210.83c-.046-.614.03-1.359.296-1.626l6.437-6.494c4.986.015 10.007-3.555 10.007-3.555l2.776 5.704c.075.197-.02.413-.211.494l-18.422 7.305c-.381.151-.883-1.808-.883-1.828Z"
    fill="#3629B7" />
  <path
    d="M216.703 203.726c.662.393 1.28.866 1.837 1.405M215.959 204.708c.703.443 1.03.735 1.532 1.208M215.302 205.468c.472.292 1.004.74 1.421 1.103M230.57 203.983l-18.883 7.492M229.275 201.239s-4.353 1.788-3.64 4.703M213.132 207.875s1.974 1.284 2.556 2.009"
    stroke="#121649" stroke-width=".75" stroke-miterlimit="10" />
  <path
    d="M212.089 141.455c-6.764 16.669-6.884 18.431-7.999 26.567-1.145 8.347 11.363 32.92 11.363 32.92l12-5.311s-7.958-22.484-7.446-26.351c.949-7.113 9.133-19.247 9.133-19.247s3.886-3.086 4.735-7.184c.843-4.098-1.015-8.392-1.015-8.392"
    fill="#3629B7" />
  <path
    d="M224.425 143.418c.176-.06 5.387-1.702 5.387-1.702M235.918 140.191l1.713-.549M216.105 140.951s-8.36 18.22-9.505 26.567c-1.144 8.347 11.021 32.236 11.021 32.236M222.793 161.265c2.596-5.729 6.351-11.237 6.351-11.237s3.887-3.086 4.735-7.184"
    stroke="#121649" stroke-width=".75" stroke-miterlimit="10" />
  <path d="m210.949 100.207 3.439 6.006s-2.063 4.476-7.637 2.351l-1.431-3.172 5.629-5.185Z" fill="#FFCBBD" />
  <path
    d="M201.805 96.144s-1.692 7.985 1.255 9.41c1.532.74 5.82.281 6.834-1.355.753-1.218.457-6.9726-.462-7.6724-3.515-2.6682-7.627-.3826-7.627-.3826Z"
    fill="#FFCBBD" />
  <path
    d="M209.271 93.7829c-1.29-2.2555-3.911-1.8074-8.179.6293-.572.3272-1.817.443-1.827 1.1025-.02.866.602 2.2907 1.601 2.5777.668.1913 1.02.1309 1.697-.0302.889-.2064 2.074.151 2.059 1.1982-.005.2719-.085.7756.171.8756.13.051.462.01.602.016.402.015.618.503.568.901-.051.397.2.689.15 1.087-.12.942 1.08 1.974 2.024 2.049.833.066 3.273-.342 4.428-1.918 1.004-1.364.874-3.6701-.798-7.1036-.643-1.3191-2.049-1.7168-2.496-1.3845Z"
    fill="#212237" />
  <path
    d="M204.547 100.489c.271-1.279.929-1.4199 1.501-1.0726.758.4632.593 2.2856.311 2.7236-.567.886-1.25 1.158-1.631.529"
    fill="#FFCBBD" />
  <path d="M205.596 105.891c.879-.73.748-2.13.748-2.13" stroke="#E88872" stroke-width=".5" stroke-miterlimit="10"
    stroke-linejoin="round" />
  <path d="M202.066 99.9602c-.12.2768-.16.6848.065.8608.066.05.141.05.211.005.442-.272-.02-1.4397-.276-.8658Z"
    fill="#28364C" />
  <path d="M201.705 99.0792c.342-.0404.939-.0101 1.295.2724" stroke="#28364C" stroke-width=".75"
    stroke-miterlimit="10" />
  <path d="m203.171 102.9-1.285-.045s-.05 1.586.552 1.616c.668.04.733-1.571.733-1.571Z" fill="#fff" />
  <path
    d="M213.594 104.824s2.998-.771 7.24.468c3.58 1.047 8.134 3.735 11.564 7.39 5.934 6.329 3.198 22.062 3.198 22.062l-7.717-.292s1.21-10.11-2.832-14.162c-4.042-4.053-9.746-5.005-9.746-5.005"
    fill="#ADBBF9" />
  <path
    d="M180.847 126.925c-2.42.675-9.746 1.47-9.861 1.974-.116.503 2.465.256 2.29.649-.176.393-4.118 1.042-4.103 1.576.02.72 4.027-.161 4.027-.161s-1.662.297-1.466.921c.141.438.819.574 2.134.448-.723.161-1.004.514-.849.967.156.448.854.418 1.597.322-.512.116-.904.453-.572.75.432.388 3.419.222 8.716-.68"
    fill="#FFCBBD" />
  <path
    d="M205.972 106.838s2.064.891 4.348 0c2.285-.891 3.274-2.009 3.274-2.009s5.187-.357 11.503 5.976c6.377 6.394 11.337 24.533 11.337 24.533l-26.139 8.811s-4.468-15.879-6.231-23.109c-1.762-7.24 1.908-14.202 1.908-14.202Z"
    fill="#ADBBF9" />
  <path d="M224.755 109.138c5.227 6.117 11.679 26.195 11.679 26.195" stroke="#525BCE" stroke-width=".75"
    stroke-miterlimit="10" />
  <path
    d="M205.972 106.837c-3.444 1.324-6.401 4.672-8.214 8.126-2.972 5.654-4.785 9.757-4.785 9.757l-14.988 2.25.743 8.015s10.173-.302 18.287-1.525c5.764-.871 10.223-12.843 10.223-12.843"
    fill="#ADBBF9" />
  <path
    d="M204.963 107.29s1.657 2.22 5.633.725c3.977-1.495 4.118-3.343 4.118-3.343M205.324 124.735l1.627-3.454M180.325 126.613l.568 8.256M209.813 142.426l26.104-8.649"
    stroke="#525BCE" stroke-width=".75" stroke-miterlimit="10" />
  <path
    d="M107 120.486c.115.076.235.156.356.232 1.17.745 2.365 1.495 3.69 1.888.774.226 1.612.347 2.24.85.256.202.472.418.753.584.075.046.813.323.783.242.111.267.402.398.668.504.03.01.065.025.095.02.036-.005.061-.041.051-.071.095.186.431.272.542.166.105-.1-.161-.574-.161-.574s.181.01.236-.045c.086-.101.106-.237.116-.367.08-1.214-.392-2.452-1.271-3.313"
    fill="#FFCBBD" />
  <path
    d="M115.344 122.993c0 .207.121.418.201.609.085.207.176.403.281.605.05.09.176.025.156-.066-.045-.237-.126-.453-.231-.675-.085-.181-.176-.392-.347-.503-.025-.02-.06 0-.06.03ZM114.088 123.039c.447.488.894.951 1.286 1.485.04.055.145.025.12-.051-.191-.659-.848-1.062-1.32-1.52-.061-.055-.141.025-.086.086Z"
    fill="#F49C8E" />
  <path d="m105.995 212.99-8.9222-91.301M140.73 212.99l-8.922-91.301H97.0728M122.886 212.99l8.922-91.301"
    stroke="#0E32AE" stroke-miterlimit="10" />
  <path
    d="m88.1553 212.99 8.9172-91.301h34.7355M139.299 200.056H89.4155M138.139 188.88H90.5103M137.251 177.391H91.6353M136.137 166.441H92.7051M135.061 155.002H93.7739M133.957 143.67H94.8887M132.656 132.966H95.9731"
    stroke="#0E32AE" stroke-miterlimit="10" />
  <path
    d="M105.061 121.463c3.565.01 7.13.005 10.69-.025-.337-.605-.548-.982-.929-1.365-.472-.468-.834-.745-1.326-.997-1.657-.85-3.514-1.309-5.377-1.329"
    fill="#FFCBBD" />
  <path
    d="M92.6192 96.8288s4.8754 12.7422 6.0904 13.8092c1.2201 1.068 12.8284 6.857 12.8284 6.857l-3.56 7.552s-13.968-5.593-15.9713-7.552c-2.0034-1.958-8.37-9.54-9.0077-17.147"
    fill="#FF4267" />
  <path
    d="m83.3156 180.1-.5021 13.709.4217 4.314 16.3082-.005c.4117 0 .7426-.337.7426-.75 0-.307-.19-.589-.4765-.7l-7.2553-3.388 1.1699-14.263"
    fill="#FFCBBD" />
  <path
    d="M101.025 197.947c-.171-.544-.482-1.153-.804-1.294l-7.697-3.368c-4.2577 1.707-9.7557.357-9.7557.357l-.4519 5.82c0 .192.1557.348.3465.348l18.2161-.005c.387.005.151-1.843.146-1.858Z"
    fill="#FF4267" />
  <path
    d="M94.1961 193.627c-.4368.564-.8033 1.178-1.0945 1.828M95.1601 194.216c-.4519.62-.6326.977-.9038 1.551M95.9778 194.644c-.3063.408-.6075.972-.8435 1.425M82.4219 198.556l18.6781-.005M82.6074 195.772s4.3231.05 4.6997 2.784M98.6445 195.963s-1.2553 1.767-1.5063 2.588"
    stroke="#B22B19" stroke-width=".75" stroke-miterlimit="10" />
  <path
    d="M79.7102 128.556s-1.5716 6.988 1.8075 15.451c0 0 1.6369 8.85 1.7674 18.97.1356 10.321-1.2351 23.471-1.2351 28.384h13.416s1.6469-13.985 1.7925-28.082c.1657-15.788-1.1699-33.611-1.1699-38.212"
    fill="#ADBBF9" />
  <path d="M93.458 191.362s1.6469-14.243 1.7975-28.521c.1607-15.682-1.1749-33.217-1.1749-37.779" stroke="#525BCE"
    stroke-width=".75" stroke-miterlimit="10" />
  <path
    d="m105.995 168.943-.502 13.714.421 4.315 16.309-.005c.411 0 .743-.338.743-.751 0-.307-.191-.589-.477-.699l-7.256-3.389 1.17-14.262"
    fill="#FFCBBD" />
  <path
    d="M123.704 186.785c-.171-.543-.482-1.153-.804-1.293l-7.697-3.369c-4.258 1.707-9.756.358-9.756.358l-.451 5.82c0 .191.155.347.346.347l18.216-.005c.387.005.151-1.837.146-1.858Z"
    fill="#FF4267" />
  <path
    d="M116.875 182.471c-.436.564-.803 1.178-1.094 1.827M117.839 183.055c-.452.619-.632.976-.903 1.55M118.658 183.483c-.306.408-.608.971-.844 1.425M105.101 187.395l18.678-.005M105.287 184.61s4.323.051 4.699 2.785M121.324 184.807s-1.256 1.767-1.507 2.588"
    stroke="#B22B19" stroke-width=".75" stroke-miterlimit="10" />
  <path
    d="M102.31 129.321s12.889 12.249 15.796 20.229c2.023 5.563-.919 30.947-.919 30.947h-12.839s1.567-23.108.754-25.494c-.954-2.805-12.0056-12.365-12.0056-12.365s-4.7147-1.057-6.939-6.087c-2.0034-4.531-1.0795-10.029-1.0795-10.029"
    fill="#ADBBF9" />
  <path
    d="M99.2969 129.322s13.3611 14.162 15.7961 20.228c1.848 4.607-.919 30.947-.919 30.947M96.9873 146.122c-1.0142-.922-2.7665-2.502-3.2988-2.976-.3414-.302-.733-.538-1.1648-.689-1.3256-.464-4.6143-1.964-6.3616-5.911M89.7119 133.727s3.8461.135 5.4528 0M79.3486 133.727h3.098"
    stroke="#525BCE" stroke-width=".75" stroke-miterlimit="10" />
  <path
    d="M125.346 98.2988c1.345-.6142 7.481-3.3076 7.627-2.9351.14.3575-1.803 1.6564-1.587 1.7168.12.0352 1.853-.4179 2.721-.8458.774-.3826 2.079-.866 2.29-.5488.397.5991-3.876 2.6381-3.876 2.6381s.753-.3474 1.139.1208c.553.6747-.617 1.2989-.617 1.2989s.673-.3423.894.2417c.231.6046-.774 1.0976-.774 1.0976s.799-.383.899.347c.131.962-6.246 3.217-6.246 3.217"
    fill="#FFCBBD" />
  <path
    d="M94.2607 92.0762s-1.2803 1.022-3.3289.6696c-2.0486-.3474-2.5456-1.3392-2.5456-1.3392s-5.4478.7602-8.0637 17.6004c-1.8377 11.831-1.2302 21.457-1.2302 21.457h24.8287s.758-25.731-.502-30.5138"
    fill="#FF4267" />
  <path
    d="M96.2145 104.451s7.3555 8.146 14.2195 8.146 19.783-7.305 19.783-7.305l-3.088-8.4935-15.013 5.3975s-7.903-7.4062-11.553-8.7706c-3.6455-1.3643-6.3067-1.3543-6.3067-1.3543"
    fill="#FF4267" />
  <path d="M104.123 110.724s-4.6198-3.534-6.8491-5.191M125.698 97.3171l2.827 8.8959M79.0176 128.39h24.9594"
    stroke="#B22B19" stroke-width=".75" stroke-miterlimit="10" />
  <path d="M99.7388 107.391c.241 7.159 0 23.073 0 23.073" stroke="#B22B19" stroke-width=".75" stroke-miterlimit="10" />
  <path d="m88.4769 87.7365-.5623 4.5461s4.3732 2.3008 7.2753-.146v-2.6481l-6.713-1.752Z" fill="#FFCBBD" />
  <path
    d="M94.4169 80.6025s5.1113 6.4644 3.2435 8.8558c-.969 1.2435-4.1423.9464-5.6536 0-1.1197-.7049-4.2528-4.4506-3.7708-5.4121 1.8277-3.6551 6.1809-3.4437 6.1809-3.4437Z"
    fill="#FFCBBD" />
  <path
    d="M93.7591 81.7857c.0853 2.6179-.2511 4.959-.2511 4.959l-.3916 8.5032s-6.7482.72-11.0612-2.2856c0 0 1.446-8.9363 4.6645-11.6448 3.0577-2.5777 7.0394-2.3914 9.0628-.725 0 0-.2812.7803-.6577.9616-.3816.1863-1.3657.2316-1.3657.2316Z"
    fill="#4A1A1A" />
  <path
    d="M94.2008 85.8888c-.6226-.7954-1.1297-.6696-1.4059-.2316-.3665.579.3716 1.7873.713 1.9937.6979.4179 1.2603.3726 1.3155-.1913"
    fill="#FFCBBD" />
  <path d="M95.2456 90.2588c-.7381 0-.9741-.6193-.9741-.6193" stroke="#E88872" stroke-width=".5" stroke-miterlimit="10"
    stroke-linejoin="round" />
  <path
    d="M95.7575 83.88c.2159.1813.4168.5035.2963.7401-.0352.0655-.1005.1007-.1707.0906-.4821-.0402-.5724-1.2032-.1256-.8307Z"
    fill="#28364C" />
  <path d="M95.6974 82.999c-.482 0-.7832.3776-.964.7602" stroke="#28364C" stroke-width=".5" stroke-miterlimit="10"
    stroke-linecap="round" />
  <path d="m96.1489 87.2179 1.1348-.3675s.4468 1.3996-.0854 1.5808c-.5824.2014-1.0494-1.2133-1.0494-1.2133Z"
    fill="#fff" />
  <path
    d="M89.9582 79.8021c.4519-.1158.7632-.5891.7531-1.0522-.015-.4682-.3163-.9012-.728-1.1177-.4117-.2215-.9088-.2416-1.3557-.1158-.1707.0453-.3364.1158-.482.2215-.5824.433-.5673 1.3644-.1556 1.9635.1707.2416.4016.4581.6929.5236.2862.0654.8837-.0353 1.2251-.2366"
    fill="#4A1A1A" />
  <path
    d="M96.2993 83.8096c.1255.0705 1.4762.6545 1.4812 1.1982.005.3071-.7431.6394-.7431.6394M114.003 120.395c.804.866 1.07 1.722 1.396 2.422.015.03.03.065.03.101.005.161-.236.176-.386.115-.342-.13-.658-.317-.939-.558-.111-.096-.216-.197-.342-.272-.231-.131-.502-.146-.768-.181-1.08-.136-2.164-.67-2.691-1.627"
    fill="#FFCBBD" />
  <path
    d="M114.004 120.395c.552.514.949 1.179 1.255 1.863l.236.504c.015.06.055.115.04.201-.015.091-.1.161-.161.181-.13.046-.236.031-.351 0-.372-.136-.708-.332-1.004-.584-.146-.131-.261-.246-.417-.307-.151-.06-.332-.085-.517-.111-.377-.045-.753-.13-1.11-.276-.703-.282-1.351-.786-1.667-1.476.407.635 1.049 1.058 1.737 1.294.347.111.703.197 1.065.232.186.02.381.035.577.111.201.075.357.226.492.337.266.237.583.428.914.554.065.025.151.03.201.01.025-.01.025-.015.025-.015.005-.005-.015-.041-.02-.066-.08-.171-.146-.347-.216-.518-.271-.69-.607-1.355-1.079-1.934Z"
    fill="#E88872" />
  <path
    d="m28.4817 192.333-.4519 14.369.4669 4.521 17.0864-.091c.4318 0 .7783-.352.7783-.785 0-.322-.2009-.614-.5021-.73l-7.6219-3.514 1.1498-14.953"
    fill="#FFCBBD" />
  <path
    d="M47.1296 210.941c-.1808-.569-.5122-1.203-.8486-1.349l-8.0837-3.489c-4.4536 1.812-10.2227.428-10.2227.428l-.4419 6.101c0 .202.1657.363.3665.363l19.0898-.101c.4017-.005.1456-1.938.1406-1.953Z"
    fill="#3629B7" />
  <path
    d="M39.9498 206.45c-.4519.594-.8335 1.239-1.1397 1.918M40.9687 207.059c-.4669.65-.6577 1.027-.9389 1.631M41.8279 207.507c-.3163.428-.6327 1.022-.8787 1.496M27.6436 211.676l19.5667-.106M27.8188 208.756s4.534.03 4.9407 2.89M44.624 208.877s-1.3054 1.862-1.5615 2.718"
    stroke="#5565AA" stroke-width=".75" stroke-miterlimit="10" />
  <path
    d="M30.0628 140.911s9.0779 17.062 11.96 27.795c2.882 10.729-.949 34.9-.949 34.9h-14.129s2.8167-26.23-.5172-34.9c-3.3339-8.669-15.2738-31.475-15.2738-31.475"
    fill="#ADBBF9" />
  <path d="M28.8778 203.601s2.3146-27.287.9087-34.029c-1.4108-6.741-11.1766-22.428-11.1766-22.428" stroke="#525BCE"
    stroke-width=".75" stroke-miterlimit="10" />
  <path
    d="m12.2933 184.339-8.34985 11.544-2.2745 3.932 13.86795 10.003c.3514.252.8385.171 1.0895-.176.1908-.262.1958-.614.0201-.886l-4.1021-7.335 9.2536-12.103"
    fill="#FFCBBD" />
  <path
    d="M16.9029 210.573c.1858-.563.2912-1.278.1054-1.591l-4.4887-7.587c-4.66449-1.163-8.51558-5.683-8.51558-5.683l-3.9364406 4.672c-.1154824.166-.0803356.392.0853566.508L15.6477 212.069c.3213.236 1.2502-1.475 1.2552-1.496Z"
    fill="#3629B7" />
  <path
    d="M13.7346 202.709c-.713.212-1.4009.509-2.0486.882M14.1965 203.802c-.7632.252-1.1347.443-1.7121.765M14.633 204.673c-.5071.161-1.1096.453-1.5866.695M.715332 199.679 16.6017 211.137M2.56787 197.418s3.64523 2.699 2.29961 5.251M16.0898 207.432s-2.1489.735-2.8569 1.274"
    stroke="#5565AA" stroke-width=".75" stroke-miterlimit="10" />
  <path
    d="M7.42836 137.226c-2.69124 7.647 0 13.663 0 13.663s9.17334 16.81 9.17334 20.224c0 3.131-11.76918 20.984-11.76918 20.984l10.75998 8.674s16.9006-18.24 16.5842-30.861c-.3966-15.607-8.867-32.684-8.867-32.684"
    fill="#ADBBF9" />
  <path
    d="M9.43703 137.729c-2.69124 7.647.55733 12.798.55733 12.798s8.61594 17.676 8.61594 21.089c0 3.132-12.22602 21.729-12.22602 21.729M27.8939 183.75c2.5205-4.637 4.3883-9.561 4.2778-13.84-.3966-15.607-8.867-32.684-8.867-32.684"
    stroke="#525BCE" stroke-width=".75" stroke-miterlimit="10" />
  <path
    d="M8.55273 143.725s4.80007.282 6.68287-3.589M26.9546 145.935s1.3155.146 1.19-.508c-.1256-.655-1.19-4.169-1.19-4.169"
    stroke="#525BCE" stroke-width=".75" stroke-miterlimit="10" />
  <path fill-rule="evenodd" clip-rule="evenodd"
    d="M33.0555 96.6625c.4921 3.0811.1054 5.8045-2.5205 6.2175-2.626.408-6.2712-.342-6.9842-4.7323-.5021-3.0811 1.2352-5.9156 3.8611-6.3234 2.626-.4078 5.1515 1.7571 5.6436 4.8382Z"
    fill="#FFCBBB" />
  <path
    d="M30.9314 96.6928c-.0553.2819-.0051.6746.246.7853.0703.0302.1456.0151.1958-.0402.3565-.3474-.3264-1.3342-.4418-.7451Z"
    fill="#28364C" />
  <path d="M30.0581 95.9935c.6477-.3532 1.2653-.3178 1.8126-.1261" stroke="#28364C" stroke-width=".5"
    stroke-miterlimit="10" stroke-linecap="round" stroke-linejoin="round" />
  <path d="m32.6387 99.8896-1.7122.0051s-.1004 1.4243.7482 1.5753c.7079.121.964-1.5804.964-1.5804Z" fill="#fff" />
  <path fill-rule="evenodd" clip-rule="evenodd"
    d="M29.1439 106.258s-2.0436.353-3.9666-.171c-2.2695-.619-2.9122-1.546-2.9122-1.546l3.1432-6.5796 4.8502 2.2056-1.1146 6.091Z"
    fill="#FFCBBB" />
  <path d="M29.7519 102.961s-2.1139.07-3.2084-.972" stroke="#EF977F" stroke-miterlimit="10" />
  <path fill-rule="evenodd" clip-rule="evenodd"
    d="M32.5029 96.5719s1.3105 1.9333 1.2452 2.2756c-.0652.3424-1.0192.4934-1.0192.4934" fill="#FFCBBB" />
  <path
    d="M25.4388 100.927c-.2862.126-.6276.176-.9037.206-.6176.071-1.2553-.025-1.8076-.312-1.0092-.529-1.6569-1.7319-1.431-2.8546.0352-.1812.0954-.3624.1255-.5487.1356-.8609-.3665-1.6815-.5071-2.5424-.1355-.8358.0804-1.7118.5523-2.4166.467-.7048 1.1749-1.2335 1.9632-1.5355.6277-.2417 1.3155-.3273 1.8377-.7804.241-.2114.4619-.448.7381-.6192 1.3055-.8257 3.1682-.3726 4.3331.4984.1406.1007.2761.2165.4418.2618.2862.0755.5875-.0453.8787.0151 1.1197.2265 1.6117 1.8829 1.6017 2.8747-.005.292-.0753.5941-.251.8257-.2511.3373-.6779.4984-1.0946.5487-.5824.0705-1.185-.0453-1.7574.1259-.4016.1208-.7431.3826-1.1347.5387-.5975.2416-1.3004.2165-1.8829-.0604.1155.4078.2009.8407.1406 1.2636-.1205.7904-.7883 1.1831-1.4962 1.3795.236.8005.4268 1.8023.1757 2.6177-.0803.247-.2812.408-.5222.514Z"
    fill="#14122D" />
  <path d="M26.4077 97.1458s-.6276-.7652-1.3657-.151c-.954.7954.2862 2.5122 1.0444 2.7941.7531.2821.979-.5588.979-.5588"
    fill="#FFCBBB" />
  <path
    d="M69.401 108.817c4.9068 8.939 1.641 20.207-7.3011 25.161-1.2215.677-2.484 1.202-3.7713 1.58-1.6174.476-3.2631.718-4.9023.745-1.4617.021-2.9162-.133-4.3261-.45-.431-.097-.8589-.21-1.2838-.34-1.8632-.562-3.634-1.419-5.2424-2.545-.3124-.22-.622-.452-.9243-.691-1.8378-1.469-3.4212-3.319-4.6266-5.511-.1101-.199-.2175-.404-.3154-.609-4.443-8.836-1.1225-19.709 7.6165-24.552 2.1504-1.193 4.4325-1.9112 6.7274-2.1908.4442-.0522.8878-.0903 1.3308-.1141 1.9374-.0938 3.8669.1201 5.716.6226.4068.1103.8106.2363 1.2092.3723 1.4194.491 2.7796 1.155 4.048 1.987 1.3075.854 2.5158 1.882 3.5873 3.074.7821.873 1.4898 1.828 2.1114 2.868.1196.194.2344.392.3467.593Z"
    fill="#FDD462" />
  <path opacity=".3"
    d="m66.9426 105.356-8.6143 30.202c-1.6174.476-3.263.718-4.9022.745l9.9314-34.019c1.3078.85 2.5161 1.878 3.5851 3.072ZM52.3847 99.2978l-9.8106 33.6652c-.3124-.22-.622-.452-.9242-.691l9.4018-32.8627c.4442-.0522.8878-.0902 1.333-.1115ZM59.3096 100.292l-10.2119 35.553c-.431-.096-.8589-.209-1.2838-.339l10.2867-35.5903c.4066.1143.8104.2413 1.209.3763Z"
    fill="#fff" />
  <path
    d="M66.1501 110.621c.1101.198.2129.399.3134.601 3.4533 7.032.7872 15.668-6.1475 19.512-6.9347 3.844-15.6226 1.507-19.7022-5.181-.115-.194-.23-.388-.34-.586-3.9171-7.134-1.2989-16.158 5.8364-20.111 7.1333-3.96 16.1253-1.372 20.0399 5.765Z"
    fill="#F37E00" />
  <path
    d="M66.464 111.217c3.4533 7.032.7871 15.668-6.1475 19.512-.1548.084-.3095.169-.4663.246-1.5765.801-3.2349 1.297-4.9049 1.497-1.6677.204-3.3447.115-4.961-.243-.41-.089-.8168-.199-1.2183-.323-1.8273-.573-3.5434-1.494-5.0356-2.746-.3587-.3-.7051-.617-1.0364-.951-.7809-.788-1.4817-1.681-2.082-2.663-3.4533-7.032-.7872-15.668 6.1475-19.512.878-.486 1.7827-.874 2.7047-1.165.4694-.148.945-.275 1.4218-.376 1.948-.408 3.9337-.41 5.8402-.038.4104.079.82.177 1.2264.296 1.5701.447 3.068 1.157 4.4191 2.103 1.3188.926 2.4961 2.074 3.4732 3.435.2193.302.4264.611.6191.928Z"
    fill="#F7A219" />
  <path opacity=".2"
    d="m65.8494 110.294-6.0018 20.683c-1.5764.801-3.2348 1.297-4.9048 1.498l7.4333-25.616c1.3188.926 2.4961 2.074 3.4733 3.435ZM50.8902 104.499l-7.1578 24.663c-.3588-.3-.7051-.616-1.0365-.95l6.7727-23.342c.4669-.146.9425-.273 1.4216-.371ZM57.956 104.756l-7.973 27.478c-.41-.089-.8168-.199-1.2183-.323l7.9624-27.449c.4151.079.8225.175 1.2289.294Z"
    fill="#FBE6A1" />
  <path fill-rule="evenodd" clip-rule="evenodd"
    d="m51.856 117.393 3.868 1.196-.6551 2.104-3.0071-.93c-.0506.947-.1295 1.592-.2367 1.936-.1233.396-.4605 1.042-1.0116 1.937l.1726.124c.2445.18.4678.346.6694.497.2016.152.3858.292.553.419.9137.745 1.6105 1.191 2.0904 1.34.3681.114.7295.084 1.0843-.089.1884-.093.4093-.237.6628-.432.2532-.196.5448-.445.8742-.749l1.9398 2.185c-.9571 1.053-1.852 1.724-2.684 2.014-.8462.304-1.7661.303-2.7598-.004-.7197-.223-1.7373-.816-3.0526-1.779-1.2594-.993-2.1759-1.578-2.7498-1.756-.4712-.146-.8788-.149-1.2225-.01-.344.139-.7996.517-1.3673 1.134l-2.1642-2.099c1.196-1.035 2.0858-1.661 2.6696-1.877.6848-.269 1.5017-.314 2.4507-.134.4172-.616.7115-1.199.883-1.75.1849-.594.2145-1.217.0888-1.869l-3.3924-1.049.6552-2.104 2.3258.72c-.3137-1.918-.2872-3.466.08-4.645.5332-1.712 1.6299-2.972 3.2901-3.78 1.6771-.802 3.4326-.919 5.2659-.352 1.842.569 3.1652 1.643 3.9696 3.222.8182 1.564.9314 3.298.3392 5.199l-3.2844.187c.4475-1.437.6153-2.488.5037-3.155-.2091-1.319-1.0162-2.196-2.421-2.631-1.0368-.32-1.9951-.244-2.8749.229-.8771.465-1.4792 1.222-1.8061 2.272-.2733.877-.2105 2.274.1883 4.19.0092.031.0184.069.0278.115.0091.045.0217.103.0373.174Z"
    fill="#F37E00" />
  <path fill-rule="evenodd" clip-rule="evenodd"
    d="m51.1578 117.13 3.868 1.196-.6552 2.104-3.007-.93c-.0506.947-.1296 1.592-.2367 1.936-.1233.396-.4605 1.042-1.0116 1.937l.1725.125c.2446.179.4678.345.6695.497.2015.152.3858.291.553.418.9136.745 1.6105 1.192 2.0903 1.34.3682.114.7296.084 1.0843-.089.1884-.093.4093-.237.6629-.432.2531-.195.5447-.445.8741-.749l1.9399 2.185c-.9571 1.053-1.8521 1.725-2.6841 2.014-.8461.305-1.7661.303-2.7597-.004-.7197-.223-1.7374-.816-3.0526-1.779-1.2594-.993-2.1759-1.578-2.7498-1.756-.4712-.145-.8788-.149-1.2226-.01-.3439.139-.7995.517-1.3672 1.134l-2.1642-2.099c1.1959-1.035 2.0858-1.661 2.6695-1.877.6849-.269 1.5017-.314 2.4507-.133.4172-.616.7115-1.2.883-1.751.1849-.594.2145-1.216.0889-1.868l-3.3925-1.049.6552-2.104 2.3259.719c-.3138-1.918-.2872-3.466.08-4.645.5331-1.712 1.6299-2.972 3.2901-3.779 1.6771-.803 3.4325-.92 5.2659-.353 1.842.569 3.1651 1.644 3.9696 3.223.8182 1.564.9313 3.297.3392 5.198l-3.2844.188c.4475-1.437.6153-2.489.5037-3.156-.2092-1.319-1.0162-2.196-2.4211-2.63-1.0367-.321-1.995-.245-2.8748.228-.8771.465-1.4792 1.222-1.8062 2.272-.2733.878-.2104 2.275.1884 4.19.0092.031.0184.069.0278.115.0091.045.0217.103.0373.174Z"
    fill="#FDD462" />
  <path
    d="M52.1504 129.936c1.4762.125 8.139.805 8.0788 1.203-.0553.382-2.3097.508-2.2243.715.1205.292 1.8176.549 2.7866.604.8586.05 2.2343.272 2.2594.649.0503.72-4.6695.388-4.6695.388.0151.216 5.1415-.594 5.247.005.1506.861-5.3122 1.284-5.488 1.49 0 0 4.6344-1.686 4.7499-1.047.1104.639-3.9917 2.245-5.2972 2.271 1.0695-.222 4.2227-2.004 4.303-1.536.0804.463-2.7063 1.677-3.1582 1.752-3.7306.619-7.5465.252-7.5465.252"
    fill="#FFCBBD" />
  <path
    d="M29.2293 105.835s-1.431.68-3.6001-.261c-2.3548-1.027-2.8519-2.206-2.8519-2.206s-12.7733 1.133-17.44283 36.667l26.15423 3.252s2.1038-12.702 1.7674-22.977c-.2109-6.545-2.7465-11.64-4.0268-14.475Z"
    fill="#3629B7" />
  <path
    d="M21.5527 120.058s4.0218 13.513 14.8872 16.438c9.6805 2.602 17.227 2.592 17.227 2.592l1.0544-9.107s-11.8294-2.13-16.6998-5.357c-3.7055-2.457-4.4285-10.336-5.3674-13.12-1.3004-3.866-3.4293-5.664-3.4293-5.664"
    fill="#3629B7" />
  <path
    d="M21.7383 103.64s.8033 2.477 4.5289 3.293c2.7214.594 3.7908-.222 3.7908-.222M32.1769 134.965s-9.9064-4.586-10.4386-17.585M52.522 129.538l-1.3306 9.445"
    stroke="#121649" stroke-width=".75" stroke-miterlimit="10" />
  <path fill-rule="evenodd" clip-rule="evenodd"
    d="M137.072 104.051c-1.991 1.595-3.248 3.952-3.537 6.636-.042.389-.064.784-.064 1.174 0 1.038.148 2.069.439 3.066.27.924.661 1.809 1.163 2.634l-1.618.744-.455.209.473.157 3.763 1.247.249.082-.009-.276-.136-4.173-.018-.549-.313.437-.916 1.275c-.872-1.475-1.332-3.148-1.332-4.854 0-.339.018-.681.055-1.018.249-2.311 1.328-4.337 3.037-5.705l.147-.118-.111-.156-.555-.776-.046-.066-.079-.011-.079-.01-.058.051Z"
    fill="#3629B7" />
  <path fill-rule="evenodd" clip-rule="evenodd"
    d="M160.928 119.949c1.991-1.595 3.248-3.952 3.537-6.636.042-.388.064-.784.064-1.174 0-1.038-.148-2.069-.439-3.066-.27-.924-.661-1.809-1.163-2.634l1.618-.744.455-.209-.473-.157-3.763-1.247-.249-.082.009.276.136 4.173.018.549.313-.437.916-1.275c.872 1.475 1.332 3.148 1.332 4.854 0 .339-.018.681-.055 1.018-.249 2.311-1.328 4.337-3.037 5.705l-.147.118.111.156.555.776.047.067.078.01.079.01.058-.051Z"
    fill="#FF4267" />
  <defs>
    <filter id="a" x="83.9131" y="9.138" width="130.419" height="215.89" filterUnits="userSpaceOnUse"
      color-interpolation-filters="sRGB">
      <feFlood flood-opacity="0" result="BackgroundImageFix" />
      <feColorMatrix in="SourceAlpha" values="0 0 0 0 0 0 0 0 0 0 0 0 0 0 0 0 0 0 127 0" result="hardAlpha" />
      <feOffset dy="4" />
      <feGaussianBlur stdDeviation="7.5" />
      <feColorMatrix values="0 0 0 0 0 0 0 0 0 0 0 0 0 0 0 0 0 0 0.1 0" />
      <feBlend in2="BackgroundImageFix" result="effect1_dropShadow_293_33570" />
      <feBlend in="SourceGraphic" in2="effect1_dropShadow_293_33570" result="shape" />
    </filter>
  </defs>
</svg>