<svg width="93" height="78" viewBox="0 0 93 78" fill="none" xmlns="http://www.w3.org/2000/svg">
  <path
    d="M12.7691 21.6631c3.807-.7968 6.189-4.2748 5.3204-7.7682-.8686-3.4934-4.6589-5.67944-8.46587-4.88261-3.80699.79683-6.18903 4.27481-5.32044 7.76821.8686 3.4934 4.6589 5.6794 8.46591 4.8826Z"
    fill="#FB6B18" />
  <path opacity=".1"
    d="M10.4766 8.2961c-4.23795.36515-7.35099 3.8138-6.95307 7.7029.39792 3.889 4.15605 6.7457 8.39417 6.3805 4.238-.3651 7.351-3.8138 6.9531-7.7029-.3979-3.889-4.1562-6.74565-8.3942-6.3805Zm1.32 12.9006c-3.52621.3039-6.65313-2.073-6.98412-5.3088-.33112-3.2358 2.25903-6.10526 5.78522-6.409 3.5262-.30385 6.6532 2.073 6.9842 5.3088.331 3.2358-2.2592 6.1052-5.7853 6.409Z"
    fill="#272525" />
  <path
    d="M10.4027 7.57422c-4.67273.40257-8.10513 4.20498-7.66643 8.49298.43869 4.2879 4.58236 7.4377 9.25513 7.0351 4.6727-.4026 8.1051-4.205 7.6664-8.493-.4387-4.288-4.5823-7.43765-9.2551-7.03508ZM11.858 21.7982c-3.88789.3349-7.33555-2.2858-7.70056-5.8534-.36502-3.5677 2.49083-6.73148 6.37866-7.06644 3.8879-.33496 7.3355 2.28564 7.7006 5.85344.365 3.5677-2.4909 6.7314-6.3787 7.0664Z"
    fill="#FFAF2A" />
  <path
    d="M9.09562 17.4733c-.09157-.0481-.11834-.1622-.14861-.265-.07693-.2617.08356-.478.3674-.5327.42581-.0819.89539.1823 1.30249.3214.3343.1143.6953.1558 1.083.1245.4149-.0334.7389-.1528.9717-.3584.2328-.2054.3348-.4592.306-.7609-.0293-.3061-.151-.5157-.3649-.6288-.214-.113-.5657-.1499-1.055-.1105l-.323.0261c-.7986.0642-1.42205-.0396-1.87026-.3121-.4482-.2724-.70014-.6995-.7558-1.2814-.05442-.5691.10783-1.0274.48686-1.3751.37902-.3476.9384-.5513 1.6785-.6109.3015-.0243.6132-.0026.9353.0649.6699.1405 1.7943.5368 1.6227 1.1493-.1958.6985-1.4289-.1911-1.8451-.317-.2437-.0737-.5242-.0979-.8411-.0723-.3681.0296-.65615.143-.86405.34-.20803.197-.29884.4336-.27245.7094.02602.2715.15999.4563.40217.554.24203.0978.74563.1246 1.51073.0803.8164-.0439 1.4264.0643 1.8301.3251.4037.2607.6346.695.6928 1.3029.0556.582-.1074 1.0643-.4889 1.4468-.3817.3826-.9247.6023-1.6294.659-.2232.0179-.4739.0154-.7522-.0078-.5179-.0431-1.34752-.1395-1.97898-.4708Z"
    fill="#fff" />
  <path
    d="m11.7426 19.5055-.0089.0006c-.2432.0197-.4605-.1737-.4851-.4319l-.7622-7.9687c-.0246-.2581.1525-.4832.3957-.5029l.0089-.0006c.2431-.0197.4603.1738.4851.4319l.7622 7.9687c.0246.2581-.1525.4833-.3957.5029Z"
    fill="#fff" />
  <path
    d="m82.8158 19.7954-11.4439-2.1273c-.3482-.0647-.5689-.3953-.4933-.7384l3.2723-14.82327c.0757-.34311.4193-.56879.7675-.50404l11.4439 2.1273c.3481.06474.5689.39533.4932.73844L83.5832 19.2914c-.0757.3431-.4193.5688-.7674.504Z"
    fill="#3629B7" />
  <path
    d="m77.459 11.6078-2.9954-.563c-.1864-.035-.3043-.2124-.2634-.3961l.6411-2.87107c.0411-.18364.2255-.30415.4119-.26914l2.9953.56308c.1864.035.3042.21233.2633.39608l-.6411 2.87105c-.0409.1836-.2253.3041-.4117.2691ZM82.9886 12.6325l-2.9967-.557c-.1865-.0346-.3048-.2117-.2642-.3955l.6342-2.87239c.0406-.18375.2247-.3046.4112-.26994l2.9967.55699c.1866.03466.3048.21176.2642.39551l-.6342 2.87233c-.0406.1837-.2246.3047-.4112.27ZM76.4269 16.302l-2.9967-.557c-.1866-.0347-.3049-.2118-.2642-.3955l.6342-2.8725c.0405-.1837.2246-.3046.4111-.2699l2.9968.557c.1865.0347.3048.2117.2642.3955l-.6343 2.8724c-.0406.1838-.2246.3046-.4111.27ZM81.952 17.3288l-2.9967-.557c-.1865-.0346-.3049-.2117-.2642-.3955l.6342-2.8724c.0405-.1837.2247-.3046.4112-.2699l2.9967.5569c.1865.0347.3048.2118.2642.3956l-.6342 2.8724c-.0407.1837-.2247.3046-.4112.2699Z"
    fill="#0890FE" />
  <path
    d="m76.5627 9.45738.851.15816c.0531.00987.0936.035.1212.0754.0276.0404.0361.08528.0253.13452-.0109.04935-.0369.08619-.0781.11052-.0412.02445-.0892.03157-.1438.02135l-.851-.15815-.1913.86632c-.0123.0554-.0378.0972-.0764.1252-.0388.0281-.0847.0372-.1379.0273-.0469-.0087-.0838-.0348-.1108-.0783-.0271-.0435-.0352-.0898-.0242-.1392l.1913-.86629-.8464-.15724c-.0548-.01021-.0962-.03385-.1246-.07127-.0284-.0373-.0371-.08057-.0262-.12992.0102-.04614.0379-.08356.0833-.11202.0452-.02847.0929-.03799.1429-.0287l.8464.15736.1908-.86401c.0122-.05544.0385-.0971.0788-.12488.0403-.02777.0862-.03684.1378-.02731.0532.00987.0916.03466.1154.07437s.0295.08723.0172.14266l-.1907.86413ZM80.8679 10.6704c-.0313-.0059-.0538-.02-.0674-.0426-.0138-.0226-.0169-.0509-.0094-.0847l.054-.2448c.0065-.0293.0205-.0508.0423-.0643.0216-.0135.0482-.0175.0794-.0117l1.9435.3612c.0359.0066.0622.0204.0788.0411.0166.0207.0217.0456.0152.0749l-.0541.2448c-.0061.0277-.0234.0506-.0517.0685-.0284.0181-.0575.0243-.0871.0188l-1.9435-.3612ZM79.946 14.7031c-.0313-.0058-.0538-.0199-.0674-.0426-.0138-.0226-.0169-.0508-.0094-.0847l.054-.2448c.0066-.0292.0206-.0506.0423-.0642.0217-.0136.0482-.0176.0795-.0117l1.9435.3611c.0359.0067.0622.0205.0788.0411.0166.0207.0217.0457.0152.075l-.0541.2448c-.0061.0277-.0233.0506-.0517.0685-.0284.018-.0575.0242-.0871.0187l-1.9436-.3612ZM79.748 15.6005c-.0313-.0058-.0538-.0199-.0674-.0425-.0138-.0227-.0169-.0509-.0094-.0847l.0541-.2449c.0065-.0292.0205-.0507.0422-.0642.0217-.0136.0482-.0175.0795-.0117l1.9435.3612c.0359.0066.0622.0204.0788.041.0166.0208.0217.0457.0152.075l-.0541.2448c-.0061.0278-.0234.0506-.0517.0685-.0284.018-.0575.0242-.0871.0187l-1.9436-.3612ZM74.3134 14.2114c-.0312-.0059-.0537-.02-.0674-.0426-.0137-.0226-.0169-.0508-.0094-.0847l.0541-.2448c.0065-.0293.0205-.0507.0423-.0643.0216-.0135.0481-.0174.0794-.0117l1.9435.3612c.0359.0067.0622.0204.0788.0411.0165.0208.0217.0457.0152.0749l-.0541.2448c-.0061.0278-.0234.0507-.0518.0686-.0284.018-.0574.0242-.087.0187l-1.9436-.3612ZM75.7213 13.6403c-.0303.1372-.1679.2276-.3073.2018-.1393-.026-.2276-.1583-.1974-.2956.0303-.1373.1679-.2276.3073-.2018.1393.0259.2276.1583.1974.2956ZM75.4672 14.7921c-.0303.1372-.1679.2276-.3073.2017-.1393-.0259-.2278-.1581-.1974-.2955.0303-.1373.1679-.2276.3073-.2017.1392.0257.2276.1581.1974.2955ZM75.1989 3.46392l-.4902 2.22065 10.3125 1.9163.4902-2.22065-10.3125-1.9163Z"
    fill="#fff" />
  <path opacity=".5"
    d="M42.6661 65.9528c-2.7235.0095-5.4469.0867-8.1656.4432-1.0251.1344-2.0286.43-3.0561.5492-2.0522.2382-4.0677.6826-6.1271.8876-1.6584.1651-3.3239.2624-4.9776.4719-1.5504.1963-3.2668.1511-4.8052-.1733-1.1389-.2402-2.2831-.3754-3.4029-.7611-1.2527-.4315-2.61356-.7399-3.91877-.7289-1.86114.0158-3.67368.0177-5.45473.7795-.62521.2675-1.39067.7071-1.865404 1.2684-1.086876 1.2848-1.234014 4.4906-.148758 5.8232C2.57177 76.7553 6.473 77.6353 9.03511 77.6767c2.80759.0455 5.53489-.2002 8.34669-.3446 2.6126-.1343 5.2188-.3252 7.8357-.3185 5.3449.0137 10.6906 0 16.0258-.421 5.0126-.3954 10.0378-.2596 15.0614-.2596 5.1514 0 10.268.0477 15.3823.8548 2.2284.3516 4.4986.4748 6.7381.7211 2.0057.2207 3.9331-.0043 5.9309-.2082 1.6774-.1713 3.3439-.6791 4.8679-1.5377 1.2063-.6796 3.3569-2.7911 3.7268-4.4133 1.0372-4.5479-14.616-4.4386-17.0195-4.4283-2.6886.0115-5.3985.1157-8.0851-.0052-1.13-.0508-2.2435-.3112-3.3464-.5965-1.0985-.2842-2.2054-.2119-3.3194-.3314-4.6459-.4981-9.302-.4253-13.9626-.4253-1.5168.0001-3.0342-.0155-4.5516-.0102Z"
    fill="#EED5D5" />
  <path
    d="M72.4801 0 57.0403 3.98886l3.7328 3.46668c-4.1401 3.86306-9.3168 8.71356-9.4547 8.94276-.2308.3833-4.2483-7.15341-4.2483-7.15341L36.2235 20.2432l-3.9599-4.8071-8.6591 8.8793 8.0842-5.0534 4.3681 5.2271 9.7499-9.0886 4.157 7.7967 14.4942-12.3194 4.012 3.726L72.4801 0Z"
    fill="#3629B7" />
  <path
    d="m50.1162 23.2188 14.7564-12.1367-.8289-.8956-13.9275 13.0323ZM36.2219 24.4357l10.2356-8.1594-.5506-1.0219-9.685 9.1813ZM31.8767 19.2075l-8.0393 5.0865 8.5133-4.4393-.474-.6472Z"
    fill="#353A85" />
  <path
    d="m29.3296 24.0492-.4234-2.0111 1.3086-1.3721.6854.5717-.3153 1.4223.3395.3443-.3696 1.4538c0-.0001-1.2295-.4364-1.2252-.4089ZM46.4166 19.9767l.1607-2.0983-1.8497-1.3139-.7757.9306.8354 1.3687-.2984.7117.8201 1.1301 1.1076-.7289Z"
    fill="#EFBFA5" />
  <path d="m31.7597 43.811-.1496 11.874 1.3789 15.2857h1.875l2.2435-14.1024 2.5658-14.1266-7.9136 1.0693Z"
    fill="#0890FE" />
  <path
    d="m34.8534 71.6962-2.0276.9302-1.0138-.9302 1.0138-.9301h2.0276v.9301ZM44.6147 43.811l.0368 6.8695-1.2646 20.2902h-1.8748l-3.1366-13.4645-1.6743-14.7645 7.9135 1.0693Z"
    fill="#0890FE" />
  <path
    d="m41.5227 71.6962 2.0276.9302 1.0137-.9302-1.0137-.9301h-2.0276v.9301ZM46.5643 47.947c.0402 1.0899.0144 2.5479-.4857 2.6023-.0936.0102-.1839-.0278-.2663-.0645-.8695-.3877-1.4895-.9357-2.3468-1.3102-.8982-.3925-1.9194-.5979-2.9172-.7397-1.4884-.2181-3.0012-.3492-4.4991-.3614-1.2873-.0105-2.6262.5284-3.8432.8248-.4685.1141-.8495.4273-1.2388.6731-.5748.3628-.8268.5066-.7484-.2349.128-1.2099.2607-2.4195.4229-3.6261.3235-2.4065.764-4.8072 1.5092-7.1368.2847-.8899.613-1.7675.9413-2.6447.3998-1.0683.7994-2.1365 1.1992-3.2048.4969-1.3276 1.3354-2.2629 2.8036-2.7273 1.2689-.4013 2.845-.5111 4.0791.0507 1.3719.6244 2.0244 2.7522 2.6909 3.8892.584.9964 1.3203 3.7139 1.5388 4.7881.2632 1.2929.5063 2.5797.6976 3.8631.212 1.4214.3613 2.8386.4046 4.2476.005.1556.0392.5911.0583 1.1115Z"
    fill="#0890FE" />
  <path
    d="m39.7873 30.2354-2.5337.0221s-2.7189 8.7192-2.8189 10.2219c-.098 1.4753-.7853 7.457-.7853 7.457s2.8061.0607 6.0392.4222c3.1607.6207 3.4264.2537 3.4264.2537s-1.7059-6.287-1.7624-8.0933c-.058-1.8476-.3157-7.9496-.3157-7.9496l-1.2496-2.334Z"
    fill="#fff" />
  <path
    d="M39.4201 30.3779h-1.2474c-.2912 0-.4562.3062-.2796.5187l.5121.6158-1.3625 11.5332 1.677 1.5126 1.153-1.7961-.3145-11.2496.2029-.7321c.0564-.2042-.1116-.4025-.341-.4025Z"
    fill="#0890FE" />
  <path
    d="M38.2508 30.2797c.0298.0237.0641.0423.1037.0544.0787.0237.1642.0151.2465.0062.3352-.0364.6703-.0728 1.0055-.1092-.1106-.9417.4895-1.1547 1.0742-1.7604.5925-.614.4101-1.4419.3769-2.1933-.0095-.2092-.0207-.4249-.1171-.6147-.1693-.3332-.5633-.5172-.9459-.6262-.9762-.2783-2.0928-.2098-2.9523.2979-.2288.1351-.4423.3049-.5663.5272-.191.3426-.1425.7515-.0893 1.1333.0819.5868.2712 1.1631.6328 1.6576.3369.4608.9794.6814 1.0532 1.2344.019.1428.0662.3035.1781.3928Z"
    fill="#EFBFA5" />
  <path
    d="M42.0463 22.9899c-.1939-.2781-.4302-.5278-.7079-.6834-.665-.3722-1.5908-.4064-2.3072-.6615-1.0078-.3589-1.52-.0352-2.4715.2451-.3803.1121-.8176.2094-1.019.5401-.1112.1826-.1277.4079-.24.5899-.1446.2345-.4192.3568-.6573.5044-.2762.1712-.3939.4246-.4035.7081-.0208.6057.4781 1.5897 1.0917 1.8366.1192.0479.2512.0762.3906.0897.1483.3772.4112.7407.8073.8639.0626-.2354-.0577-.4748-.1146-.7115-.0144-.0598-.0172-.1215-.013-.1839.4579-.0727.9201-.2288 1.2566-.3635.7007-.2805 2.0651-.5795 2.7925-.2482.5753.2622.3986 1.0978.3696 1.6263-.0075.1358-.0189.2741.0153.4063.0474.1834.1989.2864.2285.473.471-.1939.756-.6812 1.022-1.0774.133-.1981.2575-.4051.3554-.63.4375-1.0052.2762-2.3604-.3955-3.324Z"
    fill="#292949" />
  <path
    d="m36.4731 30.1937-6.0268-.0792.5847-5.9279-1.9422-.648-2.342 7.1456 1.099 2.1555 6.7265 1.8048 1.9008-4.4508ZM40.6001 29.9264l6.4322-1.7396-2.3808-7.3794 1.9619-1.2913 4.7359 8.5426-1.3096 2.9583-6.1457 2.9109-3.2939-4.0015Z"
    fill="#0890FE" />
  <path d="m82.8584 20.5268.2803-2.1854-2.588-1.0143-.4814 1.0094 1.2188 1.6433.2952.9999 1.2751-.4529Z"
    fill="#EFBFA5" />
  <path d="m71.0505 33.7275-3.1326 4.4127-2.0392 3.574.746 1.3854 2.7128-.6962 1.713-8.6759Z" fill="#3629B7" />
  <path
    d="M74.8039 49.3109v2.2345l-3.2465 9.6823.8117 10.0548-2.0291.3725-3.2465-12.2892.1241-3.6157 1.4991-7.3741 6.0872.9349Z"
    fill="#0890FE" />
  <path
    d="m70.6064 71.4638-1.549 1.504.4474.7625 3.1961-1.4076-.5887-1.1142-1.5058.2553ZM75.5183 72.1509l-1.9094 1.1012.2255.8409 3.4781-.6303-.2666-1.2139-1.5276-.0979Z"
    fill="#343434" />
  <path
    d="m71.04 33.7163 4.8299-1.7583s1.7165 3.9124 3.6679 10.1798c1.9513 6.2673-.906 14.2451-.906 14.2451s-11.0651-2.4132-13.2746-2.8111l2.7714-11.456 2.9114-8.3995Z"
    fill="#3629B7" />
  <path d="m72.2285 51.9561 3.2622 20.4821h1.4827l.9365-11.1721 2.0292-11.1719-7.7106 1.8619Z" fill="#0890FE" />
  <path
    d="M70.8801 27.7277c1.3151.0888 2.5447-.9021 3.839-.6561.8416.1599 1.506.8448 1.7628 1.6167.1197.3598.1621.7519.0449 1.1096-.076.2322-.2163.4414-.3813.6274-.2207.2486-.4906.455-.7903.6138.1646.2434.3532.4731.5629.6853-.6065.2131-1.213.4261-1.8194.6393-.134-.3198-.2681-.6396-.4021-.9593-.1823-.0093-.3641-.0331-.5422-.0755-1.0768-.2564-1.9696-1.1217-2.2098-2.1418-.1123-.4778-.0906-.9721-.0645-1.4594Z"
    fill="#EFBFA5" />
  <path
    d="m71.2122 28.0919 4.0665-.4434.7892 2.85 1.1483-.8362-.5918-4.6632-5.7387-.1134-2.4848 1.3375.1052 1.3403 2.2217 1.3722.4844-.8438Z"
    fill="#292949" />
  <path
    d="m72.7906 32.8862 4.8299-1.7583s1.7165 3.9124 3.6678 10.1798c1.9513 6.2673-.906 14.2452-.906 14.2452s-9.8981-4.4881-12.1076-4.886l1.6044-9.3811 2.9115-8.3996Z"
    fill="#fff" />
  <path
    d="M81.3614 41.1995c-1.9513-6.2674-3.6411-10.1863-3.6411-10.1863l-4.8566 1.7648-.0079.0226c.107.2561.2188.5107.3158.7704.3825 1.0246.6653 2.0793.8389 3.1506.3053 1.8831.3374 3.8193.2717 5.7197-.0629 1.8233-.2678 3.6433-.6208 5.4388-.4667 2.3735-1.2107 4.6863-2.1697 6.9248 4.4924.8377 9.7793 1.8281 9.7793 1.8281s2.0419-9.1662.0904-15.4335Z"
    fill="#3629B7" />
  <path
    d="m77.3125 31.1623 4.8083-2.7351-.8939-7.5084 2.1314-.7572 3.5068 8.5812-.6876 1.3882-6.5906 5.8364-2.2744-4.8051ZM68.4378 39.4694l.4812-5.237h-2.3377l-1.7878 7.193 1.2377 2.2084 1.9903-.8926.4163-3.2718Z"
    fill="#0890FE" />
  <path
    d="M66.8562 34.2321v-1.7665l1.4439-.5047 1.3065.9463v.8201l-.9626.5048h-1.7878ZM9.41382 24.8484l.27783-2.1366 1.82155-.9642.526 1.1508-.8697 1.3096v1.0724l-1.75568-.432Z"
    fill="#EFBFA5" />
  <path
    d="m23.1958 72.5001-1.6299-1.3813c-.473-.2196-.9731-.3729-1.3785-.3682-.2944.0034-.5387.0901-.6861.2951-.1414.1968-.1702.456-.0738.666.0353.0768.0854.1455.1416.2103.0486.0557.1024.1094.1552.1616.0336.0331.0708.0688.1102.1059.3372.3355.9024.8817 1.1268 1.0052.3291.1811 1.0531.6643 1.9088.1207-.0032-.0026-.0068-.0051-.01-.0077.3113-.1932.4029-.5107.3357-.8076Z"
    fill="#343434" />
  <path
    d="m21.9164 60.4689-.1316 1.7336-.6457 8.4402.6457.9819s.1316.7851-.8556.7247c-.2937-.0179-1.3339-1.2316-1.3339-1.2316l.1504-.5561-.7319-6.3374.0067-1.8406-.3501-2.0438 3.246.1291Z"
    fill="#EFBFA5" />
  <path
    d="M11.584 70.3571c-.3035-.0876-.586-.0741-.8126.0907-.2175.1584-.3422.4154-.3205.6608.0149.1674.092.3223.168.4735.3936.7827 1.4975 2.5524 2.7642 2.228.5323-.1363.7338-.6349.6257-1.0753-.1627-.6635-1.4102-2.0849-2.4248-2.3777Z"
    fill="#343434" />
  <path
    d="m17.9684 59.4567-.2205 2.4963-5.3401 8.823s.7676 1.2306.2807 1.3375c-.4868.1068-1.9145-.2659-1.9175-1.6554.5614-1.6829 2.7683-7.3971 2.7683-7.3971l1.0334-1.4745-.0152-2.7711 3.4109.6413Z"
    fill="#EFBFA5" />
  <path
    d="M11.9347 51.0999c-.0421-.7359.2145-2.6559.4779-3.3439.9607-2.5088 1.1458-3.7451 1.1458-5.7871 0-2.0419-.9872-8.5162-.9872-8.5162l3.4299-1.8892 4.1115.1058 2.2831.6909s.4833 8.1455.6206 10.7708c.0979 1.8735.2396 3.4961.4263 5.667 0 0 .5234 4.9514-.2852 10.2592 0 0-.1805 1.7625-.2615 1.9169-.0106.0523-.0166.0805-.0166.0805s-.0325 0-.0329.0001l-9.1427-.0001v-3.0248c-.3044-.9709-.5935-1.9461-.8705-2.9238-.3521-1.2425-.8201-2.6403-.8985-4.0061Z"
    fill="#343434" />
  <path
    d="m13.8687 32.1342-1.5606 1.0771s1.1872 7.4566 1.2505 8.7577c.0633 1.3013-1.7639 6.501-1.7639 6.501l7.569.906s1.1134-5.5531 1.4337-8.3118c.3204-2.7586-4.2591-9.4836-4.2591-9.4836l-2.6696.5536Z"
    fill="#3629B7" />
  <path
    d="m21.4568 32.0037 1.5448.6726s-.2173 8.2892.1788 10.3946c.2415 1.2833 1.1815 5.4391 1.1815 5.4391l-2.4443.7676s-1.5048-5.1984-1.8038-7.9571c-.2989-2.7586.0268-9.6188.0268-9.6188l1.3162.302Z"
    fill="#3629B7" />
  <path
    d="M21.157 28.9658c.2005.712-.2598 1.4155-.6628 2.0161-.1646.2454-.4196.5867-.2072.8669.2378.3135.8283.2507 1.0881.0163.1834-.1656.2736-.39.3519-.6089.3506-.9808.8404-2.3545.7446-3.3854-.0768-.8266-1.1817-2.2945-2.3199-1.7693-.2066.0954-.3391.2744-.4524.4506-.0677.1051-.133.2153-.1465.3354-.0537.4786.4494.6017.7799.859.4076.3172.6962.7647.8243 1.2193Z"
    fill="#292949" />
  <path
    d="M19.2579 31.5237c.7601-.0886 1.3955-.5762 1.7356-1.1632.34-.5869.4212-1.2622.4078-1.9208-.0443-2.1915-3.2116-2.3133-4.443-.7383-1.0732 1.3725.0894 4.0798 2.2996 3.8223Z"
    fill="#EFBFA5" />
  <path
    d="M17.0957 28.7368c-.0261.2654-.1732.5469-.2138.8196-.0746.502.0478 1.1533-.1524 1.6119-.5555-.0698-1.2308-.3885-1.6424-.7383-.4203-.3572-.3446-.8883-.4386-1.4145-.0869-.4867-.1976-.9757-.1673-1.4681.1658-2.6957 3.0973-4.1698 5.6799-2.9538.9771.4601 1.4044 1.6292.6858 2.3975-.773.8263-2.3438.468-3.2694 1.0811-.2053.1361-.3633.3804-.4818.6646Z"
    fill="#292949" />
  <path
    d="M19.3215 31.2988c-.0385.1632-.0771.3263-.1155.4895-.0177.0748-.0111.2889-.0812.3402-.0366.0267-.091.0227-.139.0173-.1374-.0155-1.3665-.1591-1.3531-.2308.0359-.1923.076-.3806.1415-.5643.0527-.1484.073-.4276.1705-.5402.2087.131.4245.212.6704.2761.2373.0617.4759.1198.7154.1743-.003.0126-.006.0253-.009.0379Z"
    fill="#EFBFA5" />
  <path
    d="m16.2023 31.8251-6.0311.4022 1.3509-8.0696-2.20128.0109-3.23 8.4592 1.1217 2.6649 7.02908.5961 1.9607-4.0637Z"
    fill="#3629B7" />
  <path
    d="m22.3457 32.3501 1.5448.6727 3.7817 8.6442 4.3057 1.4364-1.6262 1.0332-4.4673-.0719-3.1629-5.1108-.3758-6.6038Z"
    fill="#8CABEF" />
  <path d="m60.2174 18.2334.2666-1.5506-1.6548-.7316-1.3839 1.5885 1.2421 1.0405 1.53-.3468Z" fill="#B97262" />
  <path
    d="m57.7864 32.7769 2.2824-6.7154-1.8007-7.6736 2.1784-.5109 2.6299 8.3031-2.7246 9.4297-2.0699-2.7479-.4955-.085Z"
    fill="#3629B7" />
  <path
    d="M62.8547 70.5416c.0035-.0046.006-.0077.006-.0077l-.0068-.0018-.3278-3.9423-2.125.4185 1.0535 3.4327-.5422 1.0443s-.2072.5238-.0135.4697c.1936-.0541 1.0321-.2687 1.0978-.3258.0555-.0485.6362-.7999.8129-1.0292l.0451-.0584ZM53.3829 67.6444l.3346 2.6839-.5559.7085.0582.4668 1.4897-.4519.6704-.3068.0433-3.7874-2.0403.6869Z"
    fill="#B97262" />
  <path
    d="m55.9043 47.5316 1.0459 7.5904.6478 2.8312 2.8349 10.46 2.5828-.4867-1.1962-11.4434.5847-7.2786.2303-1.9123.6356-2.3059-7.3658 2.5453Z"
    fill="#5655B9" />
  <path
    d="m50.6328 47.9257.4178 7.727 2.1233 12.9008 2.5435-.2669.0792-7.6344 1.3778-14.2732-2.9089-1.1135-2.3275-.5834-1.3052 3.2436Z"
    fill="#5655B9" />
  <path
    d="m53.7174 70.329-1.9657 1.8022.1509.6934 1.5896-.1667 2.0802-1.4005.0035-1.0052-.2125-.155s-1.9258 1.0887-2.0603 1.0437c-.1344-.045.4143-.8119.4143-.8119ZM61.4521 70.4595l-.9971.9805-.6034.4399.2463.7548.8827.1412 2.3256-1.2968-.2133-.9282-.2191-.214s-.9106.6888-1.7662 1.0884c-.242.1129.3445-.9658.3445-.9658Z"
    fill="#343434" />
  <path d="m53.7431 32.3604-1.851.881-5.2561 4.3033.1053 2.2054 6.6869-2.6324.3149-4.7573Z" fill="#3629B7" />
  <path
    d="M53.2361 32.6905s.896-.9761 4.2883-.9761c3.3922 0 5.9256 9.8585 5.7976 11.6278-.128 1.7694.3468 5.7571.3468 5.7571l-7.9365-1.8269s-4.4789.0078-5.567.984c-1.088.9762 2.1178-6.9668 2.1817-8.7971.0641-1.8302-.199-5.8535.8891-6.7688Z"
    fill="#0890FE" />
  <path d="m56.8936 31.9365.3109.0128-1.005 7.8554-1.7472-3.333-.32-3.5828.32-.5286 2.4413-.4238Z" fill="#fff" />
  <path
    d="M52.3656 28.787c-.2093-2.3808 3.1383-2.7985 4.6295-1.2016.9729 1.0418.7034 3.0075-.49 3.8968.0165.0497.0332.0957.0508.1333.091.1933.1556.394.2162.5993.0225.0765-1.2653.3432-1.4093.3723-.0504.0102-.1076.0194-.1495-.0063-.0806-.0492-.0986-.2821-.1261-.3616-.0324-.0939-.0649-.1879-.0974-.2818-.8125-.0316-1.5393-.5011-1.9667-1.1041-.4295-.6057-.5946-1.3308-.6575-2.0463Z"
    fill="#B97262" />
  <path
    d="M53.4182 26.1377c.2306.0849.3921.2671.5329.448.0841.1079.1664.2215.1947.3505.1129.5143-.4066.6932-.7273 1.0021-.3955.3809-.6496.8921-.7323 1.3969-.1296.7903.4413 1.5118.9392 2.1267.1754.2167.4682.5261.3668.8228-.1031.3014-.5977.4595-.8992.4464-.2755-.012-.552-.1273-.819-.0659-.2826.0651-.5879.3139-.8159.1413-.0635-.048-.1025-.1221-.1724-.1614-.2363-.1325-.4919.236-.761.1837-.1655-.0323-.2485-.2091-.2724-.3657-.0238-.1567-.0193-.3269-.1166-.457-.0836-.1118-.2255-.1699-.3376-.2571-.2215-.1724-.317-.4743-.2307-.7293.1604-.4742.819-.6604 1.0123-1.1234.1007-.2412.055-.5127.0128-.77-.0421-.2573-.0766-.5327.0425-.7662.1472-.2886.5079-.3941.6349-.7172.0746-.1899.0838-.4018.1837-.581.1315-.2362.4759-.5153.6933-.696.345-.2867.8351-.3886 1.2713-.2282Z"
    fill="#292949" />
  <path
    d="M56.8744 28.6868c.3381.6758.3199 1.5603.9474 2.023.6333.467 1.5457.2312 2.2942-.0311.1231-.0431 1.698-.5509 1.723-.5704.8056-.6257-.0552-1.0559-.1484-1.5782-.134-.7508 1.146-.6333.8631-1.2887-.1606.0361-.3159-.1014-.3659-.2499-.05-.1484-.0309-.3079-.0495-.4623-.0456-.3794-.3414-.7249-.7274-.8496-.7705-.2489-1.6706.3434-2.3959-.0063-.4499-.2169-.6454-.7146-.9916-1.0606-.6697-.6691-1.6874-.4574-2.5587-.5316-.9198-.0783-1.7155-.0043-2.5087.4693-.9832.5872-1.2999 1.8937-.4473 2.6621 1.0935.9855 3.1416.0419 4.112 1.0987.1042.1136.1861.2405.2537.3756Z"
    fill="#292949" />
  <path
    d="m60.7613 40.7505-1.8267-4.3565h-.0009c-.1751-.4723-.6615-.8125-1.2355-.8125-.6368 0-1.1663.4183-1.2819.9715l-.1246.0079v4.5139l.2893-.3528.3197.3899h.0613l.3197-.3899.3196.3899h.0613l.3196-.3899.3198.3899h.0613l.3197-.3899.3197.3899h.0612l.3198-.3899.3196.3899h.0613l.3196-.3899.3197.3899h.0613l.2961-.3614Z"
    fill="#BABCBE" />
  <path
    d="M56.3647 35.5815h-6.4018c-.716 0-1.2967.529-1.3052 1.1842 0 .0048-.0007.0094-.0007.0143 0 .0048.0007.0094.0007.0142v19.3969h5.046c.2853.2563.6755.4148 1.1063.4148.4308 0 .8209-.1585 1.1063-.4148.4193-.3768.4484-.7981.4484-1.3027l.0276-18.1084c0-.6619.5847-1.1985 1.306-1.1985h-1.3336Z"
    fill="#F7F7F7" />
  <path
    d="M53.3281 55.1999c0-.1359.0219-.267.06-.3917h-.06l-5.8266.8295.3017.3808c.3153.3978.8191.6332 1.3552.6332h5.7519c-.8738 0-1.5822-.6501-1.5822-1.4518Z"
    fill="#BABCBE" />
  <path
    d="M55.6684 40.3535h-6.3327v.2092h6.3327v-.2092ZM55.6684 41.5815h-6.3327v.2093h6.3327v-.2093ZM55.6684 42.8115h-6.3327v.2093h6.3327v-.2093ZM55.6684 44.0396h-6.3327v.2092h6.3327v-.2092ZM55.6684 45.2681h-6.3327v.2092h6.3327v-.2092ZM55.6684 46.4966h-6.3327v.2092h6.3327v-.2092ZM55.6684 47.8872h-6.3327v.2092h6.3327v-.2092ZM55.6684 49.2783h-6.3327v.2092h6.3327v-.2092ZM55.6684 50.6689h-6.3327v.2092h6.3327v-.2092ZM55.6684 39.0054h-6.3327v.2092h6.3327v-.2092Z"
    fill="#D2CFCA" />
  <path d="m46.7148 37.5449 5.1771 3.5598-.8239 1.6283-4.8219-1.9048.4687-3.2833Z" fill="#3629B7" />
  <path d="M51.8122 41.2622s.9386.2399.9386.1614v.3713l.5964.4972-.5477.8153-1.5825-.6691.5952-1.1761Z"
    fill="#3629B7" />
  <path
    d="M17.8079 39.7097c-.1517-.1171-.2782-.2657-.3684-.4152-.1554-.2575-.2242-.5606-.1878-.8553.0158-.1274.128-.2337.2752-.2294.135.0041.2639.1167.248.2449-.0366.2957.0619.5827.2769.7992.0487-.0499.1025-.0957.1603-.1365.2117-.15.5401-.3461.7988-.1893.2912.1765.2172.5248-.0029.7265-.1737.1593-.4115.2799-.655.2753.1019.2744.2413.3866.5603.3702.1938-.01.6474-.1103.7313-.3049.0544-.1262-.0625-.4182-.0784-.5586-.0442-.3896-.0413-.784.007-1.1748.0981-.7933.3839-1.564.8008-2.271.9417-1.5966 2.5056-2.8517 4.2278-3.737.095-.0489.1907-.0966.287-.1435 1.1967-.581 2.4445-.943 3.6802-1.0811.1176-.4478.3262-.8747.6311-1.2467.6808-.8301 1.8634-1.3382 2.976-1.1727-.448 1.0104-.639 2.3141-.6681 2.5272 1.3348.2592 2.5882.8133 3.6673 1.6711.0225.018.0435.0351.0639.0517l1.4466-.2438s1.4154 2.258 1.3831 3.0873c0 0-.9204.7377-1.5095 1.1035-.1157 1.1458-.6017 2.3108-1.4005 3.3781-.0529.0707-.1073.1409-.1629.2107l1.0534 1.8269s-1.3695 1.2751-2.3023 1.4229l-1.2175-1.0545c-.3798.2436-.7827.4702-1.2075.6765-.5024.2439-1.01.4542-1.518.6302l.2679 1.5322c-.6578.6246-2.5771.9464-2.5771.9464l-1.0528-1.8259c-2.615.0915-4.9274-.8776-6.1814-3.0524-.1068-.1853-.2013-.3717-.2838-.5588-.3874.1149-.7985.1484-1.1884.0249-.3002-.0951-.5369-.2664-.7133-.5045-.159-.2149-.3101-.4807-.2673-.7498Z"
    fill="#FAB994" />
  <path d="m27.7013 31.7329.1059.7878s-2.631.5357-4.73 2.2964l-.7872-.2131c0-.0002 1.4662-2.5369 5.4113-2.8711Z"
    fill="#fff" />
  <path opacity=".03"
    d="M20.5249 41.6536c1.7088 1.1313 3.9068 1.4427 6.0005 1.2834 1.5502-.118 3.1436-.4538 4.5844-1.0638 2.0857-.8831 3.6926-2.3611 5.0926-3.9696.0617-.0709.1209-.1428.179-.2151-.227.8392-.6438 1.672-1.2281 2.4524-.9052 1.2093-2.212 2.2932-3.8367 3.082-4.3209 2.0978-9.0281 1.7145-11.0451-1.7413.0823.0597.1682.1156.2534.172ZM35.2869 32.8984s1.9729 2.0057 1.2728 3.9069l.5811-.3962c-.0001.0001-.2054-2.4533-1.8539-3.5107Z"
    fill="#000" />
  <path d="m30.6381 44.3472-1.0783-.1686.6078-1.4676 1.2979-.2584.7703.7589-1.5977 1.1357Z" fill="#EFBFA5" />
</svg>