<svg width="110" height="78" viewBox="0 0 110 78" fill="none" xmlns="http://www.w3.org/2000/svg">
  <path opacity=".3"
    d="M93.1529 21.7311c-6.2573 3.2721-16.0321 6.7745-27.8054 5.4977-17.8687-1.9373-40.3618-5.6864-51.1444 1.3201.3567-6.3265 1.9491-11.8212 5.0298-15.918 3.7744-.8775 8.574-.9134 14.6353.6544 13.1347 3.397 30.1891 7.1079 42.9991 6.4596 4.1331 1.0117 9.2491 1.7279 15.8464 1.9633.1486.0055.2947.0126.4392.0229ZM101.579 40.657c-.781 4.1084-2.3136 7.9121-4.4377 11.2821-4.5236 1.3638-10.5417 1.8654-18.3365.1601-19.0444-4.1671-39.9329-4.0917-55.3671 4.9661-.2671-.2798-.5287-.5657-.7863-.8557-3.4456-3.8863-5.9316-8.5068-7.2578-13.4818 5.3933-2.559 18.9013-7.5293 36.3131-3.5488 18.3624 4.1971 39.4127 7.5333 49.8723 1.478Z"
    fill="#fff" />
  <path opacity=".6"
    d="M52.5735 78c29.0356 0 52.5735-1.7198 52.5735-3.8413 0-2.1214-23.5379-3.8412-52.5735-3.8412C23.538 70.3175 0 72.0373 0 74.1587 0 76.2802 23.538 78 52.5735 78Z"
    fill="#D1E3F1" />
  <path
    d="M97.6652 62.2366c2.8108-3.3465 5.5488-7.0083 7.0768-9.6471 1.997-3.4475 2.852-6.2399 2.541-8.2997-.021-.1365-.148-.2306-.284-.2098-.136.0208-.23.148-.21.2845.544 3.6007-2.806 9.7409-9.6896 17.7721l.5658.1Z"
    fill="#1C47C1" />
  <path
    d="M106.266 49.3675s1.686 1.2328 3.734-1.8199c0 0-3.115-1.154-3.734 1.8199ZM105.292 50.9961s1.322-1.6169-1.607-3.8347c0 0-1.323 3.05 1.607 3.8347ZM107.046 45.8934s1.785-1.0826-.238-4.1517c0 .0003-2.263 2.4338.238 4.1517ZM103.432 54.3327s1.17 1.7309 4.128-.448c0 .0003-2.541-2.1407-4.128.448ZM102.189 55.8411s1.581-1.3634-.921-4.0552c0 0-1.8301 2.7747.921 4.0552ZM100.691 58.076s1.137 1.7528 4.136-.3695c0 0-2.5-2.1888-4.136.3695Z"
    fill="#0172D0" />
  <path
    d="M56.5314 5.44898c-3.1465.5118-3.4422 3.55496-5.8941 3.17316-2.4516-.3818-4.5181.92499-4.3413 3.11106.1775 2.1868.4299 3.786-2.1422 4.4411-2.5722.6547-4.1935 3.5925-2.4192 5.0671.4415.3675.9202.7643 1.39 1.1526.1284.1061.2562.2119.3819.3159.0289.0243.0582.0488.0872.0724 1.8898 1.5627 4.6701 1.4859 6.4194-.2327.708-.6957 1.1693-1.5781.9959-2.6682-.5427-3.4137 2.6082-1.8022 4.2574-3.5816 1.9007-2.0489.3274-4.2203 1.898-5.5899 2.1841-1.90453 2.5135-5.77238-.633-5.26092Z"
    fill="#3629B7" />
  <path
    d="M54.7164 9.20418 43.124 22.3943c.1285.1061.2562.2119.3819.3159L55.0877 9.53208c.0903-.1027.0804-.25965-.0221-.35007-.1022-.09042-.2589-.08053-.3492.02217Z"
    fill="#5655B9" />
  <path
    d="M45.0678 1.33824c-2.4644 2.02468-1.1944 4.80546-3.5066 5.70793-2.3115.90248-3.4436 3.07213-2.1947 4.87373 1.2497 1.8018 2.2697 3.0578.3738 4.918-1.8963 1.8596-1.8257 5.2156.4483 5.5984.5659.0959 1.1788.1983 1.7797.2979.1642.027.3278.0546.4889.0812.0371.0065.0746.013.1117.0188 2.4175.4012 4.7839-1.0635 5.4349-3.4294.2634-.9578.2201-1.9527-.4766-2.8081-2.1807-2.6794 1.3522-2.8702 1.8867-5.2384.6163-2.72794-1.8329-3.81432-1.161-5.7885.9338-2.74564-.7202-6.256243-3.1851-4.23156Z"
    fill="#0890FE" />
  <path
    d="M45.3808 5.49779 41.9685 22.7338c.1642.027.3277.0546.4889.0813l3.4092-17.22075c.0266-.13443-.0603-.26511-.1946-.29172-.1342-.02662-.2647.06073-.2912.19516ZM16.0105 48.9048c2.8007 1.5249 2.0748 4.495 4.5151 4.9464 2.4396.4514 3.9587 2.3693 3.0698 4.3739-.8891 2.0049-1.6553 3.4304.5557 4.9006 2.2113 1.4696 2.7718 4.7792.6101 5.5831-.5379.2006-1.1205.4166-1.6921.6274-.1561.0577-.3117.1154-.4651.1717-.0354.0133-.0708.0266-.1062.0392-2.2993.8492-4.898-.144-5.9817-2.3454-.4385-.8912-.5826-1.8763-.059-2.8477 1.6391-3.0421-1.8665-2.5644-2.8358-4.7901-1.1171-2.5631 1.0844-4.0913.0542-5.9037-1.4316-2.5205-.4657-6.2802 2.335-4.7554Z"
    fill="#3629B7" />
  <path
    d="m16.4837 53.0498 6.5857 16.2868c-.156.0577-.3117.1153-.465.1716L16.0248 53.236c-.0514-.1269.0096-.2715.1363-.3231.1268-.0512.2712.0099.3226.1369Z"
    fill="#5655B9" />
  <path
    d="M8.11397 55.328c3.15983.4211 3.54273 3.4547 5.98273 3.0022 2.4392-.4521 4.5429.795 4.4288 2.9852-.1148 2.1908-.3212 3.7965 2.2686 4.3776 2.5899.5804 4.295 3.4703 2.5633 4.9955-.4306.3801-.8977.7906-1.3563 1.1921-.1253.1096-.25.2191-.3727.3269-.0282.0253-.0565.0502-.0851.0747-1.8441 1.6163-4.6255 1.6197-6.4236-.0481-.7277-.6752-1.2142-1.5436-1.0718-2.6381.4446-3.4281-2.6586-1.7265-4.35862-3.4577-1.95858-1.9937-.448-4.2094-2.05738-5.5329-2.23759-1.8415-2.67775-5.6984.48207-5.2774Z"
    fill="#0890FE" />
  <path
    d="M10.0356 59.0293 22.001 71.8806c-.1254.1096-.2501.2191-.3727.3269L9.6738 59.3678c-.09335-.1-.0879-.2572.01192-.3504.09982-.0935.25654-.088.34988.0119ZM20.9016 22.0637c-1.9545-3.9098-3.7656-8.11-4.6384-11.0327-1.1399-3.81838-1.3218-6.73359-.5403-8.6641.0518-.12795.1973-.18971.3253-.13784.1278.05186.1895.19755.1377.32584-1.3658 3.37481.463 10.1278 5.2894 19.5439l-.5737-.0351Z"
    fill="#1C47C1" />
  <path
    d="M15.5303 7.54221s-1.9259.80557-3.2075-2.64089c0 0 3.2971-.39579 3.2075 2.64089ZM16.0992 9.35299s-.91-1.88103 2.4543-3.35433c0 .00034.5781 3.27518-2.4543 3.35433ZM15.5804 3.9818S14.096 2.51226 16.7779 0c0 0 1.6349 2.8944-1.1975 3.9818ZM17.1315 13.0318s-1.5402 1.4105-3.9103-1.3986c0 0 2.969-1.4893 3.9103 1.3986ZM17.9902 14.789s-1.2213-1.6951 1.8383-3.729c-.0003 0 1.1345 3.1254-1.8383 3.729ZM18.9272 17.3119s-1.5133 1.4391-3.9362-1.3242c0-.0004 2.9404-1.5453 3.9362 1.3242Z"
    fill="#0172D0" />
  <path
    d="M50.3964 16.5011v54.2716c0 1.7012-1.3767 3.08-3.0753 3.08h-26.985c-.8534 0-1.6251-.3477-2.1824-.9096-.5519-.5572-.893-1.3239-.893-2.1704V16.5011c0-1.7012 1.3767-3.08 3.0754-3.08h26.985c.5021 0 .976.1204 1.395.3344.9976.509 1.6803 1.5473 1.6803 2.7456Z"
    fill="#5655B9" />
  <path
    d="M50.3965 16.5011v54.2716c0 1.7012-1.3767 3.08-3.0753 3.08h-26.985c-.8534 0-1.625-.3476-2.1824-.9096l30.5625-59.1876c.9975.5091 1.6802 1.5473 1.6802 2.7456ZM17.2612 30.3538h-.5455c-.3202 0-.5795-.26-.5795-.5803v-6.0089c0-.3207.2596-.5804.5795-.5804h.5455v7.1696Z"
    fill="#5655B9" />
  <path d="M50.3967 28.4779h.4463c.262 0 .4742-.2125.4742-.4749v-4.8884c0-.2624-.2122-.475-.4742-.475h-.4463v5.8383Z"
    fill="#343434" />
  <path d="M17.2612 38.4966h-.5455c-.3202 0-.5795-.26-.5795-.5803v-6.0089c0-.3207.2596-.5807.5795-.5807h.5455v7.1699Z"
    fill="#5655B9" />
  <path
    d="M18.7949 69.1636V18.1102c0-1.7411 1.4094-3.1527 3.1479-3.1527h23.772c1.7385 0 3.1479 1.4116 3.1479 3.1527V69.164c0 1.7411-1.4094 3.1523-3.1475 3.1523H21.9425c-1.7385 0-3.1476-1.4115-3.1476-3.1527Z"
    fill="#fff" />
  <path opacity=".6"
    d="M43.7775 22.4203H23.8797c-.3012 0-.5455-.2447-.5455-.5463v-1.0277c0-.3016.2443-.5463.5455-.5463h19.8978c.3011 0 .5454.2447.5454.5463v1.0277c0 .302-.2443.5463-.5454.5463ZM30.3051 27.4154h-9.1705c-.2187 0-.3958-.1774-.3958-.3965v-.7462c0-.2191.1771-.3965.3958-.3965h9.1705c.2187 0 .3959.1774.3959.3965v.7462c0 .2191-.1772.3965-.3959.3965ZM30.3051 30.3692h-9.1705c-.2187 0-.3958-.1775-.3958-.3965v-.7462c0-.2191.1771-.3965.3958-.3965h9.1705c.2187 0 .3959.1774.3959.3965v.7462c0 .2187-.1772.3965-.3959.3965ZM30.3051 33.0735h-9.1705c-.2187 0-.3958-.1774-.3958-.3965v-.7462c0-.219.1771-.3964.3958-.3964h9.1705c.2187 0 .3959.1774.3959.3964v.7462c0 .2188-.1772.3965-.3959.3965Z"
    fill="#D1E3F1" />
  <path d="M36.6064 43.9731h-5.9057v25.3434h5.9057V43.9731Z" fill="#FFAF2A" />
  <path d="M30.7007 62.632c2.0924-.6472 4.0541-1.8077 5.9057-3.0551v9.7396h-5.9057V62.632Z" fill="#FB6B18" />
  <path d="M26.9536 51.0155h-5.9057v18.3013h5.9057V51.0155Z" fill="#FFAF2A" />
  <path
    d="M25.8607 63.0613c.3682.0536.7324.0863 1.0932.1003v6.1549h-5.906v-6.0972c1.0452-.3446 2.5741-.4856 4.8128-.158Z"
    fill="#FB6B18" />
  <path d="M46.259 36.4012h-5.9057v32.9153h5.9057V36.4012Z" fill="#FFAF2A" />
  <path d="M46.2592 54.4405v14.8759h-5.9057V56.966c2.099-1.4276 4.0551-2.533 5.9057-2.5255Z" fill="#FB6B18" />
  <path
    d="m46.038 26.646-5.3745 1.1543 1.4434 1.4177-8.2288 8.4017-2.8876-2.8368-10.9168 11.1463 1.4384 1.4133 9.506-9.7058 2.8876 2.8368 9.6396-9.8423 1.4431 1.4177 1.0496-5.4029ZM102.33 43.9837c-.22-.0146-.443-.0163-.666.0021-.446.0385-.896.1501-1.315.3453-.4207.1945-.8064.4743-1.1321.811-.0892.0925-.1734.1901-.2528.2907-.0892-.0358-.1788-.0696-.2691-.103-.2245-.0758-.4514-.1474-.6895-.1966-.1169-.029-.2389-.045-.3591-.0658-.1223-.0137-.2443-.0304-.3686-.0355-.0654-.0044-.1312-.0065-.1973-.0065-.4344-.0048-.8827.0659-1.3058.2262-.2433.0922-.476.2147-.6923.3651-.1083.0751-.2115.158-.311.2484-.0494.0447-.0978.0932-.1458.1433-.0239.0263-.0474.0512-.0719.0802-.0119.0143-.0239.0283-.0371.044l-.0198.0249-.0266.0348.9277.6678.0031-.0035.0153-.0174c.0109-.0119.0245-.0262.0371-.0392.0266-.0266.0549-.0546.0855-.0805.061-.0529.1261-.1041.1959-.1505.1387-.0921.2906-.1679.4487-.2282.3182-.1188.6694-.1628 1.0306-.1423.0712.0017.143.0102.2146.0184.0197.002.0385.0044.0582.0061.0914.0164.1827.0267.2746.0495.1837.0358.3673.0935.5499.1536.0163.0061.033.0119.0494.0184-.1659.3784-.2838.7776-.3536 1.1873-.0784.4624-.0947.939-.0266 1.4212.0364.2412.092.4841.1887.7243.0474.1205.1039.2395.1745.3569.0701.117.1512.232.2524.3392.1002.1068.2177.2064.3529.2876.0348.0191.0678.0403.1046.0573.0358.0164.0733.0345.1087.0485.0647.0235.1301.0457.1959.0675.2671.0792.57.1085.8697.0512.3-.0556.586-.1982.811-.3937.227-.1949.396-.4368.512-.6913.233-.5125.265-1.0707.171-1.5876-.048-.2597-.136-.5077-.244-.7428l-.087-.1733c-.03-.0567-.065-.1106-.097-.1655l-.05-.0822-.055-.0778-.112-.1553c-.294-.3698-.649-.6766-1.027-.925-.028-.0181-.055-.0355-.0819-.0522-.0255-.0157-.0504-.0331-.0766-.0484l-.0784-.0447-.1577-.0877c-.0072-.0045-.014-.0082-.0208-.012.2698-.3579.6014-.6701.9854-.9171.335-.2163.71-.3818 1.108-.504.199-.0583.404-.1078.613-.1477.105-.0191.21-.0392.317-.0522.106-.0181.213-.0266.322-.043-.213-.0474-.43-.0809-.65-.0983Zm-3.2095 2.7921.125.0669.0627.0337c.0208.0116.0395.0249.0596.0372.0692.042.137.086.2028.1324.2388.1655.4514.3572.6284.5708l.079.1051.04.0522.035.055c.023.0365.048.0723.07.1095l.06.1139c.075.1536.138.3126.172.476.069.3242.053.6643-.065.9428-.06.1371-.139.2593-.236.3487-.096.0904-.206.1497-.327.1788-.1219.029-.2589.0255-.405-.0099-.0365-.0116-.0733-.0226-.1104-.0328-.0272-.0109-.0511-.0201-.0766-.0341-.0505-.0266-.1005-.0642-.1503-.1116-.049-.0467-.095-.1068-.1386-.1726-.0436-.0655-.0828-.1389-.1169-.2181-.0702-.1569-.1213-.3333-.1587-.5159-.0712-.3674-.0801-.7619-.0331-1.1501.0402-.3399.1213-.6777.2419-.9994.0146.0068.0283.014.0412.0215Z"
    fill="#3629B7" />
  <path
    d="M97.4285 46.2175c-.0718-.0081-.1434-.0167-.2146-.0184-.3611-.0208-.7124.0236-1.0305.1423-.1585.0604-.3101.1361-.4487.2283-.0695.0464-.1349.0976-.1959.1504-.0303.0263-.0586.0539-.0855.0806-.0126.0129-.0263.0273-.0372.0392l-.0153.0174-.0054.0065c0-.0004.001-.0017.002-.0034l-.9277-.6678.0266-.0348.0198-.0249c.0129-.0157.0248-.03.0371-.044.0245-.0286.048-.0539.0719-.0802.048-.0501.0964-.0986.1458-.1433.0995-.0904.2027-.1733.311-.2484.2164-.1504.4494-.2729.6923-.365.4231-.1601.8711-.231 1.3058-.2263.1223.3344.26.7619.3485 1.1918ZM100.049 45.9914c-.3076.3244-.4292.7543-.4782 1.0543-.0658-.0464-.1339-.0905-.2027-.1324-.0201-.012-.0392-.0256-.0597-.0372l-.0627-.0338-.125-.0669c-.0129-.0075-.0266-.0146-.0409-.0218.1898-.5708.5543-1.0076.5543-1.0076.0065.0038.0136.0075.0208.012l.1577.0877.0784.0447c.0262.0153.0511.0327.0766.0484.027.0174.0534.0348.0814.0526ZM60.2851 66.0556l-.9195 5.0409-.6037 3.3065c-3.0334 1.2092-5.8798-.7827-5.8798-.7827V63.5348l7.403 2.5208Z"
    fill="#5655B9" />
  <path d="m52.8821 63.5338 7.4033 2.5211-.9195 5.0409c-2.5248-.8267-4.7872-2.1574-6.4835-3.3434v-4.2186h-.0003Z"
    fill="#3629B7" />
  <path d="M85.6748 63.5338v10.0855s-2.8464 1.992-5.8805.7828l-.5945-3.2595-.9283-5.0877 7.4033-2.5211Z"
    fill="#5655B9" />
  <path d="M85.6748 63.5338v4.6826c-1.8076 1.3795-4.0497 2.3134-6.475 2.9262l-.9283-5.0877 7.4033-2.5211Z"
    fill="#3629B7" />
  <path
    d="M96.2949 47.4742c0 1.7329-.2249 3.4198-.6511 5.0402 0 0 0 .001-.001.0027-2.6307 10.0064-12.9203 17.4708-25.2151 17.4708-11.9085 0-21.9382-7.0048-24.945-16.539-.3008-.9512-.5311-1.9281-.6868-2.9254-.1554-.9974-.2351-2.0155-.2351-3.0493 0-12.4344 11.5818-22.5148 25.8669-22.5148 4.0197 0 7.8261.7984 11.2199 2.2226 0 0 .0011.001.0018.001 8.6659 3.6379 14.6455 11.3565 14.6455 20.2912Z"
    fill="#3629B7" />
  <path
    d="M95.6424 52.5175c-2.6307 10.0064-12.9203 17.4708-25.2151 17.4708-11.9085 0-21.9382-7.0048-24.945-16.539l-.0004-2.4334s8.0878 15.3222 25.4019 16.0729c17.1812.7448 24.6455-14.3256 24.7586-14.5713Z"
    fill="#5655B9" />
  <path d="M45.4822 41.6575V53.449h-5.1171c-1.1525-3.9647-1.1733-7.8964 0-11.7915h5.1171Z" fill="#3629B7" />
  <path d="M40.3651 53.449c-1.1525-3.9647-1.1733-7.8964 0-11.7915 0 0 1.8417 5.8167 0 11.7915Z" fill="#5655B9" />
  <path
    d="M40.5362 47.5783c0 1.0837-.0888 1.9623-.198 1.9623-.1096 0-.1981-.8786-.1981-1.9623 0-1.0836.0888-1.9622.1981-1.9622.1092.0003.198.8786.198 1.9622Z"
    fill="#0036AC" />
  <path
    d="m71.7545 54.7223.002 2.4529-3.1114.0028-.0021-2.3424c-2.2066-.1307-4.3477-.7254-5.6723-1.5419l1.6734-3.8026c1.4571.8605 3.3993 1.4112 5.0987 1.4098 1.4785-.0014 2.0076-.3112 2.0072-.8417-.0017-1.9449-8.5398-.3678-8.5449-6.1362-.0024-2.4972 1.8053-4.5983 5.4236-5.1098l-.002-2.4089 3.1114-.0027.0021 2.3645c1.6332.1532 3.2221.5719 4.4806 1.2778l-1.5634 3.7805c-1.5232-.7721-2.9578-1.1464-4.3038-1.1454-1.5225.0014-2.0076.4439-2.0073.9741.0017 1.8565 8.5399.3017 8.545 6.0034.0023 2.3871-1.7171 4.4664-5.1368 5.0658Z"
    fill="#5655B9" />
  <path
    d="M58.9653 27.467s-1.3392 2.1205-4.0186 3.1782c-.6766.2675-1.4391.4668-2.287.5473l-2.3245-8.386c.0801.028 6.1377 2.1267 8.6301 4.6605Z"
    fill="#3629B7" />
  <path
    d="M54.9467 30.6452c-.6766.2675-1.4391.4668-2.287.5473l-2.3245-8.386.0007.0004c.0599.0559 3.9376 4.0967 4.6108 7.8383Z"
    fill="#5655B9" />
  <path
    d="m79.2372 27.2223-.1124.5869-.1945 1.0201c-8.4121-2.4375-16.9551-.3258-17.0406-.3043l-.171-1.0222-.0998-.5944c.3598-.0915 8.9095-2.2083 17.6183.3139Z"
    fill="#0036AC" />
  <path
    d="m79.1251 27.8092-.1948 1.0208c-.3925-.1136-.786-.2176-1.1785-.3125-.668-.1604-1.3341-.2955-1.9936-.4053-.9526-.1604-1.8922-.2723-2.8076-.3443-.0497-.0038-.0984-.0075-.1478-.0113-.4102-.031-.8149-.0535-1.2132-.0703-.015 0-.029-.001-.0439-.001-.46-.0187-.9117-.0273-1.3519-.029h-.1686c-.0273 0-.0545 0-.0814.001-1.0725.0028-2.0795.0516-2.9939.1239-.0338.0017-.0665.0048-.0992.0085-.297.0236-.5825.0498-.8581.0778-.0208.0028-.0402.0048-.061.0065-.3308.0348-.6446.0713-.9413.1099-.8262.1061-1.5147.2204-2.0319.318-.6687.1249-1.0503.2187-1.068.2235l-.1526-.9093c.1312-.0318.3737-.0901.7158-.1624h.001c.0402-.0086.0824-.0178.1254-.0273.4486-.0929 1.0445-.2065 1.762-.318.743-.1143 1.6168-.228 2.5912-.3126.0197-.002.0385-.0037.0579-.0058h.001c.092-.0075.1853-.016.2801-.0225.1846-.015.3737-.029.5658-.0413.031-.0017.0617-.0037.0927-.0055.0245-.002.0487-.0027.0739-.0047.8974-.0546 1.8632-.0816 2.8777-.0659.0804.001.1622.0021.2436.0038.3758.0085.7581.0225 1.1457.043.2344.0123.4702.0273.7083.045.2324.0167.4657.0365.7018.0601.0504.0037.1022.0092.1537.015.8598.0842 1.7415.2064 2.6334.3715.6163.1137 1.2384.2488 1.8632.4071.2637.0672.5281.1375.7931.2136Z"
    fill="#1C47C1" />
  <path
    d="M78.3319 27.5962c-.0065.0123-.014.0253-.0215.0376-.1676.3057-.355.6005-.5583.8837-.6681-.1604-1.3342-.2955-1.9937-.4054-.9526-.1604-1.8922-.2723-2.8076-.3443-.0497-.0037-.0984-.0075-.1478-.0112-.4102-.0311-.8149-.0536-1.2132-.0703-.015 0-.0289-.001-.0439-.001-.4599-.0188-.9117-.0273-1.3519-.029h-.1686c-.0272 0-.0545 0-.0814.001-1.0725.0027-2.0795.0515-2.9939.1238-.0337.0018-.0664.0048-.0992.0086-.297.0235-.5825.0498-.8581.0778-.0208.0027-.0402.0047-.061.0065-.3308.0348-.6446.0713-.9413.1098-.8262.1061-1.5147.2204-2.0318.318-.1687-.2514-.3244-.5104-.4685-.7786v-.001c-.0112-.0208-.0225-.0413-.0327-.0628-.001-.0017-.0017-.0038-.0027-.0055h-.001c-.001-.001-.001-.002-.0017-.0027-.031-.059-.061-.1184-.091-.1784-.0092-.0188-.0187-.0376-.0279-.0563-.032-.0659-.0627-.1324-.0927-.199-.4769-1.0451-.7607-2.201-.8047-3.4208-.0037-.1116-.0054-.2232-.0047-.3351.002-4.8273 3.8221-8.8231 8.6785-8.9974 1.1954-.0423 2.3438.1501 3.4023.5367.0627.0235.1254.0471.1874.0713.0113.0037.0225.0085.0327.013.06.0235.1199.0477.1789.0733.0357.014.0695.029.1039.044.0027.0011.0058.0028.0085.0038.03.0123.061.0252.091.0396.8629.3882 1.6543.9082 2.3476 1.5357.1536.1378.3015.2815.4449.4296.5097.5282.9556 1.1184 1.3246 1.7592.3812.6616.681 1.3764.8861 2.1318.1499.5517.2484 1.125.2903 1.7152.0092.1116.015.2235.0197.3351.0593 1.6797-.3434 3.269-1.0956 4.6437Z"
    fill="#FFAF2A" />
  <path opacity=".5"
    d="M79.1169 20.9019 77.59 22.5598l-.06.0658-3.8483 4.177-.8786.954c-.4102-.0311-.8149-.0536-1.2132-.0703-.015 0-.0289-.001-.0439-.001-.4599-.0188-.9117-.0273-1.3519-.029h-.1686c-.0272 0-.0545 0-.0814.001l.0787-.0843.0422-.045.818-.8772 2.7759-2.977.1029-.1109 2.9574-3.1711.2051-.2204 1.3069-1.4006c.3808.6609.6806 1.3757.8857 2.1311ZM74.1133 15.0459 62.489 27.5225c-.0886-.1651-.1721-.3333-.2497-.5046l11.2714-12.2174c.2044.0748.4054.1563.6026.2454ZM76.906 17.0109l-1.2329 1.3334-.3062.3313-2.237 2.4208-.3458.3743-.0701.0761-.2474.2665-.4739.5131-.2923.3163-1.364 1.4757-.309.334-.5284.5715-.2961.3208-1.2523 1.3549-.0198.0215-.2398.2579-.741.8022c-.0337.0017-.0664.0048-.0992.0085-.297.0236-.5825.0498-.8581.0778l.9985-1.0772h.001l.3261-.3517.1499-.1614 1.0632-1.1465.2613-.2814.5049-.5443.2961-.32 1.3678-1.474.311-.335.5339-.577.2783-.2992 1.2149-1.3099.0617-.0665 1.5344-1.6542.3335-.3593 1.2319-1.3286c.1537.1378.3015.2815.4449.4296Z"
    fill="#fff" />
  <path
    d="M77.6257 23.347c-.014 1.4091-.4357 2.7292-1.157 3.8419-.2115.3265-.4497.6353-.7099.9233-.9526-.1604-1.8922-.2723-2.8076-.3443-.0497-.0038-.0984-.0075-.1478-.0113-.4102-.031-.8149-.0535-1.2132-.0702-.015 0-.029-.0011-.044-.0011-.4599-.0187-.9116-.0273-1.3518-.029h-.1686c-.0273 0-.0545 0-.0814.0011-1.0725.0027-2.0795.0515-2.9939.1238-.0338.0017-.0665.0048-.0992.0085-.297.0236-.5825.0499-.8581.0778-.0208.0028-.0402.0048-.061.0065-.3308.0348-.6446.0713-.9413.1099-.044-.0498-.0862-.1003-.1274-.1512-.029-.0348-.0573-.0703-.0852-.1061-.0017-.002-.0038-.0037-.0048-.0065-.031-.0395-.062-.0788-.0916-.119-.0058-.0065-.0102-.013-.015-.0198-.029-.0386-.0573-.0778-.0852-.1174-.0589-.0816-.1162-.1641-.1703-.2487-.0235-.0359-.046-.0714-.0685-.1072-.0092-.0129-.0177-.0273-.0262-.0413-.0198-.0317-.0392-.0648-.0583-.0965-.1376-.2279-.2613-.4644-.3727-.7073-.0208-.0461-.0412-.0922-.061-.1379-.0037-.0075-.0065-.016-.0102-.0235-.016-.0376-.0317-.0761-.0467-.1136-.0102-.0243-.0208-.0488-.03-.0741-.0177-.044-.0347-.089-.0514-.1341-.0198-.0505-.0375-.1023-.0552-.1528-.0092-.0283-.0187-.0563-.0289-.0846-.0038-.0103-.0065-.0209-.0096-.0311-.0027-.0102-.0065-.0198-.0092-.03-.0197-.0618-.0395-.1239-.0572-.1867-.0017-.0047-.0027-.0092-.0048-.0139-.0187-.0628-.0354-.1266-.0525-.1915-.0102-.0392-.0207-.0798-.0299-.1201-.0208-.0825-.0396-.1661-.0562-.2504-.0065-.03-.0123-.0611-.0178-.0921-.0085-.0396-.0149-.0788-.0224-.1191-.0038-.0225-.0075-.045-.0103-.0676-.0064-.0354-.0122-.0702-.0167-.1061-.0047-.028-.0085-.0573-.0122-.0863-.0085-.058-.016-.1174-.0215-.1764-.0085-.0693-.015-.1389-.0208-.2092-.0085-.1088-.015-.2197-.0187-.3302-.1424-3.9706 2.9677-7.3164 6.9322-7.459.681-.0242 1.3443.0478 1.9756.2037.2173.0536.4309.1174.6398.1904h.001c.9086.3163 1.7351.8107 2.4393 1.4429.1546.1389.3025.2832.4439.4344.5049.5377.9283 1.1532 1.2506 1.8267.3513.7346.5826 1.5389.6661 2.3888.0149.1511.0252.303.031.4569.0027.1108.0037.2207.0037.3306Z"
    fill="#FA8A00" />
  <path
    d="M77.6258 23.347c-.0139 1.4091-.4357 2.7292-1.1569 3.8419-.2116.3265-.4497.6353-.71.9233-.9525-.1604-1.8921-.2723-2.8075-.3443-.0498-.0038-.0985-.0075-.1479-.0113-.4102-.031-.8149-.0535-1.2132-.0703-.0149 0-.0289-.001-.0439-.001-.4599-.0188-.9117-.0273-1.3518-.029h-.1687c-.0272 0-.0545 0-.0814.001-1.0724.0028-2.0795.0516-2.9939.1239-.0337.0017-.0664.0048-.0991.0085-.2971.0236-.5826.0498-.8582.0778-.0208.0027-.0402.0048-.061.0065-.3308.0348-.6446.0713-.9413.1099-.0439-.0499-.0862-.1004-.1274-.1512-.029-.0348-.0572-.0703-.0852-.1061-.0017-.0021-.0037-.0038-.0047-.0065-.031-.0396-.062-.0788-.0917-.1191-.0058-.0064-.0102-.0129-.015-.0198-.0289-.0385-.0572-.0777-.0851-.1173-.059-.0816-.1162-.1641-.1704-.2488-.0235-.0358-.046-.0713-.0685-.1071-.0092-.013-.0177-.0273-.0262-.0413-.0198-.0317-.0392-.0648-.0583-.0965-.1376-.228-.2613-.4644-.3727-.7074-.0207-.046-.0412-.0921-.0609-.1378-.0038-.0075-.0065-.016-.0103-.0235-.016-.0376-.0316-.0761-.0466-.1137-.0103-.0242-.0208-.0488-.03-.074-.0177-.044-.0348-.0891-.0515-.1341-.0197-.0505-.0374-.1024-.0551-.1528-.0092-.0291-.0198-.0574-.028-.0864-.0037-.0092-.0065-.0198-.0102-.029-.0027-.0102-.0065-.0198-.0092-.03-.0198-.0618-.0395-.1239-.0572-.1866-.0017-.0048-.0028-.0092-.0048-.014-.0187-.0628-.0354-.1266-.0525-.1914-.0102-.0393-.0207-.0799-.0299-.1201-.0208-.0826-.0396-.1662-.0563-.2505-.0064-.03-.0122-.0611-.0177-.0921-.0085-.0396-.015-.0788-.0225-.1191-.0037-.0225-.0075-.045-.0102-.0675-.0065-.0355-.0122-.0703-.0167-.1062-.0047-.0279-.0085-.0573-.0122-.0863-.0086-.058-.016-.1174-.0215-.1764-.0085-.0692-.015-.1388-.0208-.2091.0375-3.8242 3.0832-6.9909 6.937-7.1287.4882-.0178.9658.015 1.4315.0911.0048.001.0085.002.013.0027.0545.0092.1086.0188.1631.029.059.0113.1179.0236.1762.0365.1134.0236.2248.0505.3362.0805h.001c.0038.0011.0058.0021.0092.0028.9369.2531 1.7995.6923 2.5473 1.2761.0075.0058.014.0112.0215.0167.1536.1218.3025.2494.4469.3828.0086.0075.0161.015.0246.0235.5321.4982.9893 1.0762 1.3518 1.7159.029.0505.0572.1024.0841.1539.3428.6418.5911 1.3399.7271 2.08.0112.061.0214.1218.031.1829.0269.1777.0483.3579.0626.5391Z"
    fill="#FB6B18" />
  <path opacity=".5"
    d="m77.5605 22.8082-3.7257 4.0091-.8844.9506c-.0497-.0038-.0985-.0075-.1479-.0113-.4101-.031-.8149-.0536-1.2131-.0703-.015 0-.029-.001-.044-.001-.4599-.0188-.9116-.0273-1.3518-.029l.9321-1.0021 2.6277-2.8279.0766-.0825 2.9725-3.1985c.3427.6418.5911 1.3399.727 2.08.0112.0611.0214.1222.031.1829ZM72.3272 16.977l-8.5038 9.1479c-.0909-.2091-.172-.4244-.2419-.6431l8.0462-8.6566c.2365.0386.4705.0897.6995.1518ZM75.3425 18.652l-2.1735 2.3389-.3448.3696-.1536.1661-.2491.2682-.4814.5179-.296.318-1.3716 1.4757-.31.3341-.5301.5705-.294.3162-1.2534 1.3492-.0467.0498-.2108.2262-.7765.8369c-.297.0236-.5825.0499-.8581.0778-.0208.0028-.0402.0048-.061.0065l1.0016-1.0782.3495-.3763.2249-.2412.9873-1.0632.2602-.2795.5032-.5415.2951-.3173 1.3688-1.4729.3121-.3351.5376-.579.28-.3013 1.2197-1.3126.1172-.1255 1.4857-1.5989c.0075.0058.0139.0113.0214.0167.1533.1232.3022.2508.4463.3842Z"
    fill="#FFCE4F" />
  <path
    d="M73.996 24.7661c-.0065-.1737-.028-.333-.0637-.4794v-.001c-.0423-.1699-.1022-.3217-.1789-.4589-.0283-.0536-.06-.1041-.0957-.1529-.429-.6172-1.2067-.8772-1.9579-1.0311-.0188-.0037-.0375-.0075-.0562-.0112-.2351-.0468-.4664-.0843-.6831-.1201-.0129-.0021-.0262-.0038-.0392-.0065-.6687-.1089-1.1842-.2044-1.1954-.5217-.0028-.0665.0112-.1314.046-.1904.0984-.1709.3662-.2992.9161-.318.3464-.0123.7082.0252 1.083.1163.0112.0028.0225.0059.0347.0086.2014.0505.4065.1153.6156.1962.015.0058.03.0123.045.0177.1124.044.2259.0928.341.1464l.3223-.8632.0392-.1051.3362-.9025c-.0572-.029-.1144-.0573-.1744-.0843-.0102-.0048-.0204-.0095-.0317-.014-.0092-.0037-.0187-.0085-.0282-.0129-.5819-.2525-1.2704-.3941-1.9729-.4354l-.014-.3931-.0273-.7598-.0439.002-.2061.0075h-.0167l-.8255.0301-.0279.001-.3972.014.0139.3978v.001l.001.0301v.001l.0273.7448c-.3652.0648-.6923.1624-.9791.287l-.001.001h-.0011c-.0214.0075-.0412.0167-.0616.0273-.7672.349-1.2411.897-1.4278 1.5357-.0065.0236-.0133.0468-.0188.0713v.0011c-.0545.2118-.0776.4333-.0695.6615.0011.0273.0021.0536.0048.0799.0027.0488.0065.0948.0123.1406v.001c.001.0075.0017.015.0027.0225.1516 1.1662 1.0691 1.6139 2.0151 1.8483.013.0037.0263.0075.0392.0102.2238.0546.4487.0976.665.1362.0215.0037.0429.0075.0647.0112.6119.1061 1.142.1802 1.3611.3791.0657.06.1039.1314.1069.2187.0092.2579-.2435.4183-.9641.4446-.4252.015-.8844-.0393-1.3283-.1501-.0215-.0048-.0429-.0103-.0647-.0168-.2082-.0535-.4123-.1201-.6071-.1968-.0123-.0048-.0246-.0092-.0365-.015-.1659-.0666-.325-.1406-.4739-.2225l-.5134 1.2853-.0395.0986-.0787.1969-.1172.2937-.0037.0093c.1097.0621.2296.1211.3587.1753.0208.0092.0423.0178.0637.0263.6333.258 1.4707.4258 2.3262.4514.015.001.0289.0017.0439.0017l.0038.0956.0048.1286h.1246c.4402.002.8919.0102 1.3519.029.015 0 .0289.001.0439.001l-.0129-.362c.5675-.1201 1.035-.3218 1.4032-.5817.7059-.4996 1.0442-1.2127 1.017-1.978Z"
    fill="#FA8A00" />
  <path
    d="M73.9323 24.286v-.0011c-.013-.1999-.0477-.379-.1022-.5414-.0198-.0628-.043-.1229-.0695-.1812-.3196-.7142-1.0286-1.0451-1.7689-1.2365-.0177-.0048-.0347-.0092-.0524-.013-.2239-.0553-.4507-.0993-.6681-.1368-.0129-.0021-.0262-.0048-.0385-.0065-.6558-.1116-1.2336-.1764-1.4615-.377-.0647-.0563-.1012-.1239-.1039-.2054-.0092-.259.219-.4832.9621-.5094.4507-.0161.9235.0535 1.4209.2118.0113.0028.0215.0065.0327.0103.1922.0628.3871.1378.5864.2272.0139.0065.0282.013.0432.0198.0123.0048.0235.0102.0355.016l.0347-.0921.0402-.1098.5069-1.3567.03-.0808.0273-.0724.0589-.1586c-.6146-.318-1.3791-.4934-2.163-.5442-.015-.0011-.0289-.0021-.0439-.0028l-.0273-.7554-.0075-.2064v-.0167l-.0064-.1747-.6548.0235-.0242.0011-.8384.03.0299.8397.0011.031.0112.304c-.1254.0225-.2473.0488-.3635.0788h-.001c-.014.0028-.0283.0065-.0423.0113h-.001c-1.3995.3705-2.1115 1.2693-2.1507 2.3137v.001c-.001.0177-.001.0348-.001.0536-.0011.0423-.0011.0846.001.1266.0065.1726.0272.3302.0627.4756.0092.0413.0197.0805.032.1201v.001c.0017.0065.0037.0113.0065.0178v.001c.3195 1.0198 1.3368 1.3631 2.2866 1.5555.014.0027.0273.0058.0402.0075.2351.0468.4657.0853.6793.1218.0215.0038.043.0075.0637.0113.6221.1099 1.0895.2187 1.1008.5347.0027.0655-.0123.1255-.0487.1781-.1012.1538-.3785.2477-.9161.2664-.3131.0113-.6436-.015-.9733-.074-.0225-.0038-.045-.0075-.0665-.0123-.2163-.0413-.4309-.0959-.6398-.1624-.0122-.0048-.0252-.0085-.0375-.013-.282-.0921-.5508-.2064-.7934-.3388l-.7512 1.8831c.0235.013.0477.0263.0722.0392.0113.0065.0235.013.0358.0188.0235.0123.0467.0242.0712.0355.1509.074.3165.1416.4957.2027.0215.0075.0433.015.0657.0225.0178.0054.0355.0112.0546.0167.5835.1856 1.2853.303 1.998.32l.014.3941.0055.1427.0027.0836h.1686c.4402.002.8919.0102 1.3518.029l-.0272-.7582c.2746-.0583.5257-.1351.7532-.23 1.1468-.4701 1.7014-1.3566 1.6656-2.3276-.001-.0273-.003-.0556-.0047-.0829Z"
    fill="#FFAF2A" />
  <path
    d="M103.15 72.6442v.0249c0 .3068-.163.6015-.464.8766-.074.0675-.156.1334-.245.1978-.251.1812-.563.3518-.928.5105-.079.0344-.16.0679-.245.101-.283.1116-.593.216-.927.3125-.08.0232-.162.0461-.245.0683-.2928.0784-.6025.1511-.9275.2173-.0807.0167-.1622.0328-.245.0481-.2977.0567-.6074.1075-.9273.1529-.0811.0116-.1625.0225-.2449.0334-.3012.0392-.6105.0734-.9274.1027-.0811.0072-.1628.0143-.2449.0212-.3029.0249-.6126.0447-.9274.0597-.081.0037-.1628.0075-.2449.0105-.3046.0116-.6139.0185-.9273.0202-.0542.0003-.1094.0003-.1639.0003-.0269 0-.0542 0-.0811-.0003-.3134-.0007-.6228-.0065-.9277-.0174-.0821-.0027-.1635-.0062-.2449-.0096-.232-.0102-.461-.0235-.6868-.0389-.0808-.0054-.1608-.0116-.2405-.0177-.0821-.0065-.1636-.0133-.245-.0205-.3168-.0276-.6262-.0611-.9273-.0993-.0825-.0105-.1639-.0211-.245-.0324-.1918-.0263-.3798-.0549-.5641-.0853-.1227-.0205-.2436-.0416-.3632-.0635-.0825-.0153-.1642-.031-.245-.047-.3243-.0645-.6343-.1355-.9276-.2119-.058-.015-.1152-.0307-.1721-.0461-.0245-.0068-.0487-.0136-.0729-.0204-.1325-.0372-.2616-.0758-.3867-.1157-.1894-.0604-.3696-.1232-.5406-.1884-.0838-.0324-.1656-.0648-.245-.0979-.3127-.1313-.5887-.2716-.8224-.4193-.0357-.0225-.0712-.0457-.1049-.0686-.0426-.0287-.0835-.0577-.1223-.087-.0429-.0317-.0835-.0642-.1223-.0966-.3536-.2951-.5471-.6148-.5471-.9482 0-.0235.001-.0467.0034-.0703l.001-1.8885.5427-.0007.2449-.0003.9274-.0014.2449-.0003.724-.001.2037-.0004.2449-.0003.9277-.0014.245-.0003.9273-.0014.245-.0003.9273-.0017.2449-.0004.9274-.0013.2449-.0004.9277-.0014.2449-.0003.9274-.0014.2449-.0003.9274-.0017.2449-.0003.9273-.0014.245-.0004.9273-.0013.245-.0004.9278-.0013.245-.0004h.06l.867-.0013.245-.0004.927-.0017.245-.0003.462-.0007.002 1.9595Z"
    fill="#FFAC00" />
  <path
    d="M86.2729 70.7086v3.0919c-.0426-.0287-.0834-.0576-.1222-.087-.0429-.0317-.0833-.0641-.1221-.0966v-2.9077l.2443-.0006ZM87.4458 70.7072v3.6798c-.0837-.0324-.1654-.0648-.2446-.0979v-3.5813l.2446-.0006ZM88.6184 70.7054v4.0518c-.0578-.015-.115-.0307-.1718-.0461-.0245-.0068-.0487-.0136-.0728-.0204v-3.9849l.2446-.0004ZM89.7908 70.7037v4.3125c-.0824-.0154-.164-.0311-.2447-.0471v-4.265l.2447-.0004ZM90.9631 70.702v4.496c-.0823-.0106-.1636-.0211-.2446-.0324v-4.4629l.2446-.0007ZM92.1353 70.7003v4.6175c-.082-.0065-.1634-.0133-.2447-.0205v-4.5966l.2447-.0004ZM93.3071 70.6986v4.6857c-.082-.0027-.1633-.0061-.2446-.0096v-4.6754l.2446-.0007ZM94.4795 70.6966v4.7045c-.0541.0003-.1092.0003-.1637.0003-.0268 0-.0541 0-.0809-.0003v-4.7045h.2446ZM95.6521 70.6952v4.6755c-.081.0037-.1626.0075-.2446.0105v-4.6857l.2446-.0003ZM96.824 70.6935v4.5967c-.081.0072-.1627.0143-.2447.0211v-4.6174l.2447-.0004ZM97.9963 70.6918v4.4622c-.0809.0116-.1623.0226-.2446.0335v-4.4957h.2446ZM99.1687 70.6898v4.263c-.0806.0167-.1619.0327-.2446.0481v-4.3107l.2446-.0004ZM100.341 70.6881v3.9794c-.08.0232-.162.0461-.245.0683v-4.047l.245-.0007ZM101.513 70.6867v3.5672c-.079.0345-.16.068-.244.101v-3.6682h.244ZM102.685 70.6847v2.8606c-.073.0676-.155.1334-.244.1979v-3.0585h.244Z"
    fill="#FA8A00" />
  <path
    d="M103.148 70.7079c0 1.387-3.9536 2.5119-8.8315 2.5119-.6664 0-1.3157-.0208-1.9398-.0607-.785-.0498-1.5304-.1297-2.2209-.2348-.6167-.0938-1.1894-.2078-1.7072-.3388-.1584-.0399-.3117-.0819-.4592-.1249-.6494-.1897-1.1941-.4084-1.6077-.6486-.0811-.0471-.1571-.0945-.2272-.143-.4313-.2958-.6691-.6203-.6691-.9604 0-.0311.0023-.0621.0071-.0932.1714-1.344 4.0565-2.4187 8.824-2.4187 1.1733 0 2.2928.0651 3.3169.1832.1979.0228.3921.0474.5825.0744.832.1167 1.5893.2692 2.2481.451.145.0399.285.0816.42.1242.482.1522.898.3208 1.238.5033.35.188.62.39.794.6022.127.1553.204.3156.225.4804.005.0304.007.0614.007.0925Z"
    fill="#FFCE4F" />
  <path opacity=".3"
    d="m102.916 70.1343-10.5393 3.0248c-.785-.0499-1.5304-.1297-2.2209-.2348l11.9662-3.3922c.35.1877.62.3896.794.6022ZM98.2153 68.4531 86.381 71.8112c-.081-.0471-.157-.0946-.2272-.143l11.4789-3.2892c.1976.0225.3921.0475.5826.0741ZM100.884 69.0296l-12.4355 3.5563c-.1584-.0399-.3117-.0819-.4592-.1249l12.4747-3.5556c.145.0399.285.0812.42.1242Z"
    fill="#fff" />
  <path
    d="M101.375 70.7084c0 .0307-.003.0618-.006.0922-.171 1.0645-3.2682 1.9154-7.0521 1.9154-3.784 0-6.8811-.8509-7.0518-1.9154-.0041-.0308-.0068-.0615-.0068-.0922 0-1.1068 3.1663-2.0076 7.0586-2.0076s7.0581.9008 7.0581 2.0076Z"
    fill="#FA8A00" />
  <path
    d="M101.369 70.8007c-.171 1.0645-3.2681 1.9155-7.0521 1.9155-.0848 0-.1683-.0007-.2521-.0014-.8438-.0085-1.6506-.059-2.3949-.145-.7448-.086-1.4261-.2071-2.0189-.3559-.1506-.0378-.2954-.0774-.4354-.1187-.6323-.1883-1.1386-.4115-1.4762-.6585-.0817-.059-.1536-.1198-.2146-.1815-.1458-.1454-.2334-.2976-.2589-.4542.1703-1.0645 3.2678-1.9158 7.0517-1.9158.4787 0 .9464.0136 1.3995.0399.2307.013.4579.0297.6807.0495.909.0798 1.7402.2105 2.4522.3808.1537.0368.3026.0754.4453.116.5546.1569 1.0187.3398 1.3657.5418.339.1969.568.4115.664.6377.021.0488.036.0993.044.1498Z"
    fill="#FFAC00" />
  <path opacity=".2"
    d="m101.324 70.6495-7.2591 2.0646c-.8439-.0085-1.6506-.059-2.395-.145l8.9911-2.5573c.338.1969.567.4115.663.6377ZM96.3971 68.9743l-8.6581 2.4621c-.0817-.059-.1536-.1198-.2146-.1815l8.192-2.3301c.2303.0133.4579.0297.6807.0495ZM99.2944 69.47l-9.6437 2.7429c-.1506-.0379-.2953-.0774-.4354-.1187l9.6338-2.7402c.154.0369.3025.0754.4453.116Z"
    fill="#fff" />
  <path
    d="M95.2983 71.8469v.3337h-1.4898v-.3187c-1.0565-.0181-2.0812-.0993-2.7152-.2102l.8029-.5169c.6974.1174 1.6271.1924 2.4407.1924.7079 0 .9614-.0419.9614-.1142 0-.2645-4.0885-.0512-4.0885-.8353 0-.3395.8663-.6251 2.599-.694v-.3276h1.4898v.3215c.7819.0211 1.5426.0781 2.1446.1743l-.7502.5139c-.729-.1051-1.4155-.1563-2.0601-.1563-.729 0-.9614.06-.9614.132 0 .2525 4.0885.042 4.0885.8175 0 .3242-.8241.6067-2.4617.6879Z"
    fill="#FA8A00" />
  <path
    d="M95.2551 71.7359v.3337h-1.4898v-.3186c-1.0565-.0181-2.0812-.0993-2.7153-.2106l.803-.5169c.6974.1174 1.6271.1925 2.4407.1925.7079 0 .9614-.042.9614-.1143 0-.2645-4.0885-.0512-4.0885-.8353 0-.3395.8663-.6251 2.599-.6943v-.3276h1.4898v.3214c.7819.0212 1.5426.0782 2.1446.1744l-.7502.5138c-.729-.1051-1.4158-.1563-2.0601-.1563-.729 0-.9614.0601-.9614.1321 0 .2525 4.0889.042 4.0889.8175-.0004.3252-.8245.6077-2.4621.6885Z"
    fill="#FFCE4F" />
  <path
    d="M103.704 69.5455v.0249c0 .3067-.163.6015-.464.8765-.074.0676-.155.1334-.245.1979-.251.1812-.562.3518-.927.5104-.079.0345-.161.0679-.245.101-.283.1116-.593.216-.927.3126-.08.0232-.162.046-.245.0682-.293.0788-.603.1512-.9278.2174-.0807.0163-.1621.0324-.2449.0481-.2978.0566-.6075.1074-.9273.1528-.0811.0116-.1626.0226-.245.0335-.3012.0392-.6105.0737-.9273.1027-.0811.0071-.1629.0143-.245.0211-.3028.0249-.6125.0447-.9273.0597-.0811.0038-.1629.0075-.245.0103-.3045.0116-.6139.0184-.9273.0201-.0545.0003-.1094.0003-.1639.0003-.0269 0-.0541 0-.081-.0003-.3135-.0007-.6228-.0065-.9277-.0174-.0821-.0027-.1636-.0061-.245-.0096-.232-.0102-.4609-.0235-.6868-.0389-.0807-.0054-.1608-.0116-.2405-.0177-.0821-.0065-.1635-.0133-.245-.0205-.3168-.0276-.6261-.061-.9273-.0993-.0824-.0105-.1639-.0211-.2449-.0324-.1918-.0266-.3799-.0549-.5642-.0856-.1227-.0205-.2436-.0416-.3632-.0635-.0824-.0153-.1642-.031-.2449-.0471-.3244-.0644-.6344-.1354-.9277-.2118-.0579-.0151-.1151-.0308-.172-.0461-.0246-.0068-.0488-.0137-.0726-.0205-.1325-.0372-.262-.0757-.3867-.1156-.1894-.0604-.3696-.1232-.5406-.1884-.0838-.0324-.1656-.0648-.2447-.0979-.313-.1314-.5886-.2716-.8224-.4193-.0357-.0226-.0712-.0458-.1049-.0686-.0426-.0287-.0834-.0577-.1223-.087-.0429-.0318-.0835-.0642-.1223-.0966-.3536-.2951-.5471-.6152-.5471-.9482 0-.0235.001-.0467.0034-.0703l.001-1.8885.5427-.0007.245-.0003.9273-.0014.2446-.0003.724-.0011.2037-.0003.2449-.0004.9277-.0013.245-.0004.9273-.0013.2449-.0004.9274-.0017.2449-.0003.9273-.0014.245-.0003.9277-.0014.2449-.0003.9274-.0014.2449-.0003.9273-.0017.245-.0004.9273-.0013.245-.0004.9273-.0013.245-.0004.9277-.0014.245-.0003h.06l.867-.0014.245-.0003.927-.0017.245-.0004.461-.0006.002 1.9602Z"
    fill="#FFAC00" />
  <path
    d="M86.8288 67.6102v3.0919c-.0426-.0286-.0834-.0576-.1222-.087-.0428-.0317-.0833-.0641-.1221-.0965v-2.9077l.2443-.0007ZM88.0009 67.6088v3.6798c-.0837-.0324-.1654-.0648-.2443-.0979v-3.5813l.2443-.0006ZM89.1732 67.6067v4.0517c-.0578-.015-.115-.0307-.1718-.046-.0245-.0069-.0486-.0137-.0724-.0205V67.607l.2442-.0003ZM90.3455 67.6053v4.3125c-.0824-.0154-.164-.0311-.2447-.0471v-4.265l.2447-.0004ZM91.5178 67.6036v4.496c-.0823-.0105-.1636-.0211-.2446-.0324v-4.4629l.2446-.0007ZM92.6899 67.602v4.6175c-.082-.0065-.1633-.0134-.2446-.0205v-4.597h.2446ZM93.8623 67.6v4.6857c-.082-.0028-.1633-.0062-.2446-.0096v-4.6754l.2446-.0007ZM95.0344 67.5982v4.7045c-.0544.0003-.1092.0003-.1636.0003-.0269 0-.0541 0-.081-.0003v-4.7042l.2446-.0003ZM96.207 67.5969v4.6754c-.0809.0038-.1626.0075-.2446.0103v-4.6857h.2446ZM97.3792 67.5948v4.5967c-.081.0072-.1627.0143-.2447.0211v-4.6174l.2447-.0004ZM98.5513 67.5931v4.4622c-.081.0116-.1623.0226-.2447.0335v-4.4957h.2447ZM99.7234 67.5914v4.263c-.0806.0164-.162.0324-.2446.0481v-4.3107l.2446-.0004ZM100.896 67.5897v3.9794c-.08.0232-.162.0461-.245.0683v-4.047l.245-.0007ZM102.068 67.588v3.5673c-.079.0344-.161.0679-.245.101v-3.6679l.245-.0004ZM103.24 67.5863v2.8606c-.073.0676-.155.1334-.244.1979v-3.0585h.244Z"
    fill="#FA8A00" />
  <path
    d="M103.703 67.6095c0 1.3873-3.9535 2.5119-8.8313 2.5119-.6664 0-1.3158-.0208-1.9399-.0607-.7849-.0498-1.5303-.1297-2.2209-.2348-.6166-.0938-1.1893-.2078-1.7071-.3388-.1584-.0399-.3118-.0819-.4593-.1249-.6493-.1897-1.1941-.4084-1.6076-.6486-.0811-.0467-.1571-.0945-.2273-.1429-.4313-.2959-.6691-.6203-.6691-.9605 0-.0311.0024-.0621.0072-.0932.1713-1.344 4.0565-2.4187 8.824-2.4187 1.1733 0 2.2927.0651 3.3168.1832.198.0229.3921.0474.5826.0744.8319.1167 1.5889.2692 2.2479.451.145.04.285.0816.421.1242.481.1522.897.3211 1.237.5033.351.1877.62.39.794.6022.128.1553.204.316.225.4804.005.0301.007.0614.007.0925Z"
    fill="#FFCE4F" />
  <path opacity=".3"
    d="m103.471 67.0356-10.5392 3.0247c-.7849-.0498-1.5303-.1297-2.2209-.2347l11.9661-3.3923c.35.1877.619.39.794.6023ZM98.7714 65.3547l-11.8342 3.3581c-.0811-.0468-.1571-.0945-.2272-.143l11.4789-3.2892c.1976.0226.3921.0471.5825.0741ZM101.44 65.9308l-12.4361 3.5563c-.1584-.0399-.3117-.0819-.4592-.1249l12.4743-3.5556c.145.0402.286.0815.421.1242Z"
    fill="#fff" />
  <path
    d="M101.931 67.61c0 .0307-.004.0617-.007.0921-.171 1.0645-3.2681 1.9155-7.0517 1.9155-3.784 0-6.8814-.851-7.0518-1.9155-.004-.0307-.0068-.0614-.0068-.0921 0-1.1072 3.1663-2.0076 7.0586-2.0076 3.8919 0 7.0587.9004 7.0587 2.0076Z"
    fill="#FA8A00" />
  <path
    d="M101.924 67.7023c-.171 1.0646-3.268 1.9155-7.0516 1.9155-.0849 0-.1683-.0007-.2521-.0013-.8439-.0086-1.6506-.0591-2.395-.145-.7448-.086-1.4261-.2072-2.0189-.3563-.1506-.0378-.2954-.0774-.4354-.1187-.6323-.1887-1.1385-.4115-1.4762-.6585-.0817-.059-.1536-.1198-.2146-.1815-.1458-.1454-.2334-.2976-.2589-.4542.1703-1.0645 3.2678-1.9158 7.0517-1.9158.4787 0 .9465.0136 1.3996.0399.2303.013.4578.0297.6806.0495.909.0798 1.7402.2105 2.4523.3808.1536.0365.3025.0754.4452.116.5543.1569 1.0183.3398 1.3663.5418.339.1969.567.4115.664.6377.02.0491.035.0993.043.1501Z"
    fill="#FFAC00" />
  <path opacity=".2"
    d="m101.879 67.5508-7.2592 2.065c-.8438-.0086-1.6506-.0591-2.3949-.1451l8.9911-2.5572c.338.1968.567.4114.663.6373ZM96.952 65.8755l-8.658 2.4621c-.0818-.059-.1537-.1197-.2147-.1815l8.1921-2.3301c.2306.0134.4578.0301.6806.0495ZM99.8493 66.3716l-9.6437 2.7429c-.1505-.0378-.2953-.0774-.4353-.1187l9.6337-2.7402c.1537.0369.3022.0754.4453.116Z"
    fill="#fff" />
  <path
    d="M95.8532 68.7481v.3337h-1.4898v-.3187c-1.0564-.0181-2.0812-.0993-2.7152-.2105l.803-.5169c.6974.1174 1.6271.1924 2.4406.1924.7079 0 .9614-.0419.9614-.1143 0-.2644-4.0888-.0511-4.0888-.8352 0-.3395.8663-.6251 2.599-.694v-.3276h1.4898v.3214c.7819.0212 1.5426.0782 2.1446.1744l-.7502.5138c-.729-.1051-1.4158-.1562-2.0601-.1562-.729 0-.9614.06-.9614.1323 0 .2525 4.0885.042 4.0885.8176.0004.3244-.8237.607-2.4614.6878Z"
    fill="#FA8A00" />
  <path
    d="M95.8099 68.6375v.3337h-1.4894v-.3183c-1.0565-.0181-2.0813-.0993-2.7153-.2105l.803-.5169c.6974.1173 1.6271.1924 2.4406.1924.708 0 .9614-.042.9614-.1143 0-.2644-4.0885-.0512-4.0885-.8353 0-.3395.8664-.625 2.5991-.694v-.3275h1.4894v.3214c.7819.0212 1.5427.0781 2.145.1743l-.7502.5139c-.7291-.1051-1.4159-.1563-2.0601-.1563-.7291 0-.9614.0601-.9614.1321 0 .2525 4.0885.0419 4.0885.8175-.0003.3241-.8244.6066-2.4621.6878Z"
    fill="#FFCE4F" />
  <path
    d="M103.623 66.447c.001.0085.001.0167.001.0249 0 .3067-.163.6015-.465.8765-.073.0676-.155.1335-.245.1979-.25.1812-.562.3518-.927.5105-.079.0344-.161.0679-.245.101-.283.1115-.593.216-.927.3125-.08.0232-.162.0461-.245.0683-.293.0788-.6028.1511-.9278.2173-.0807.0164-.1621.0324-.2449.0481-.2978.0566-.6075.1075-.9274.1529-.081.0116-.1625.0225-.2449.0334-.3012.0392-.6105.0734-.9273.1027-.0811.0075-.1629.0147-.245.0212-.3029.0249-.6125.0447-.9273.0593-.0811.0038-.1629.0075-.245.0106-.3045.0116-.6139.0184-.9273.0201-.0545.0004-.1094.0004-.1639.0004-.0269 0-.0541 0-.0811-.0004-.3134-.0006-.6227-.0065-.9276-.0174-.0821-.0027-.1636-.0061-.245-.0095-.232-.0103-.4609-.0236-.6871-.0389-.0808-.0055-.1608-.0116-.2406-.0178-.0821-.0064-.1635-.0133-.2449-.0204-.3168-.0277-.6262-.0611-.9273-.0993-.0825-.0106-.1639-.0212-.245-.0328-.1918-.0262-.3799-.0549-.5642-.0856-.1226-.0205-.2435-.0416-.3631-.0635-.0825-.0153-.1642-.031-.245-.0471-.3243-.0645-.6343-.1354-.9276-.2118-.058-.0151-.1152-.0304-.1721-.0461-.0245-.0065-.0487-.0137-.0729-.0205-.1325-.0372-.2616-.0757-.3867-.1156-.1894-.0604-.3696-.1232-.5406-.1884-.0838-.0324-.1656-.0648-.245-.0979-.3127-.1314-.5887-.2716-.8224-.4194-.0358-.0225-.0712-.0453-.1049-.0685-.0426-.0287-.0835-.0577-.1223-.087-.0429-.0318-.0835-.0642-.1223-.0966-.3537-.2951-.5472-.6148-.5472-.9482 0-.0235.0011-.0467.0035-.0703l.001-1.8885.543-.0007.245-.0007.9273-.0014.245-.0003.7236-.001.2037-.0004.2449-.0003.9277-.0014.245-.0003.9273-.0017.2449-.0004.9274-.0017.2449-.0003.9274-.0014.2449-.0003.9277-.0014.2449-.0003.9274-.0014.2449-.0003.9273-.0014.245-.0003.9273-.0014.245-.0003.9273-.0014.245-.0003.9274-.0014.245-.0007h.06l.868-.0013.244-.0004.928-.0017.245-.0003.461-.0007.002 1.9612Z"
    fill="#FFAC00" />
  <path
    d="M86.7485 64.5113v3.0919c-.0426-.0286-.0834-.0576-.1222-.087-.0429-.0317-.0834-.0641-.1221-.0965V64.512l.2443-.0007ZM87.9204 64.5099v3.6798c-.0837-.0324-.1653-.0648-.2446-.0979v-3.5812l.2446-.0007ZM89.0928 64.5082v4.0517c-.0579-.015-.115-.0303-.1718-.046-.0245-.0065-.0487-.0137-.0729-.0205v-3.9849l.2447-.0003ZM90.2651 64.5068v4.3125c-.0823-.0154-.164-.0311-.2446-.0471v-4.265l.2446-.0004ZM91.4373 64.5048v4.496c-.0824-.0106-.1637-.0211-.2447-.0327v-4.4629l.2447-.0004ZM92.6091 64.5031v4.6175c-.082-.0065-.1633-.0133-.2446-.0205v-4.5966l.2446-.0004ZM93.782 64.5014v4.6857c-.082-.0027-.1633-.0061-.2446-.0096v-4.6754l.2446-.0007ZM94.9541 64.4997v4.7045c-.0544.0003-.1092.0003-.1637.0003-.0268 0-.054 0-.0809-.0003V64.5l.2446-.0003ZM96.1265 64.498v4.6754c-.081.0038-.1627.0076-.2447.0106v-4.6857l.2447-.0003ZM97.2986 64.4963v4.5967c-.081.0075-.1626.0147-.2446.0211v-4.6174l.2446-.0004ZM98.471 64.4946v4.4622c-.081.0116-.1623.0226-.2447.0335v-4.4957h.2447ZM99.6426 64.4929v4.263c-.0807.0163-.162.0324-.2447.0481v-4.3107l.2447-.0004ZM100.815 64.4908v3.9795c-.08.0232-.161.046-.244.0682v-4.047l.244-.0007ZM101.988 64.4895v3.5672c-.079.0345-.161.0679-.245.101v-3.6682h.245ZM103.16 64.4878v2.8606c-.074.0676-.155.1334-.245.1979v-3.0585h.245Z"
    fill="#FA8A00" />
  <path
    d="M103.622 64.5107c0 1.3873-3.9534 2.5119-8.8313 2.5119-.6664 0-1.3157-.0208-1.9398-.0607-.785-.0498-1.5304-.1297-2.2213-.2347-.6166-.0939-1.189-.2078-1.7071-.3392-.1584-.0399-.3118-.0819-.4593-.1249-.6493-.1897-1.194-.4084-1.6076-.6486-.0811-.0467-.1571-.0945-.2273-.143-.4313-.2958-.6691-.6203-.6691-.9604 0-.0311.0024-.0621.0072-.0932.1713-1.344 4.0565-2.4188 8.824-2.4188 1.1733 0 2.2927.0652 3.3168.1833.198.0228.3922.0477.5826.0744.8319.1166 1.5892.2692 2.2482.451.145.0399.285.0816.42.1242.481.1522.898.3207 1.238.5033.35.188.619.39.794.6022.127.1552.204.316.225.4804.005.0307.007.0618.007.0928Z"
    fill="#FFCE4F" />
  <path opacity=".3"
    d="m103.39 63.9372-10.5391 3.0247c-.7849-.0498-1.5304-.1296-2.2213-.2347l11.9664-3.3922c.351.1876.62.3896.794.6022ZM98.6901 62.2559 86.8559 65.614c-.0811-.0467-.1571-.0945-.2272-.1429l11.4789-3.2892c.1979.0225.3921.0474.5825.074ZM101.359 62.8324l-12.4359 3.5563c-.1584-.0399-.3117-.0819-.4592-.1249l12.4751-3.5556c.144.0399.285.0815.42.1242Z"
    fill="#fff" />
  <path
    d="M101.849 64.5115c0 .0307-.003.0618-.006.0922-.171 1.0645-3.2682 1.9154-7.0521 1.9154s-6.8811-.8509-7.0514-1.9154c-.0041-.0308-.0068-.0615-.0068-.0922 0-1.1072 3.1663-2.0076 7.0585-2.0076 3.892-.0003 7.0578.9004 7.0578 2.0076Z"
    fill="#FA8A00" />
  <path
    d="M101.843 64.6038c-.171 1.0646-3.2682 1.9155-7.0522 1.9155-.0848 0-.1683-.0007-.2521-.0013-.8439-.0086-1.6506-.0591-2.395-.1451-.7447-.0859-1.4261-.2071-2.0189-.3562-.1505-.0378-.2953-.0774-.4353-.1187-.6323-.1887-1.1386-.4115-1.4762-.6585-.0818-.059-.1537-.1201-.2146-.1815-.1459-.1454-.2334-.2976-.259-.4542.1704-1.0645 3.2679-1.9158 7.0515-1.9158.4786 0 .9464.0136 1.3995.0399.2303.0133.4578.0297.6807.0495.9089.0798 1.7401.2105 2.4522.3808.1536.0365.3022.0754.4452.116.5542.1569 1.0182.3398 1.3662.5418.339.1969.567.4115.664.6377.021.0488.036.0993.044.1501Z"
    fill="#FFAC00" />
  <path opacity=".2"
    d="m101.798 64.4524-7.2592 2.0646c-.8439-.0085-1.6506-.059-2.395-.145l8.9912-2.5573c.338.1972.567.4115.663.6377ZM96.8712 62.7771l-8.658 2.4624c-.0818-.059-.1537-.1201-.2147-.1815l8.1921-2.33c.2306.0129.4582.0296.6806.0491ZM99.7685 63.2732l-9.6437 2.7429c-.1505-.0379-.2953-.0775-.4353-.1188l9.6337-2.7401c.1537.0365.3025.0754.4453.116Z"
    fill="#fff" />
  <path
    d="M95.7724 65.6497v.3333h-1.4898v-.3186c-1.0564-.0181-2.0812-.0993-2.7152-.2106l.803-.5169c.6973.117 1.6271.1925 2.4406.1925.7079 0 .9614-.042.9614-.1144 0-.2644-4.0885-.0511-4.0885-.8352 0-.3395.8664-.6251 2.5991-.6944v-.3275h1.4897v.3214c.7819.0212 1.5427.0781 2.1446.1744l-.7502.5138c-.729-.1051-1.4155-.1563-2.06-.1563-.7291 0-.9614.0601-.9614.1324 0 .2525 4.0888.042 4.0888.8172-.0007.3252-.8248.6077-2.4621.6889Z"
    fill="#FA8A00" />
  <path
    d="M95.7289 65.5391v.3337h-1.4895v-.3187c-1.0565-.0181-2.0812-.0993-2.7152-.2105l.803-.517c.6973.1174 1.627.1925 2.4406.1925.7079 0 .9614-.042.9614-.1143 0-.2644-4.0885-.0512-4.0885-.8353 0-.3395.8663-.6251 2.599-.694v-.3275h1.4895v.3214c.7819.0211 1.5426.0781 2.1446.1743l-.7502.5139c-.7291-.1051-1.4159-.1563-2.0601-.1563-.7291 0-.9614.0601-.9614.1321 0 .2524 4.0889.0419 4.0889.8175-.0004.3245-.8245.607-2.4621.6882Z"
    fill="#FFCE4F" />
  <path
    d="M103.184 63.6757c.001.0082.001.0164.001.025 0 .3067-.163.6015-.465.8765-.073.0676-.155.1334-.245.1979-.25.1812-.562.3518-.927.5104-.079.0345-.161.0679-.245.101-.283.1116-.593.216-.927.3126-.08.0232-.162.046-.245.0682-.2932.0785-.6028.1512-.9278.2173-.0808.0164-.1622.0325-.245.0482-.2977.0563-.6074.1078-.9273.1528-.0811.0116-.1625.0225-.245.0334-.3011.0393-.6105.0734-.9273.1028-.0811.0075-.1628.0146-.2449.0211-.3029.0249-.6126.0447-.9274.0594-.0811.0037-.1628.0075-.2449.0106-.3046.0116-.6139.0184-.9274.0201-.0541.0003-.1093.0007-.1638.0007-.0269 0-.0542 0-.0811-.0004-.3134-.0007-.6228-.0065-.9277-.0174-.0821-.0027-.1635-.0061-.2449-.0095-.232-.0103-.461-.0236-.6868-.0389-.0808-.0055-.1609-.0116-.2406-.0178-.0821-.0065-.1635-.0133-.2449-.0204-.3169-.0277-.6262-.0611-.9274-.0993-.0824-.0106-.1638-.0212-.2449-.0328-.1918-.0263-.3799-.0549-.5642-.0856-.1226-.0205-.2436-.0417-.3631-.0635-.0825-.0153-.1642-.031-.245-.0471-.3243-.0645-.6343-.1354-.9277-.2119-.0579-.015-.1151-.0303-.172-.046-.0245-.0065-.0487-.0137-.0729-.0205-.1325-.0372-.2617-.0757-.3867-.1157-.1894-.0604-.3696-.1231-.5406-.1883-.0842-.0324-.1656-.0648-.245-.0979-.3127-.1314-.5887-.2716-.8224-.4194-.0358-.0225-.0712-.0453-.1049-.0685-.0426-.0287-.0835-.0577-.1223-.0871-.043-.0317-.0835-.0641-.1223-.0965-.3537-.2951-.5472-.6152-.5472-.9482 0-.0235.0011-.0468.0034-.0703l.0007-1.8885.5427-.0007.245-.0004.9273-.0013.245-.0007.7236-.001.2037-.0004.2449-.0003.9277-.0014.245-.0003.9273-.0017.2449-.0004.9274-.0013.2449-.0004.9274-.0013.2449-.0004.9277-.0013.2449-.0004.9274-.0013.2449-.0004.9274-.0017.2449-.0003.9273-.0017.245-.0004.9273-.0013.245-.0004.9278-.0014.245-.0003h.06l.867-.0014.245-.0003.927-.0014.245-.0003.461-.0007.003 1.9605Z"
    fill="#FFAC00" />
  <path
    d="M86.308 61.7401v3.092c-.0425-.0287-.0834-.0577-.1221-.087-.0429-.0318-.0834-.0642-.1222-.0966v-2.908l.2443-.0004ZM87.4812 61.7387v3.6799c-.084-.0325-.1654-.0649-.2446-.098v-3.5812l.2446-.0007ZM88.6536 61.737v4.0517c-.0579-.015-.115-.0303-.1718-.046-.0245-.0065-.0487-.0137-.0729-.0205v-3.9849l.2447-.0003ZM89.8257 61.7353v4.3124c-.0824-.0153-.164-.031-.2446-.0471v-4.265l.2446-.0003ZM90.9981 61.7336v4.496c-.0824-.0106-.1637-.0212-.2447-.0328v-4.4629l.2447-.0003ZM92.1699 61.7319v4.6174c-.082-.0064-.1633-.0133-.2446-.0204v-4.5967l.2446-.0003ZM93.3423 61.7302v4.6857c-.082-.0027-.1633-.0061-.2446-.0095v-4.6755l.2446-.0007ZM94.5144 61.7281v4.7045c-.0541.0004-.1092.0007-.1636.0007-.0269 0-.0541 0-.081-.0003v-4.7042l.2446-.0007ZM95.6873 61.7268v4.6755c-.081.0037-.1627.0075-.2447.0105v-4.6856l.2447-.0004ZM96.8594 61.7251v4.5966c-.081.0075-.1627.0147-.2447.0212v-4.6175l.2447-.0003ZM98.0313 61.723v4.4622c-.081.0116-.1623.0226-.2447.0335V61.723h.2447ZM99.2036 61.7213v4.263c-.0806.0163-.1619.0324-.2446.0481v-4.3107l.2446-.0004ZM100.376 61.7197v3.9794c-.08.0232-.161.046-.245.0682v-4.047l.245-.0006ZM101.548 61.718v3.5672c-.079.0345-.161.0679-.245.101V61.718h.245ZM102.72 61.7162v2.8607c-.074.0675-.155.1334-.245.1979v-3.0586h.245Z"
    fill="#FA8A00" />
  <path
    d="M103.183 61.7395c0 1.387-3.9537 2.5119-8.8316 2.5119-.6664 0-1.3157-.0208-1.9398-.0607-.785-.0499-1.5304-.1297-2.2209-.2348-.6167-.0938-1.1894-.2078-1.7072-.3391-.1584-.04-.3117-.0816-.4592-.1249-.6494-.1897-1.1941-.4084-1.6077-.6486-.0811-.0468-.1571-.0946-.2272-.143-.4313-.2958-.6691-.6203-.6691-.9605 0-.031.002-.0621.0071-.0931.1714-1.344 4.0565-2.4188 8.824-2.4188 1.1733 0 2.2928.0652 3.3169.1832.1979.0229.3921.0475.5825.0744.832.1167 1.5893.2692 2.2482.4511.145.0399.285.0815.42.1242.481.1521.898.321 1.238.5032.35.1877.619.39.794.6023.127.1552.204.3156.225.4804.005.0307.007.0617.007.0928Z"
    fill="#FFCE4F" />
  <path opacity=".3"
    d="m102.951 61.1659-10.5389 3.0247c-.785-.0498-1.5304-.1296-2.2209-.2347l11.9658-3.3922c.35.1876.62.3896.794.6022ZM98.2502 59.4847 86.416 62.8428c-.0811-.0468-.1571-.0945-.2273-.143l11.4789-3.2892c.198.0226.3922.0471.5826.0741ZM100.92 60.0611l-12.4361 3.5563c-.1584-.0399-.3117-.0815-.4592-.1249l12.4743-3.5556c.145.0399.286.0812.421.1242Z"
    fill="#fff" />
  <path
    d="M101.41 61.7399c0 .0307-.003.0618-.006.0921-.171 1.0646-3.2683 1.9155-7.0522 1.9155-3.784 0-6.8811-.8509-7.0518-1.9155-.0041-.0303-.0068-.0614-.0068-.0921 0-1.1072 3.1663-2.0076 7.0586-2.0076s7.0582.9008 7.0582 2.0076Z"
    fill="#FA8A00" />
  <path
    d="M101.403 61.8323c-.17 1.0645-3.2676 1.9155-7.0515 1.9155-.0849 0-.1683-.0007-.2521-.0014-.8442-.0085-1.6506-.059-2.3954-.145-.7444-.086-1.4261-.2071-2.0188-.3562-.1506-.0379-.2954-.0775-.4354-.1187-.6323-.1887-1.1386-.4115-1.4762-.6586-.0818-.059-.1536-.1197-.2146-.1815-.1458-.1453-.2334-.2975-.259-.4541.1704-1.0646 3.2679-1.9159 7.0518-1.9159.4787 0 .9464.0137 1.3995.04.2307.0133.4579.0297.6807.0494.9089.0799 1.7402.2106 2.4522.3808.1537.0369.3025.0754.4453.116.5546.157 1.0185.3399 1.3665.5418.338.1969.567.4115.663.6378.021.0491.036.0996.044.1501Z"
    fill="#FFAC00" />
  <path opacity=".2"
    d="m101.359 61.6811-7.2593 2.065c-.8442-.0086-1.6506-.0591-2.3954-.145l8.9907-2.5573c.339.1965.567.4111.664.6373ZM96.4319 60.0059l-8.6577 2.4621c-.0818-.059-.1536-.1198-.2146-.1815l8.192-2.3301c.2303.0133.4575.0297.6803.0495ZM99.3295 60.5016l-9.6436 2.7429c-.1506-.0378-.2954-.0774-.4354-.1187l9.6338-2.7402c.1536.0369.3021.0754.4452.116Z"
    fill="#fff" />
  <path
    d="M95.3334 62.8784v.3337h-1.4898v-.3187c-1.0564-.018-2.0812-.0992-2.7152-.2105l.803-.5169c.6974.117 1.6271.1924 2.4406.1924.708 0 .9614-.0419.9614-.1143 0-.2644-4.0885-.0511-4.0885-.8352 0-.3395.8664-.6251 2.5991-.694v-.3276h1.4898v.3214c.7818.0212 1.5426.0782 2.1446.1744l-.7502.5138c-.7291-.105-1.4155-.1562-2.0601-.1562-.7291 0-.9614.06-.9614.132 0 .2525 4.0888.042 4.0888.8175-.0003.3245-.8244.607-2.4621.6882Z"
    fill="#FA8A00" />
  <path
    d="M95.2902 62.7675v.3337h-1.4898v-.3187c-1.0564-.018-2.0812-.0993-2.7152-.2101l.803-.517c.6974.1174 1.6271.1925 2.4406.1925.708 0 .9614-.042.9614-.1143 0-.2645-4.0885-.0512-4.0885-.8353 0-.3395.8664-.6251 2.5991-.6943v-.3276h1.4898v.3214c.7818.0212 1.5426.0782 2.1446.1744l-.7502.5138c-.7291-.1051-1.4159-.1562-2.0601-.1562-.7291 0-.9614.06-.9614.1324 0 .2524 4.0888.0419 4.0888.8175-.0003.3244-.8244.6066-2.4621.6878Z"
    fill="#FFCE4F" />
  <path
    d="m27.2269 29.8843.386 1.183c-1.218.7151-4.2902 2.3969-5.6594 2.9009-.4068.1497-.9757.3357-1.6227.5367-.2466.0767-.5049.1562-.7703.2361-.2282.0686-.4616.1378-.697.2074-.0102.0034-.0211.0065-.0317.0092-.3117.0362-.7072.0806-1.1563.127l.0041-1.8852.7396-.205.4354-.1205.6143-.1699 1.3446-.3726c1.0064-.6213 5.3876-1.9059 6.4134-2.4471Z"
    fill="#FDA893" />
  <path
    d="M28.9578 29.1654c.0334-.0126.4357-.1613.5539.0065.1237.1747-.0183.3508-.0183.3508s.2957.1668.3032.3391c.0071.1723-.1332.2904-.1332.2904s.1897.0931.1839.2562c-.0054.1631-.2289.4016-.5601.489-.294.0774-.4405.015-.4687.0003-.0034-.0024-.0055-.0034-.0055-.0034s-.0545.0205-.1502.0522c-.1595.0532-.4334.1382-.7533.2098-.5113.1147-1.1447-.5902-1.191-1.0454 0 0 .1874-.6097.4023-.9608.215-.3508.3711-.4333.6313-.3992.2603.0344.5158.1218.5717.1116.0562-.0096 1.3842-.7005 1.6887-.6115.2981.0874-.9971.8793-1.0547.9144Z"
    fill="#FDA893" />
  <path
    d="M27.5177 29.7797c-.0115 0-.0235-.0027-.0344-.0088-.0351-.0192-.0483-.0632-.0293-.0984l.1608-.2989c.0096-.0177.0263-.031.046-.0358.0198-.0051.0406-.0014.0576.0099.0031.002.3325.2152.6347.1397.0923-.0232.1547-.0618.1799-.1114.0283-.0563.0047-.1164.0044-.1168-.015-.0369.0024-.0792.0388-.0946.0365-.0153.0787.0011.0944.0376.0051.0123.0497.1219-.0071.237-.045.0912-.1373.1547-.2753.1892-.2766.0694-.556-.0522-.6817-.1195l-.1254.2329c-.0126.0239-.0375.0379-.0634.0379Z"
    fill="#FD896B" />
  <path
    d="M28.8175 30.8967c-.0034-.0024-.0054-.0034-.0054-.0034s-.0545.0204-.1501.0522c-.1269-.1498-.1361-.3293-.1443-.4804-.0068-.1311-.0129-.2447-.082-.3276-.0714-.085-.1003-.1795-.1054-.2695-.0065-.0867.0102-.17.0313-.2372.0078-.0252.016-.0484.0241-.0682.0211-.0522.0409-.0857.0436-.0901.0207-.0345.065-.0461.0993-.0252.0344.0204.0453.0648.0252.0992-.0003.0004-.0034.0058-.0082.0154-.0207.0396-.0707.1505-.0707.2699 0 .072.0183.1474.0724.2122.0997.1194.1082.2685.1157.4125.0085.1645.0167.3201.1545.4402Z"
    fill="#FD896B" />
  <path
    d="M27.8106 30.3601c-.0272 0-.0531-.0153-.0657-.0416-.017-.0362-.0013-.0796.0347-.0967.0044-.002.4335-.2104.4767-.6209.0041-.04.0402-.069.0796-.0646.0398.0041.0684.04.0643.08-.0517.4928-.5382.7274-.559.737-.0099.0044-.0204.0068-.0306.0068Z"
    fill="#FD896B" />
  <path
    d="M26.3196 30.2542c-2.7146.9192-4.7638 1.5303-6.8835 2.0496-3.7941.9298-5.814.3828-5.814.3828l1.4257 2.6239.2535.4667c.4163.1126.9045.1228 1.4002.0754 1.4203-.1341 2.8982-.7366 2.8982-.7366 3.8902-1.5221 6.4354-2.7426 7.4888-3.4721l-.7689-1.3897Z"
    fill="#0172D0" />
  <path
    d="m26.2497 30.0621-.6538.3071.896 1.7203.6746-.3893-.9168-1.6381ZM16.7015 35.853c-.4953.0474-.9839.0372-1.4002-.0754l-.2534-.4668c.0531-.234.1883-.4261.452-.5292 0 0 .3349.6817 1.2016 1.0714Z"
    fill="#0056C5" />
  <path d="m5.60046 68.6177-1.11267 1.4907s.20305.6663 1.02716 1.1799l1.3307-1.7153-1.24519-.9553Z" fill="#FDA893" />
  <path
    d="M5.33011 70.8263s.52056-.1123.69874.0679c.17817.1801.62515 2.6323 1.04316 3.1687.41802.5364-.00272.8216-.26028.9301-.25755.1089-3.94576-3.5816-3.94576-3.5816s.91166-1.2614 1.35148-1.5064c.43982-.2449.64593.6616 1.11266.9213Z"
    fill="#FB6B18" />
  <path d="m12.425 71.177.1687 1.8534s.5962.359 1.5514.1887l-.1567-2.1662-1.5634.1241Z" fill="#FDA893" />
  <path
    d="M13.8082 72.9584s.3254-.4514.5894-.436c.2637.0153 2.3204 1.605 3.0191 1.7288.6984.1239.5707.6394.4466.9039-.124.2644-5.5316.1125-5.5316.1125s-.1993-1.7483-.0289-2.2457c.1703-.4975.9624.0617 1.5054-.0635Z"
    fill="#FB6B18" />
  <path
    d="m11.3878 51.0596-1.1239 9.3151s-1.00803 1.3703-1.96943 3.1234c-.80674 1.4715-2.95609 5.2896-2.95609 5.2896l1.30004.9925 7.12058-7.39 1.8955-11.4217-4.2667.0911Z"
    fill="#001030" />
  <path
    d="M6.95948 69.7567c-.11685.2937-.33523.4937-.59006.6615l-1.50956-1.2767c.12674-.2682.2998-.4999.51443-.6995l1.58519 1.3147ZM5.6377 51.4444s2.00524 4.9375 4.6111 8.7876c0 0 .3891 3.7471 1.0548 5.7418.2912.8734.8557 5.0115.8557 5.0115l1.977-.0901-.51-11.5056-2.0914-8.3334-5.8972.3882Z"
    fill="#0C375A" />
  <path d="M14.3203 70.8277c.1254.3443.091.6855 0 1.0273l-2.288.0642c-.0971-.3293-.126-.6636-.0947-1.0018l2.3827-.0897Z"
    fill="#005986" />
  <path
    d="M15.9527 50.8034c0 .405-.001.726-.0037.9427-.9577.2583-1.915.4453-2.872.5599-.0252.0031-.0507.0065-.0763.0092-.0429.0055-.0852.0103-.1274.015-.0106.0011-.0208.0021-.032.0028-.1663.0184-.3312.0344-.4981.0477-.8231.0679-1.6458.0826-2.46891.0444-.07257-.0034-.14377-.0072-.21633-.0116-.06405-.0034-.12946-.0072-.19453-.0119-.02896-.0014-.0586-.0035-.0879-.0058-.05519-.0038-.10902-.0082-.16421-.012-1.20941-.0983-2.41849-.3101-3.62722-.638-.00614-.477-.01193-1.4488-.01397-2.702 0-.0686-.00068-.1385 0-.2088-.00137-1.3822.00374-3.079.0201-4.8263.00136-.1382.00272-.276.00477-.4149.00136-.16.00306-.321.00477-.4828.00034-.0269.00034-.0546.00102-.0819.00102-.0375.00136-.0754.00204-.1136.00034-.0757.00136-.1522.00307-.2279.00136-.1109.00306-.2211.00477-.331.00102-.0836.00238-.1672.0034-.2511.00239-.1665.00546-.3327.00784-.4982.05826-3.4682.17545-6.6557.39792-7.4668.02078-.075.04258-.1296.06404-.162.02351-.0362.05315-.0727.08585-.1102.04157-.0475.08994-.0963.14377-.1457.371-.3419 1.01421-.7391 1.66661-1.1158.07597-.044.15263-.0876.22792-.131.01158-.0061 1.7729-.6012 1.7838-.608l1.84238.1293c.2211.13 1.9641.7237 2.178.8571.0634.0396.1257.0792.187.1184.5012.3235.9274.6452 1.1134.9185.2681.3948.4303 3.9358.5239 7.7882.0024.0891.0045.1775.0069.2662.0095.4077.0184.8175.0265 1.2269.0082.4044.0154.8077.0222 1.2082.0105.6555.0204 1.3007.0279 1.922.001.0706.0014.1409.0024.2109.0072.6059.0129 1.187.0174 1.7295.0003.071.001.1413.0013.2109.0062.8144.0103 1.5357.0106 2.1147v.0007c.001.0816.001.1587.001.2341Z"
    fill="#0172D0" />
  <path d="m12.5669 37.3788 2.1098-.1228s.0787 2.5648-1.0442 2.486c-1.1225-.0788-1.0656-2.3632-1.0656-2.3632Z"
    fill="#0890FE" />
  <path
    d="M7.41383 38.6573c0-.0918-.11651-.1317-.17204-.0587-.7403.9768-1.18727 2.0417-1.4513 2.8835-.0678.2163-.12605.4255-.17682.6247-.00102.0836-.00238.1675-.0034.2511-.00205.1099-.00341.2201-.00477.331-.00136.0754-.00239.1518-.00307.2279-.00034.0382-.00102.0761-.00204.1136-.00034.027-.00034.0546-.00102.0819.06949-.4217.18498-.9721.37474-1.5777.25892-.8236.6967-1.8653 1.41962-2.8193.01329-.0171.0201-.0372.0201-.058ZM7.78845 48.7241h.00035c1.98957-.0089 3.6875-.9155 4.7617-1.6746 1.1617-.8209 1.8659-1.6528 1.8727-1.661.0341-.0406.029-.101-.0116-.1351-.0405-.0341-.1008-.029-.1349.0116-.0068.0082-.698.824-1.841 1.6309-1.051.7418-2.71048 1.6279-4.64793 1.6364-.0528.0004-.09539.0434-.09539.0963.00068.0528.04327.0955.09607.0955ZM9.86196 49.401c1.72624 0 3.44804-.9854 3.52604-1.0307.0457-.0267.0613-.0853.0351-.1311-.0266-.0457-.0852-.0614-.1308-.0348-.0201.0116-2.0458 1.1703-3.84188.9841-.05315-.0062-.09948.0327-.10493.0856-.00545.0525.0327.1.08517.1051.14309.015.28719.0218.4313.0218Z"
    fill="#0056C5" />
  <path d="m12.6677 46.2653-.9072 2.802-1.2639-2.5079.3018-10.9528.0116-.4125.4916-.0693.0681.5558 1.298 10.5847Z"
    fill="#fff" />
  <path d="m11.3684 35.6812-.2361.2951-.3344-.3692.0115-.413.491-.0693.068.5564Z" fill="#fff" />
  <path d="m10.1799 34.6117.8729.9451.7147-1.1672-.6238-1.0653-.9638 1.2874Z" fill="#fff" />
  <path
    d="m9.71823 31.7664-.27731.1979c-.07631.0543-.15058.1116-.22076.1737-.21122.187-.28617.3159-.23098.6455.00851.0509.01941.0949.03202.13l.52771 2.5423 1.59579-2.1311c-.0007-.0004-1.15869-.4132-1.42647-1.5583Z"
    fill="#0890FE" />
  <path d="M11.8224 31.8685s.7318.694.5168 1.5217l-.3335 1.4058-.8619-1.472s.6173-.3753.6786-1.4555Z" fill="#0890FE" />
  <path
    d="M2.27557 53.7892c-.04531.4924.5536.2252.38428-.7725-.16897-.9976.31105-1.9011.51784-1.8721.20747.0293-.17136 1.0894.01294 1.4716.18397.3821.42177-.3604.65854-.8107.24563-.4678.23132-1.4884.11958-2.2161-.11174-.7288 1.20635-5.1525 1.21317-6.4344l.1608-.5435.58801-1.9899.92052-3.1162s-.55156-2.3587-1.48128-2.156c0 0-.49228 1.6429-1.01829 3.4956-.08892.3146-.1792.6353-.26812.955-.37475 1.3433-.72701 2.6695-.89054 3.4564-.43267 2.0775-.46605 6.3961-.46605 6.3961s-.76313 1.5866-.78118 2.2925c-.01976.753.37475 1.3515.32978 1.8442Z"
    fill="#FDA893" />
  <path
    d="M6.17594 33.9504c-.01602.0355-.06439-.0743-.09301-.0071-.10765.2491-.58563.8642-.82172 1.4634-.03032.0764-.06132.1556-.09301.2368-.34.8752-2.21374 6.637-2.59667 11.5537l1.82571.3429c.57848-3.2172.94096-4.1889 1.29663-5.7762.18431-.6182.37543-1.2119.55463-1.7572.00034-.0017.00102-.0027.00171-.0041.07154-.218.14172-.4285.20849-.6295.00102-.0037.00205-.0071.00375-.0102.02317-.0706.04565-.1402.06882-.2081v-.0007c.26709-.809.47423-1.4522.5335-1.8271.1591-1.0097-.27595-2.9866-.88883-3.3766Z"
    fill="#0172D0" />
  <path d="m2.46214 46.8448-.12401.7465 2.16265.3405.15126-.7421-2.1899-.3449Z" fill="#0056C5" />
  <path
    d="M2.61058 48.0135s1.19511-.0887 1.70204.274l-.10595.7004s-1.39679-.1566-1.72282-.1385c0 .0004-.03203-.6919.12673-.8359Z"
    fill="#001030" />
  <path
    d="M3.21339 48.4859c0 .3211-.21599.5815-.48206.5815-.26607 0-.48206-.2604-.48206-.5815 0-.321.21599-.5814.48206-.5814.26607 0 .48206.2604.48206.5814Z"
    fill="#0C375A" />
  <path
    d="M3.00094 48.4658c0 .235-.15754.4256-.35216.4256-.19462 0-.35215-.1906-.35215-.4256 0-.2349.15753-.4255.35215-.4255.19462-.0004.35216.1902.35216.4255Z"
    fill="#005986" />
  <path
    d="M8.07886 27.1479c0 1.602.98457 2.7058 2.58404 2.7058 1.5995 0 2.7142-1.1871 2.7142-2.7887s-.9471-2.8155-2.5466-2.8155c-1.918 0-2.75164 1.2965-2.75164 2.8984Z"
    fill="#0C375A" />
  <path
    d="M8.07896 27.1479s.18635-1.2102 0-1.8356c-.18635-.6255.00852-.6968.4221-.8104.41359-.1136.25756-.6254.65479-.725.48206-.1208.65581.1849 1.02345-.2703.3676-.4548.7082-.4793 1.0632-.3227.4412.1948.5652.0232 1.1355-.0611.5768-.0853.9982.2985 1.095.6967.0967.3982-.2947.7394-.1326 1.0236.1625.2842.1799 1.2041-.2538 1.5354-.4333.331-5.00764.7694-5.00764.7694Z"
    fill="#0C375A" />
  <path d="M8.43899 27.8375s-.44425-.5933-.77471-.1027c-.33046.4907.13662 1.9401.94573 1.5863l-.17102-1.4836Z"
    fill="#FD896B" />
  <path
    d="M8.43218 28.8743c-.02994 0-.05716-.0198-.06567-.0502-.12521-.4477-.5876-.6294-.59202-.6311-.03505-.0137-.05308-.053-.03947-.0885.01327-.0352.05273-.0533.08778-.0399.02143.0082.53112.2066.67539.7223.0102.0366-.01089.0741-.0473.0844-.00646.0024-.01259.003-.01871.003Z"
    fill="#D65C48" />
  <path
    d="M7.96549 28.6489c-.01259 0-.02551-.0034-.03674-.0109-.03164-.0205-.04083-.0629-.02042-.0946.00341-.0055.08506-.1305.25621-.2073.03436-.0157.07485 0 .09016.0345.01531.0345 0 .0751-.03436.0905-.13236.0594-.19666.1554-.19734.1564-.01327.0201-.03505.0314-.05751.0314Z"
    fill="#D65C48" />
  <path d="M13.0184 27.8375s.4443-.5933.7747-.1027c.3305.4907-.1366 1.9401-.9457 1.5863l.171-1.4836Z" fill="#FD896B" />
  <path
    d="M13.0237 28.8743c.0299 0 .0571-.0198.0656-.0502.1252-.4477.5876-.6294.592-.6311.0351-.0137.0528-.053.0395-.0885-.0133-.0352-.0527-.0533-.0878-.0399-.0217.0082-.5311.2066-.6754.7223-.0102.0366.0109.0741.0473.0844.0065.0024.0126.003.0188.003Z"
    fill="#D65C48" />
  <path
    d="M13.4902 28.6489c.0126 0 .0255-.0034.0368-.0109.0316-.0205.0408-.0629.0204-.0946-.0034-.0055-.0851-.1305-.2562-.2073-.0344-.0157-.0749 0-.0902.0345-.0153.0345 0 .0751.0344.0905.1323.0594.1966.1554.1973.1564.0133.0201.0351.0314.0575.0314Z"
    fill="#D65C48" />
  <path
    d="M11.8226 30.5504v1.4412s.1939 1.3492-.9014 1.341c-.5819-.0045-1.20294-1.1891-1.20294-1.1891v-1.4917l2.10434-.1014Z"
    fill="#FDA893" />
  <path d="M11.8226 30.5504v.6394c-.3893.433-1.0809.5408-2.10434.3897v-.9277l2.10434-.1014Z" fill="#FD896B" />
  <path
    d="M13.3389 26.8487c-.0266.5599-.0801 1.2604-.1867 1.8206-.0266.1396-.0569.2713-.0903.389-.3029 1.0618-1.0602 2.8831-3.18095 2.1247-.93653-.3348-1.37056-1.3799-1.56406-2.4424-.13117-.7216-.15127-1.4507-.14139-1.9717.01022-.532.30014-1.0182.76211-1.2806 1.25169-.7107 2.57249-.4456 3.44219-.1109.6037.2321.9901.8257.9591 1.4713Z"
    fill="#FDA893" />
  <path
    d="M9.94717 27.9224c0 .154-.07894.2787-.17659.2787s-.17659-.125-.17659-.2787c0-.1541.07894-.2787.17659-.2787s.17659.1246.17659.2787ZM11.9992 27.9224c0 .154-.079.2787-.1766.2787-.0977 0-.1766-.125-.1766-.2787 0-.1541.0789-.2787.1766-.2787.0976 0 .1766.1246.1766.2787ZM12.3033 27.0628s-.558-.221-.9876-.0349l.0429.2395s.6306-.0533.9481.0754c.0286-.0922.0327-.1854-.0034-.28ZM9.0521 27.0628s.55804-.221.9876-.0349l-.04289.2395s-.6306-.0533-.94812.0754c-.02861-.0922-.0327-.1854.00341-.28Z"
    fill="#0C375A" />
  <path
    d="M10.7978 29.13c-.1144.014-.2331-.0167-.2518-.0219-.0364-.0098-.0579-.0474-.048-.0839.0099-.0365.0473-.058.0837-.0481.0643.0174.2161.0386.2749-.0075.0113-.0089.0266-.0256.0255-.0672-.0044-.2402-.1663-1.0281-.1677-1.0359-.0075-.0372.016-.0734.0531-.0809.0371-.0078.0731.0161.0806.0533.0068.0327.1661.8079.1708 1.0611.0017.0952-.0415.1494-.0782.1781-.0402.031-.0912.0464-.1429.0529Z"
    fill="#FD896B" />
  <path d="M9.86353 29.5408c.05587.2817.24157.8002.86707.8002.6272 0 .8029-.4737.8632-.8002H9.86353Z" fill="#fff" />
  <path
    d="M10.6779 30.764c.1766 0 .3266-.0894.3327-.0932.0324-.0194.0426-.0616.0232-.0939-.0194-.0323-.0616-.0425-.0939-.0231-.001.0007-.1246.0735-.262.0735-.1262 0-.2474-.0725-.2484-.0732-.032-.0197-.0742-.0099-.0939.0221-.0197.032-.0099.0742.0221.0939.0061.0041.1535.0939.3202.0939Z"
    fill="#FD896B" />
  <path
    d="M13.2666 27.8498h-.3097c.0344-.3115-.0787-.6879-.172-.939-.2116-.5688.2388-.8196-.1257-1.1045-.3642-.2856-1.2714-.1631-1.902-.1835-.6347-.0205-1.65473-.0116-1.90207.046-.24835.057-.11208.4695-.02112.7892.09164.319-.30423.6725-.37066 1.0031-.01908.0949-.01499.2358 0 .3887h-.25824c-.03066-.4026-.03543-.7773-.02964-1.0809.01022-.532.30014-1.0182.76211-1.2806 1.25162-.7107 2.57252-.4456 3.44222-.1109.6037.2321.99.8257.9594 1.4713-.015.3071-.0375.6561-.0726 1.0011Z"
    fill="#0C375A" />
  <path d="M26 14s.1259 2.2144 1.8713 2.2144h13.2082s1.2568.2914 1.9375-2.2144H26Z" fill="#5655B9" />
</svg>