<svg width="213" height="165" fill="none" xmlns="http://www.w3.org/2000/svg" viewBox="0 0 213 165">
  <circle cx="110" cy="90" r="75" fill="#E5E2FF" />
  <circle cx="77" cy="5" r="5" fill="#3629B7" />
  <circle cx="200.5" cy="34.5" r="12.5" fill="#FF4267" />
  <circle cx="183" cy="136" r="5" fill="#0890FE" />
  <circle cx="52" cy="136" r="10" fill="#FFAF2A" />
  <circle cx="5" cy="70" r="5" fill="#52D5BA" />
  <path
    d="M120.538 83.3238c-.618 0-1.145-.5109-1.145-1.1312v-9.962c0-5.2182-4.215-9.4512-9.411-9.4512s-9.411 4.2512-9.411 9.4512v9.962c0 .6203-.509 1.1312-1.1451 1.1312h-6.3226c-.6178 0-1.1265-.5109-1.1265-1.1312v-9.962c0-9.9803 8.0852-18.0995 18.0232-18.0995 9.938 0 18.023 8.1192 18.023 18.0995v9.962c0 .6203-.508 1.1312-1.144 1.1312h-6.341Z"
    fill="#5655B9" />
  <path
    d="M110 55.2624c9.302 0 16.879 7.6084 16.879 16.95v9.9621h-6.323v-9.9621c0-5.8385-4.724-10.6006-10.556-10.6006-5.814 0-10.5559 4.7439-10.5559 10.6006v9.9621h-6.3227v-9.9621c0-9.3416 7.5586-16.95 16.8786-16.95ZM110 53c-10.5559 0-19.1497 8.6301-19.1497 19.2307v9.962c0 1.2589 1.0175 2.2807 2.2711 2.2807h6.3227c1.2539 0 2.2709-1.0218 2.2709-2.2807v-9.962c0-4.5796 3.707-8.3199 8.285-8.3199 4.56 0 8.285 3.7403 8.285 8.3199v9.962c0 1.2589 1.017 2.2807 2.271 2.2807h6.323c1.253 0 2.271-1.0218 2.271-2.2807v-9.962C129.15 61.6118 120.556 53 110 53Z"
    fill="#fff" />
  <path
    d="M88.8881 124.887c-1.5262 0-2.7616-1.241-2.7616-2.773V83.8165c0-1.5326 1.2354-2.7733 2.7616-2.7733h42.2239c1.526 0 2.762 1.2407 2.762 2.7733v38.2785c0 1.533-1.236 2.774-2.762 2.774H88.8881v.018Z"
    fill="#5655B9" />
  <path
    d="M131.112 82.1928c.89 0 1.617.7298 1.617 1.6421v38.2791c0 .894-.727 1.642-1.617 1.642H88.8881c-.9084 0-1.617-.73-1.617-1.642V83.8166c0-.894.7267-1.6421 1.617-1.6421h42.2239v.0183Zm0-2.2807H88.8881c-2.1439 0-3.8881 1.7516-3.8881 3.9045v38.2794c0 2.153 1.7442 3.904 3.8881 3.904h42.2239c2.144 0 3.888-1.751 3.888-3.904V83.8166c0-2.1529-1.744-3.9045-3.888-3.9045Z"
    fill="#fff" />
  <path
    d="M131.112 82.1929h-8.249v30.1781c0 .894-.726 1.624-1.635 1.624H87.2529v8.101c0 .894.7268 1.642 1.617 1.642h42.2241c.89 0 1.617-.73 1.617-1.642V83.8167c.018-.894-.709-1.6238-1.599-1.6238Z"
    fill="#5655B9" />
  <path
    d="M131.112 82.1929h-3.089v34.7391c0 .912-.726 1.624-1.635 1.624H87.2529v3.558c0 .894.7268 1.642 1.617 1.642h42.2241c.89 0 1.617-.73 1.617-1.642V83.8167c.018-.894-.709-1.6238-1.599-1.6238Z"
    fill="#5655B9" />
  <path
    d="M108.171 107.262c0-.259-.159-.491-.401-.583-2.344-.895-3.995-3.167-3.995-5.821 0-3.4324 2.791-6.2178 6.207-6.2178 3.433 0 6.207 2.7843 6.207 6.2178 0 2.654-1.651 4.926-3.995 5.821-.242.092-.402.324-.402.583v3.211c0 1.008-.813 1.821-1.81 1.821-.997 0-1.811-.813-1.811-1.821v-3.211Z"
    fill="#5655B9" stroke="#fff" stroke-width="1.2486" stroke-miterlimit="10" stroke-linecap="round"
    stroke-linejoin="round" />
</svg>