<svg width="48" height="17" fill="none" xmlns="http://www.w3.org/2000/svg">
  <path fill-rule="evenodd" clip-rule="evenodd"
    d="M10.3457 11.3941 14.0455.869629v.0017h3.9956L12.1037 16.3448H8.10815L4.72021 3.02878c2.39357 1.29267 4.53834 3.89501 5.22244 6.28978l.40305 2.07554ZM19.5637.869629 17.2011 16.3603h3.7763L23.3385.869629h-3.7748ZM30.9544 7.17964c-1.3197-.68662-2.1286-1.15004-2.1286-1.8523.0161-.63852.6841-1.29267 2.1757-1.29267 1.2269-.03247 2.1286.27131 2.8127.57357l.3427.16116.5134-3.24102c-.7459-.30379-1.9285-.638518-3.3894-.638518-3.7291 0-6.355 2.042878-6.3713 4.964638-.0308 2.1561 1.88 3.35255 3.31 4.07028 1.4608.73622 1.9581 1.21362 1.9581 1.86782-.0162 1.0043-1.1812 1.4677-2.2684 1.4677-1.5063 0-2.3155-.2387-3.5438-.7983l-.4972-.2387-.5281 3.3682c.8871.4155 2.5184.7812 4.2117.7999 3.9632 0 6.5419-2.012 6.5744-5.1258.0129-1.70819-.9947-3.0165-3.1719-4.08596ZM41.4299.917572h2.9217L47.3967 16.3727h-3.4954l-.5663-3.086h-4.434l-1.0915 3.0736h-3.9631l5.6093-14.19647c.3898-.97341 1.0739-1.246258 1.9742-1.246258ZM40.0005 10.183c.0806-.0078 1.5208-5.01631 1.5208-5.01631l1.1504 5.01631h-2.6712Z"
    fill="#fff" />
  <path
    d="M8.69688 2.97872C8.42646 1.72988 7.56405.887603 6.39278.869629H.897173l-.056597.303041C5.12753 2.42799 8.72579 6.29066 9.89313 9.92397L8.69688 2.97872Z"
    fill="#fff" />
</svg>