<svg width="24" height="24" viewBox="0 0 24 24" fill="none" xmlns="http://www.w3.org/2000/svg">
  <g clip-path="url(#a)">
    <path
      d="m23.6331 10.226-11-9.00003c-.1786-.14606-.4023-.22585-.633-.22585-.2307 0-.4544.07979-.633.22585L.367099 10.226c-.200674.1693-.3267069.4107-.3508846.6722-.0241777.2614.0554394.5219.2216606.7251.166221.2033.405708.333.666753.3612.261042.0282.522702-.0474.728472-.2105l1.367-1.118V22c0 .2652.10536.5195.29289.7071.18754.1875.44189.2929.70711.2929h6v-6h4v6h6c.2652 0 .5196-.1054.7071-.2929.1875-.1876.2929-.4419.2929-.7071V10.656l1.367 1.118c.1014.0855.2187.15.3452.1897.1265.0398.2597.0539.3917.0417.1321-.0122.2604-.0505.3775-.1128.1171-.0623.2206-.1472.3046-.2499.0839-.1026.1466-.2209.1844-.348.0378-.1272.0499-.2605.0357-.3924-.0142-.1318-.0546-.2595-.1186-.3756-.0641-.1161-.1506-.2184-.2545-.3007Z"
      fill="currentColor" />
  </g>
  <defs>
    <clipPath id="a">
      <path fill="#fff" d="M0 0h24v24H0z" />
    </clipPath>
  </defs>
</svg>