<svg width="24" height="24" fill="none" xmlns="http://www.w3.org/2000/svg">
  <path
    d="M18 0H6c-.79565 0-1.55871.31607-2.12132.87868C3.31607 1.44129 3 2.20435 3 3v18c0 .7956.31607 1.5587.87868 2.1213C4.44129 23.6839 5.20435 24 6 24h12c.7956 0 1.5587-.3161 2.1213-.8787C20.6839 22.5587 21 21.7956 21 21V3c0-.79565-.3161-1.55871-.8787-2.12132C19.5587.31607 18.7956 0 18 0Zm1 20c0 .2652-.1054.5196-.2929.7071S18.2652 21 18 21H6c-.26522 0-.51957-.1054-.70711-.2929C5.10536 20.5196 5 20.2652 5 20V4c0-.26522.10536-.51957.29289-.70711C5.48043 3.10536 5.73478 3 6 3h12c.2652 0 .5196.10536.7071.29289C18.8946 3.48043 19 3.73478 19 4v16Z"
    fill="#FFAF2A" />
  <path
    d="M15.5459 12.5819c-.6614-.616-1.4509-1.0781-2.312-1.353l-.668-.255V7.77394c.9418.07785 1.8664.29697 2.743.65l.641-1.608c-1.0759-.43973-2.2222-.68226-3.384-.716v-1.457h-1.166v1.475c-.9296.05476-1.82189.38513-2.56301.949-.30142.23755-.54357.54184-.70739.8889-.16381.34706-.2448.72741-.23661 1.1111-.02113.69347.21503 1.37026.663 1.89996.58284.604 1.30342 1.0576 2.10001 1.322l.739.273v3.287c-.6116-.0171-1.2192-.104-1.81101-.259-.60909-.1441-1.20135-.3519-1.767-.62v1.857c1.13539.4618 2.35251.689 3.57801.668v1.852h1.168v-1.907c.9807-.0531 1.9206-.4095 2.69-1.02.3022-.2585.5431-.5811.7052-.9444.162-.3632.2412-.7579.2318-1.1556.0159-.6404-.2146-1.2625-.644-1.738Zm-4.153-2.042c-.418-.1389-.8025-.3633-1.129-.65896-.2104-.22616-.32288-.52628-.31301-.835-.00232-.15362.02959-.30584.09341-.44559.0638-.13976.158-.26356.2756-.36241.3092-.24316.6815-.39272 1.073-.431v2.73296Zm1.168 5.235v-2.8c.4327.1355.8366.3502 1.191.633.1165.106.2086.236.2701.381.0615.145.0908.3016.0859.459.0013.726-.5143 1.1684-1.547 1.327Z"
    fill="#FFAF2A" />
</svg>