<svg width="24" height="24" fill="none" xmlns="http://www.w3.org/2000/svg">
  <g clip-path="url(#a)">
    <path
      d="M2 1v22c0 .2652.10536.5196.29289.7071C2.48043 23.8946 2.73478 24 3 24h18c.2652 0 .5196-.1054.7071-.2929S22 23.2652 22 23V1c0-.265216-.1054-.51957-.2929-.707107C21.5196.105357 21.2652 0 21 0H3c-.26522 0-.51957.105357-.70711.292893C2.10536.48043 2 .734784 2 1Zm3 4h6v6H5V5Zm14 14H5v-2h14v2Zm0-4H5v-2h14v2Zm0-4h-6V9h6v2Zm0-4h-6V5h6v2Z"
      fill="#3629B7" />
  </g>
  <defs>
    <clipPath id="a">
      <path fill="#fff" d="M0 0h24v24H0z" />
    </clipPath>
  </defs>
</svg>