<svg width="24" height="24" fill="none" xmlns="http://www.w3.org/2000/svg">
  <g clip-path="url(#a)" fill="#5655B9">
    <path
      d="M16.5 7H8.617C7.546 5.174 5.739 4.891 4.858 5.01l-1.14.163 1.028 3.529c-.771.633-1.407 1.411-1.874 2.298H0v7h2.866C4.079 20.303 6.395 21.793 9 21.966V24h2v-2h4v2h2v-2.025c3.902-.259 7-3.508 7-7.475 0-4.136-3.364-7.5-7.5-7.5Zm.5 6h-7v-2h7v2ZM13.5 5C14.8807 5 16 3.88071 16 2.5S14.8807 0 13.5 0 11 1.11929 11 2.5 12.1193 5 13.5 5Z" />
  </g>
  <defs>
    <clipPath id="a">
      <path fill="#fff" d="M0 0h24v24H0z" />
    </clipPath>
  </defs>
</svg>